<svg width="124" height="126" viewBox="0 0 124 126" fill="none" xmlns="http://www.w3.org/2000/svg">
<path d="M65.3489 117.758L64.5688 118.384L65.3489 117.758L62.78 114.555L61.9999 113.583L61.2199 114.555L58.651 117.758L59.4311 118.384L58.651 117.758C49.2735 129.451 30.5855 122.603 30.7999 107.439L30.7999 107.439L30.8578 103.308L30.875 102.077L29.6672 102.312L25.6736 103.088C11.1078 105.917 1.09561 88.4537 10.8596 76.9686L13.5181 73.8418L14.3011 72.9209L13.2498 72.3243L9.69924 70.3096L9.69917 70.3095C-3.31343 62.9269 0.172008 43.02 14.8431 40.6115L18.8574 39.9525L20.0587 39.7553L19.632 38.6152L18.1866 34.7533C12.8744 20.5593 28.1591 7.64582 40.8872 15.363L40.8873 15.363L44.3795 17.4798L45.4418 18.1237L45.844 16.9484L47.1795 13.0463C52.069 -1.23936 71.9309 -1.23938 76.8204 13.0462C76.8204 13.0462 76.8204 13.0462 76.8204 13.0463L78.1559 16.9488L78.5581 18.1242L79.6204 17.4802L83.1127 15.363C95.8413 7.64617 111.126 20.5593 105.813 34.7533L104.368 38.6152L103.941 39.7552L105.142 39.9525L109.157 40.6119L109.157 40.6119C123.828 43.0201 127.313 62.9269 114.301 70.3095L114.301 70.3096L110.75 72.3243L109.699 72.9209L110.482 73.8418L113.14 76.9687C122.904 88.4537 112.892 105.917 98.3263 103.088L94.3322 102.312L93.1243 102.077L93.1417 103.308L93.2 107.439C93.4144 122.603 74.7264 129.451 65.3489 117.758ZM62.8802 31.2442L61.9999 29.6108L61.1197 31.2442C57.3557 38.2281 48.9941 41.3117 41.7131 38.4278L40.0105 37.7535L40.3636 39.5504C41.9004 47.3704 37.4356 55.2069 30.029 57.7551L28.328 58.3403L29.7229 59.4761C35.8342 64.4523 37.3863 73.3743 33.3129 80.1835L32.3828 81.7382L34.194 81.6966C42.0055 81.5174 48.8331 87.3229 50.0206 95.2028L50.2961 97.0308L51.6753 95.7999C57.5538 90.5533 66.4461 90.5533 72.3246 95.7999L73.7038 97.0308L73.9793 95.2028C75.1668 87.3229 81.9944 81.5174 89.8059 81.6966L91.6171 81.7382L90.687 80.1835C86.6135 73.3743 88.1657 64.4523 94.277 59.4761L95.6719 58.3403L93.9709 57.7551C86.5642 55.2069 82.0995 47.3704 83.6363 39.5508L83.9894 37.7539L82.2868 38.4283C75.0055 41.3121 66.6442 38.2281 62.8802 31.2442Z" stroke="url(#paint0_linear_2268_9665)" stroke-width="2"/>
<defs>
<linearGradient id="paint0_linear_2268_9665" x1="123.359" y1="121.653" x2="62.4413" y2="-24.4381" gradientUnits="userSpaceOnUse">
<stop stop-color="#E77060"/>
<stop offset="0.53012" stop-color="#F8589B"/>
<stop offset="1" stop-color="#D0106D"/>
</linearGradient>
</defs>
</svg>
