<svg width="195" height="195" viewBox="0 0 195 195" fill="none" xmlns="http://www.w3.org/2000/svg">
<path d="M52.1784 71.3702C48.7341 64.943 46.7945 57.6832 46.7945 49.9982C46.7945 23.7025 69.4977 2.38574 97.5036 2.38574V45.2526C101.329 39.0243 106.64 33.6806 113.3 29.8073C136.03 16.5863 165.871 25.4932 179.952 49.7018L142.69 71.3748C150.018 71.5653 157.323 73.4925 164.026 77.334C186.841 90.4081 194.047 120.705 180.123 145.004L142.829 123.632C146.273 130.059 148.213 137.319 148.213 145.004C148.213 171.299 125.509 192.616 97.5036 192.616V149.749C93.6777 155.978 88.3672 161.321 81.7073 165.195C58.9768 178.416 29.1359 169.509 15.0556 145.3L52.3169 123.627C44.9894 123.437 37.6841 121.509 30.9806 117.668C8.16561 104.594 0.959712 74.2966 14.8847 49.9982L52.1784 71.3702Z" stroke="url(#paint0_linear_2268_9674)" stroke-width="2" stroke-linecap="round" stroke-linejoin="round"/>
<defs>
<linearGradient id="paint0_linear_2268_9674" x1="187.216" y1="187.968" x2="89.7257" y2="-33.6567" gradientUnits="userSpaceOnUse">
<stop stop-color="#E77060"/>
<stop offset="0.53012" stop-color="#F8589B"/>
<stop offset="1" stop-color="#D0106D"/>
</linearGradient>
</defs>
</svg>
