<svg width="124" height="124" viewBox="0 0 124 124" fill="none" xmlns="http://www.w3.org/2000/svg">
<g clip-path="url(#clip0_2268_9699)">
<path d="M78.0917 55.3335C103.492 56.1429 122.139 58.8208 122.139 61.9994C122.139 65.1779 103.492 67.8559 78.0917 68.6652C95.4806 87.1982 106.772 102.277 104.525 104.525C102.277 106.772 87.1982 95.4806 68.6652 78.0917C67.8559 103.492 65.1779 122.139 61.9994 122.139C58.8208 122.139 56.1429 103.492 55.3335 78.0917C36.8005 95.4806 21.7213 106.772 19.474 104.525C17.2263 102.277 28.5181 87.1982 45.9071 68.6652C20.5065 67.8559 1.85938 65.1779 1.85938 61.9994C1.85938 58.8208 20.5065 56.1429 45.9071 55.3335C28.5181 36.8005 17.2263 21.7213 19.474 19.474C21.7217 17.2263 36.8009 28.5181 55.3335 45.9071C56.1429 20.5065 58.8208 1.85938 61.9994 1.85938C65.1779 1.85938 67.8559 20.5065 68.6652 45.9071C87.1982 28.5181 102.277 17.2263 104.525 19.474C106.772 21.7217 95.4806 36.8009 78.0917 55.3335Z" stroke="url(#paint0_linear_2268_9699)" stroke-width="2" stroke-linecap="round" stroke-linejoin="round"/>
</g>
<defs>
<linearGradient id="paint0_linear_2268_9699" x1="122.139" y1="119.2" x2="62.9393" y2="-23.483" gradientUnits="userSpaceOnUse">
<stop stop-color="#E77060"/>
<stop offset="0.53012" stop-color="#F8589B"/>
<stop offset="1" stop-color="#D0106D"/>
</linearGradient>
<clipPath id="clip0_2268_9699">
<rect width="124" height="124" fill="white"/>
</clipPath>
</defs>
</svg>
