<svg width="195" height="195" viewBox="0 0 195 195" fill="none" xmlns="http://www.w3.org/2000/svg">
<path fill-rule="evenodd" clip-rule="evenodd" d="M190.752 96.4998H98.507C99.0397 45.7929 140.045 4.78778 190.752 4.25501V96.4998ZM96.5017 117.01C87.4993 160.257 49.1699 192.75 3.25171 192.75C2.69942 192.75 2.25171 192.302 2.25171 191.75V97.4998C2.25171 96.9475 2.69942 96.4998 3.25171 96.4998H77.9914C34.7444 87.4974 2.25171 49.1679 2.25171 3.24976C2.25171 2.69747 2.69942 2.24976 3.25171 2.24976H97.5017C98.054 2.24976 98.5017 2.69747 98.5017 3.24976V77.9894C107.504 34.7424 145.834 2.24976 191.752 2.24976C192.304 2.24976 192.752 2.69747 192.752 3.24976V97.4998C192.752 98.052 192.304 98.4998 191.752 98.4998H117.012C160.259 107.502 192.752 145.832 192.752 191.75C192.752 192.302 192.304 192.75 191.752 192.75H97.5017C96.9494 192.75 96.5017 192.302 96.5017 191.75V117.01ZM4.25171 190.745V98.4998H96.4965C95.9637 149.207 54.9585 190.212 4.25171 190.745ZM4.25696 4.24976C4.78973 54.9566 45.7949 95.9617 96.5017 96.4945V4.24976H4.25696ZM98.5017 190.75V98.505C149.209 99.0378 190.214 140.043 190.746 190.75H98.5017Z" fill="url(#paint0_linear_2268_9714)"/>
<path fill-rule="evenodd" clip-rule="evenodd" d="M190.752 96.4998H98.507C99.0397 45.7929 140.045 4.78778 190.752 4.25501V96.4998ZM96.5017 117.01C87.4993 160.257 49.1699 192.75 3.25171 192.75C2.69942 192.75 2.25171 192.302 2.25171 191.75V97.4998C2.25171 96.9475 2.69942 96.4998 3.25171 96.4998H77.9914C34.7444 87.4974 2.25171 49.1679 2.25171 3.24976C2.25171 2.69747 2.69942 2.24976 3.25171 2.24976H97.5017C98.054 2.24976 98.5017 2.69747 98.5017 3.24976V77.9894C107.504 34.7424 145.834 2.24976 191.752 2.24976C192.304 2.24976 192.752 2.69747 192.752 3.24976V97.4998C192.752 98.052 192.304 98.4998 191.752 98.4998H117.012C160.259 107.502 192.752 145.832 192.752 191.75C192.752 192.302 192.304 192.75 191.752 192.75H97.5017C96.9494 192.75 96.5017 192.302 96.5017 191.75V117.01ZM4.25171 190.745V98.4998H96.4965C95.9637 149.207 54.9585 190.212 4.25171 190.745ZM4.25696 4.24976C4.78973 54.9566 45.7949 95.9617 96.5017 96.4945V4.24976H4.25696ZM98.5017 190.75V98.505C149.209 99.0378 190.214 140.043 190.746 190.75H98.5017Z" fill="white" fill-opacity="0.2"/>
<defs>
<linearGradient id="paint0_linear_2268_9714" x1="192.752" y1="188.095" x2="98.9904" y2="-37.8877" gradientUnits="userSpaceOnUse">
<stop stop-color="#E77060"/>
<stop offset="0.53012" stop-color="#F8589B"/>
<stop offset="1" stop-color="#D0106D"/>
</linearGradient>
</defs>
</svg>
