<svg width="4226" height="257" viewBox="0 0 4226 257" fill="none" xmlns="http://www.w3.org/2000/svg">
<path d="M1408.94 1.29356H1449.87V46.2184H1500.46V78.165H1449.87V192.973H1408.94V1.29356ZM1606.94 69.18L1569.34 46.2184H1515.1V78.165H1565.01V192.973H1606.94V69.18Z" fill="white" fill-opacity="0.03"/>
<path d="M1363.24 169.679L1325.3 192.64H1271.73V157.699H1322.97V130.744H1272.72V104.787H1325.3L1363.24 128.082V169.679ZM1164.9 70.1784L1202.84 47.2169H1256.75V78.1651H1206.83V104.787H1256.75V130.744H1202.84L1164.9 107.782V70.1784ZM1206.83 146.384V157.699H1256.75V192.64H1202.84L1164.9 169.679V146.384H1206.83ZM1321.64 92.4745V78.1651H1271.73V47.2169H1325.3L1363.24 70.1784V92.4745H1321.64Z" fill="white" fill-opacity="0.03"/>
<path d="M1118.09 46.2201V192.975H1076.16V46.2201H1118.09ZM1117.42 32.5762H1076.16V1.62799H1117.42V32.5762Z" fill="white" fill-opacity="0.03"/>
<path d="M939.723 78.1651H989.972V104.787H939.723V78.1651ZM925.081 192.64H883.484V104.787H851.537V78.1651H883.484V23.9225L925.081 0.960938V192.64ZM989.972 47.2169V31.9092H939.723V0.960938H993.966L1031.57 23.9225V47.2169H989.972Z" fill="white" fill-opacity="0.03"/>
<path d="M805.835 192.64H715.32V157.699H763.905V77.8324H713.989V46.8841H763.905V0.960938H805.835V192.64ZM607.5 69.8457L645.437 46.8841H699.346V77.8324H648.099V157.699H698.015V192.64H645.437L607.5 169.679V69.8457Z" fill="white" fill-opacity="0.03"/>
<path d="M518.758 1.29356H561.353V192.973H518.758V1.29356Z" fill="white" fill-opacity="0.03"/>
<path d="M277.497 69.18V169.346L316.432 192.307H369.011V156.7H319.094V77.4994H369.011V46.2184H316.432L277.497 69.18ZM472.837 69.18V169.346L433.902 192.307H380.991V156.7H431.24V77.4994H380.991V46.2184H433.902L472.837 69.18Z" fill="white" fill-opacity="0.03"/>
<path d="M0.183594 24.2551V170.011L39.1185 192.64H106.672V155.036H43.4446V40.5612H108.003V1.29356H39.1185L0.183594 24.2551ZM230.798 63.19H187.537V40.5612H122.978V1.29356H191.863L230.798 24.2551V63.19ZM230.798 78.165V170.011L191.863 192.64H124.309V155.036H187.537V116.102H122.978V78.165H230.798Z" fill="white" fill-opacity="0.03"/>
<path d="M2667.61 127.75V170.012L2705.54 192.974H2760.12V157.7H2709.87V130.412H2760.12V104.788H2705.54L2667.61 127.75ZM2667.61 92.4755H2709.87V77.5006H2760.12V46.2196H2705.54L2667.61 69.514V92.4755ZM2867.27 69.514V192.974H2776.09V157.7H2825.01V130.412H2774.76V104.788H2825.01V77.5006H2774.76V46.2196H2829.34L2867.27 69.514Z" fill="white" fill-opacity="0.03"/>
<path d="M2618.02 46.2194V192.974H2576.09V46.2194H2618.02ZM2617.35 32.5756H2576.09V1.62738H2617.35V32.5756Z" fill="white" fill-opacity="0.03"/>
<path d="M2524.84 192.64H2434.33V157.699H2482.91V77.8323H2433V46.8841H2482.91V0.960938H2524.84V192.64ZM2326.51 69.8457L2364.44 46.8841H2418.35V77.8323H2367.11V157.699H2417.02V192.64H2364.44L2326.51 169.679V69.8457Z" fill="white" fill-opacity="0.03"/>
<path d="M2277.92 107.117V69.1801L2238.65 45.8858H2185.41V77.1668H2235.66V104.454H2185.41V130.078H2238.65L2277.92 107.117ZM2277.92 146.384H2234.32V157.366H2185.41V192.64H2238.65L2277.92 169.679V146.384ZM2076.92 169.679V69.1801L2116.19 45.8858H2169.1V77.1668H2118.85V104.454H2169.1V130.078H2118.85V157.366H2169.1V192.64H2116.19L2076.92 169.679Z" fill="white" fill-opacity="0.03"/>
<path d="M1797.94 1.29476H1835.88L1904.43 65.8534V116.103L1839.87 55.2046V192.641H1797.94V1.29476ZM2027.23 1.29476H1989.62L1920.74 65.8534V116.103L1985.3 55.2046V192.641H2027.23V1.29476Z" fill="white" fill-opacity="0.03"/>
<path d="M4225.72 149.823L4188.45 172.452H4135.87V145.83H4184.12V77.278H4133.87V45.997H4188.45L4225.72 68.9586V149.823ZM4027.05 45.997H4119.23V77.278H4069.32V145.83H4117.57V172.452H4069.32V256.645H4027.05V45.997Z" fill="white" fill-opacity="0.03"/>
<path d="M3981.35 192.419H3939.75V177.444L3889.84 192.419V157.477H3939.75V46.9955H3981.35V192.419ZM3783.02 169.457L3820.62 192.419H3874.53V157.477H3824.95V46.9955H3783.02V169.457Z" fill="white" fill-opacity="0.03"/>
<path d="M3541.75 68.9586V169.124L3580.69 192.086H3633.27V156.479H3583.35V77.278H3633.27V45.997H3580.69L3541.75 68.9586ZM3737.09 68.9586V169.124L3698.16 192.086H3645.25V156.479H3695.5V77.278H3645.25V45.997H3698.16L3737.09 68.9586Z" fill="white" fill-opacity="0.03"/>
<path d="M3344.86 46.9955H3386.46V61.3049L3436.38 46.9955V77.9437H3386.46V192.419H3344.86V46.9955ZM3494.61 65.2982L3451.35 46.9955V92.2531H3494.61V65.2982Z" fill="white" fill-opacity="0.03"/>
<path d="M3058.27 23.9616V169.718L3097.2 192.347H3164.76V154.743H3101.53V40.2676H3166.09V1H3097.2L3058.27 23.9616ZM3288.88 62.8965H3245.62V40.2676H3181.06V1H3249.95L3288.88 23.9616V62.8965ZM3288.88 77.8714V169.718L3249.95 192.347H3182.4V154.743H3245.62V115.808H3181.06V77.8714H3288.88Z" fill="white" fill-opacity="0.03"/>
</svg>
