<svg width="1046" height="282" viewBox="0 0 1046 282" fill="none" xmlns="http://www.w3.org/2000/svg">
  <path d="M366.534 0H418.08L511.224 95.0278V168.993L423.506 79.3531V281.655H366.534V0ZM678.069 0H626.975L533.379 95.0278V168.993L621.097 79.3531V281.655H678.069V0Z" fill="url(#paint0_linear_2601_3723)" fill-opacity="0.03" />
  <path d="M0 33.7985V248.346L52.9021 281.655H144.689V226.303H58.7801V57.8004H146.498V0H52.9021L0 33.7985ZM313.343 91.1091H254.563V57.8004H166.845V0H260.441L313.343 33.7985V91.1091ZM313.343 113.152V248.346L260.441 281.655H168.654V226.303H254.563V168.993H166.845V113.152H313.343Z" fill="url(#paint1_linear_2601_3723)" fill-opacity="0.03" />
  <path d="M731.797 33.7985V248.346L784.699 281.655H876.486V226.303H790.577V57.8004H878.295V0H784.699L731.797 33.7985ZM1045.14 91.1091H986.36V57.8004H898.642V0H992.238L1045.14 33.7985V91.1091ZM1045.14 113.152V248.346L992.238 281.655H900.45V226.303H986.36V168.993H898.642V113.152H1045.14Z" fill="url(#paint2_linear_2601_3723)" fill-opacity="0.03" />
  <defs>
    <linearGradient id="paint0_linear_2601_3723" x1="578.235" y1="147.185" x2="578.236" y2="338.124" gradientUnits="userSpaceOnUse">
      <stop stop-color="white" />
      <stop offset="1" stop-color="#999999" stop-opacity="0" />
    </linearGradient>
    <linearGradient id="paint1_linear_2601_3723" x1="212.93" y1="147.185" x2="212.93" y2="338.124" gradientUnits="userSpaceOnUse">
      <stop stop-color="white" />
      <stop offset="1" stop-color="#999999" stop-opacity="0" />
    </linearGradient>
    <linearGradient id="paint2_linear_2601_3723" x1="944.727" y1="147.185" x2="944.727" y2="338.124" gradientUnits="userSpaceOnUse">
      <stop stop-color="white" />
      <stop offset="1" stop-color="#999999" stop-opacity="0" />
    </linearGradient>
  </defs>
</svg>