<svg width="403" height="85" viewBox="0 0 403 85" fill="none" xmlns="http://www.w3.org/2000/svg">
<g clip-path="url(#clip0_2268_9550)">
<path d="M110.418 54.4424C106.284 54.4424 102.976 53.2021 100.599 50.8249C98.222 48.4476 97.0851 45.0368 97.0851 40.7991C97.0851 36.4581 98.222 32.944 100.393 30.4634C102.563 27.9828 105.56 26.7425 109.385 26.7425C112.899 26.7425 115.689 27.7761 117.757 29.9466C119.824 32.1171 120.857 35.0111 120.857 38.8354V41.9361H102.976C103.08 44.52 103.803 46.4838 105.044 47.9308C106.284 49.3779 108.248 49.998 110.625 49.998C112.175 49.998 113.726 49.8946 115.069 49.5846C116.413 49.2745 117.86 48.7577 119.514 48.1376V52.7887C118.17 53.4088 116.723 53.9256 115.276 54.2357C113.829 54.5457 112.175 54.4424 110.418 54.4424ZM109.281 31.0835C107.421 31.0835 105.974 31.7037 104.94 32.8406C103.907 33.9775 103.183 35.6313 102.976 37.9051H115.173C115.173 35.7346 114.656 33.9775 113.622 32.8406C112.589 31.7037 111.142 31.0835 109.281 31.0835Z" fill="white"/>
<path d="M132.947 54.0285H127.262V16.3029H132.947V54.0285Z" fill="white"/>
<path d="M157.862 54.0279L156.725 50.3071H156.519C155.278 51.9608 153.935 53.0977 152.591 53.6145C151.247 54.1313 149.594 54.5447 147.527 54.5447C144.943 54.5447 142.875 53.8212 141.325 52.3742C139.775 50.9272 139.155 48.9634 139.155 46.3795C139.155 43.5888 140.188 41.5217 142.255 40.178C144.322 38.8344 147.423 38.0075 151.661 37.9041L156.312 37.8008V36.3538C156.312 34.5967 155.898 33.3564 155.072 32.5295C154.245 31.7027 153.004 31.2892 151.351 31.2892C150.007 31.2892 148.663 31.4959 147.423 31.9094C146.183 32.3228 144.943 32.8396 143.806 33.3564L141.945 29.3254C143.392 28.6019 144.943 27.9818 146.7 27.5684C148.457 27.1549 150.007 26.9482 151.557 26.9482C154.968 26.9482 157.552 27.6717 159.309 29.2221C161.066 30.7724 161.893 33.0463 161.893 36.2504V54.0279H157.862ZM149.387 50.1003C151.454 50.1003 153.108 49.4802 154.348 48.3433C155.588 47.2063 156.209 45.5526 156.209 43.4855V41.2116L152.798 41.3149C150.11 41.4183 148.147 41.8317 146.906 42.6586C145.666 43.4855 145.046 44.7258 145.046 46.3795C145.046 47.6198 145.356 48.55 146.08 49.1701C146.803 49.7903 147.94 50.1003 149.387 50.1003Z" fill="white"/>
<path d="M187.842 46.3789C187.842 48.9629 186.912 51.03 184.948 52.3737C182.984 53.7173 180.297 54.4408 176.782 54.4408C173.165 54.4408 170.374 53.9241 168.204 52.7871V47.8259C171.305 49.273 174.302 49.9965 176.989 49.9965C180.503 49.9965 182.26 48.9629 182.26 46.7924C182.26 46.0689 182.054 45.5521 181.64 45.1386C181.227 44.7252 180.607 44.2084 179.676 43.6916C178.746 43.1748 177.506 42.6581 175.956 42.0379C172.855 40.7976 170.788 39.6607 169.651 38.4204C168.514 37.1801 167.997 35.6297 167.997 33.7693C167.997 31.4954 168.927 29.7383 170.788 28.3947C172.648 27.051 175.129 26.5342 178.333 26.5342C181.434 26.5342 184.431 27.1544 187.222 28.498L185.361 32.7357C182.467 31.4954 180.09 30.9786 178.023 30.9786C175.025 30.9786 173.475 31.8055 173.475 33.5626C173.475 34.3894 173.888 35.1129 174.612 35.7331C175.335 36.3532 177.093 37.0767 179.78 38.1103C181.95 38.9372 183.604 39.764 184.638 40.4875C185.671 41.211 186.395 42.0379 186.912 42.9681C187.635 44.0017 187.842 45.0353 187.842 46.3789Z" fill="white"/>
<path d="M203.965 49.8951C205.308 49.8951 206.755 49.6884 208.099 49.275V53.5126C207.479 53.8227 206.652 54.0294 205.618 54.2362C204.585 54.4429 203.551 54.5462 202.518 54.5462C197.143 54.5462 194.456 51.6522 194.456 46.0709V31.6008H190.838V29.1202L194.766 27.0531L196.73 21.3684H200.244V27.3631H207.892V31.7042H200.244V46.0709C200.244 47.4145 200.554 48.4481 201.277 49.0683C202.001 49.6884 202.931 49.8951 203.965 49.8951Z" fill="white"/>
<path d="M213.157 20.1292C213.157 19.0956 213.468 18.3721 213.984 17.752C214.501 17.1318 215.328 16.9251 216.362 16.9251C217.395 16.9251 218.119 17.2352 218.739 17.752C219.359 18.2688 219.566 19.0956 219.566 20.1292C219.566 21.0594 219.256 21.8863 218.739 22.4031C218.222 22.9199 217.395 23.2299 216.362 23.2299C215.328 23.2299 214.501 22.9199 213.984 22.4031C213.468 21.8863 213.157 21.0594 213.157 20.1292ZM219.256 54.0306H213.571V27.2609H219.256V54.0306Z" fill="white"/>
<path d="M238.175 54.4429C234.144 54.4429 231.044 53.3059 228.976 50.9287C226.909 48.5515 225.772 45.1407 225.772 40.6963C225.772 36.1485 226.909 32.7377 229.08 30.2571C231.25 27.7766 234.454 26.6396 238.589 26.6396C241.379 26.6396 243.963 27.1564 246.237 28.19L244.48 32.7377C242.103 31.8075 240.139 31.2907 238.485 31.2907C233.834 31.2907 231.56 34.3915 231.56 40.4896C231.56 43.4869 232.181 45.7608 233.317 47.3112C234.454 48.8615 236.211 49.585 238.382 49.585C240.966 49.585 243.343 48.9649 245.617 47.7246V52.6858C244.583 53.3059 243.55 53.7193 242.31 53.9261C241.069 54.1328 239.829 54.4429 238.175 54.4429Z" fill="white"/>
<path d="M269.903 46.3789C269.903 48.9629 268.973 51.03 267.009 52.3737C265.045 53.7173 262.358 54.4408 258.844 54.4408C255.226 54.4408 252.436 53.9241 250.265 52.7871V47.8259C253.366 49.273 256.363 49.9965 259.051 49.9965C262.565 49.9965 264.322 48.9629 264.322 46.7924C264.322 46.0689 264.115 45.5521 263.702 45.1386C263.288 44.7252 262.668 44.2084 261.738 43.6916C260.808 43.1748 259.568 42.6581 258.017 42.0379C254.916 40.7976 252.849 39.6607 251.712 38.4204C250.575 37.1801 250.059 35.6297 250.059 33.7693C250.059 31.4954 250.989 29.7383 252.849 28.3947C254.71 27.051 257.19 26.5342 260.394 26.5342C263.495 26.5342 266.492 27.1544 269.283 28.498L267.423 32.7357C264.529 31.4954 262.151 30.9786 260.084 30.9786C257.087 30.9786 255.537 31.8055 255.537 33.5626C255.537 34.3894 255.95 35.1129 256.673 35.7331C257.397 36.3532 259.154 37.0767 261.841 38.1103C264.012 38.9372 265.666 39.764 266.699 40.4875C267.733 41.211 268.456 42.0379 268.973 42.9681C269.697 44.0017 269.903 45.0353 269.903 46.3789Z" fill="white"/>
<path d="M287.788 54.4424C283.654 54.4424 280.347 53.2021 277.969 50.8249C275.592 48.4476 274.455 45.0368 274.455 40.7991C274.455 36.4581 275.592 32.944 277.763 30.4634C279.933 27.9828 282.931 26.7425 286.755 26.7425C290.269 26.7425 293.06 27.7761 295.127 29.9466C297.194 32.1171 298.228 35.0111 298.228 38.8354V41.9361H280.347C280.45 44.52 281.174 46.4838 282.414 47.9308C283.654 49.3779 285.618 49.998 287.995 49.998C289.546 49.998 291.096 49.8946 292.44 49.5846C293.783 49.2745 295.23 48.7577 296.884 48.1376V52.7887C295.54 53.4088 294.093 53.9256 292.646 54.2357C291.199 54.5457 289.649 54.4424 287.788 54.4424ZM286.755 31.0835C284.894 31.0835 283.447 31.7037 282.414 32.8406C281.38 33.9775 280.657 35.6313 280.45 37.9051H292.646C292.646 35.7346 292.13 33.9775 291.096 32.8406C290.062 31.7037 288.512 31.0835 286.755 31.0835Z" fill="white"/>
<path d="M321.363 54.0279L320.226 50.3071H320.02C318.779 51.9608 317.436 53.0977 316.092 53.6145C314.748 54.1313 313.095 54.5447 311.027 54.5447C308.443 54.5447 306.376 53.8212 304.826 52.3742C303.276 50.9272 302.655 48.9634 302.655 46.3795C302.655 43.5888 303.689 41.5217 305.756 40.178C307.823 38.8344 310.924 38.0075 315.162 37.9041L319.813 37.8008V36.3538C319.813 34.5967 319.399 33.3564 318.573 32.5295C317.746 31.7027 316.505 31.2892 314.852 31.2892C313.508 31.2892 312.164 31.4959 310.924 31.9094C309.684 32.3228 308.443 32.8396 307.306 33.3564L305.446 29.3254C306.893 28.6019 308.443 27.9818 310.201 27.5684C311.958 27.1549 313.508 26.9482 315.058 26.9482C318.469 26.9482 321.053 27.6717 322.81 29.2221C324.567 30.7724 325.394 33.0463 325.394 36.2504V54.0279H321.363ZM312.888 50.1003C314.955 50.1003 316.609 49.4802 317.849 48.3433C319.089 47.2063 319.709 45.5526 319.709 43.4855V41.2116L316.299 41.3149C313.611 41.4183 311.648 41.8317 310.407 42.6586C309.167 43.4855 308.547 44.7258 308.547 46.3795C308.547 47.6198 308.857 48.55 309.58 49.1701C310.304 49.7903 311.544 50.1003 312.888 50.1003Z" fill="white"/>
<path d="M347.008 26.7425C348.145 26.7425 349.075 26.8459 349.798 26.9492L349.282 32.2205C348.455 32.0137 347.628 31.9104 346.801 31.9104C344.527 31.9104 342.667 32.6339 341.22 34.1843C339.773 35.7346 339.049 37.5951 339.049 39.9723V54.0289H333.365V27.2593H337.809L338.532 32.0137H338.842C339.773 30.4634 340.91 29.1197 342.357 28.1895C343.804 27.2593 345.354 26.7425 347.008 26.7425Z" fill="white"/>
<path d="M365.608 54.4429C361.577 54.4429 358.476 53.3059 356.409 50.9287C354.342 48.5515 353.205 45.1407 353.205 40.6963C353.205 36.1485 354.342 32.7377 356.513 30.2571C358.683 27.7766 361.887 26.6396 366.021 26.6396C368.812 26.6396 371.396 27.1564 373.67 28.19L371.913 32.7377C369.536 31.8075 367.572 31.2907 365.918 31.2907C361.267 31.2907 358.993 34.3915 358.993 40.4896C358.993 43.4869 359.613 45.7608 360.75 47.3112C361.887 48.8615 363.644 49.585 365.815 49.585C368.399 49.585 370.776 48.9649 373.05 47.7246V52.6858C372.016 53.3059 370.983 53.7193 369.742 53.9261C368.502 54.1328 367.262 54.4429 365.608 54.4429Z" fill="white"/>
<path d="M402.921 54.0285H397.236V37.4912C397.236 35.4241 396.822 33.8737 395.996 32.8401C395.169 31.8066 393.825 31.2898 392.068 31.2898C389.691 31.2898 387.934 32.0133 386.797 33.4603C385.66 34.9073 385.143 37.2845 385.143 40.592V54.0285H379.458V16.3029H385.143V25.9152C385.143 27.4655 385.04 29.1193 384.833 30.8763H385.246C386.073 29.636 387.107 28.6025 388.45 27.879C389.794 27.1555 391.448 26.8454 393.308 26.8454C399.82 26.8454 403.024 30.1528 403.024 36.6644V54.0285H402.921Z" fill="white"/>
<path d="M57.1869 29.739H35.5851C35.6884 30.2558 35.8952 30.7726 35.9985 31.186C36.722 33.6666 37.1354 36.2506 37.3422 38.9379C37.4455 39.9714 37.4455 41.1084 37.4455 42.1419C37.4455 43.1755 37.4455 44.3125 37.3422 45.346C37.1354 48.0333 36.722 50.6173 35.9985 53.0979C35.8952 53.6147 35.6884 54.1315 35.5851 54.5449H57.1869C64.0085 54.5449 69.4864 48.9636 69.4864 42.1419C69.4864 35.3203 64.0085 29.739 57.1869 29.739Z" fill="#00A9E5"/>
<path d="M37.3519 45.346C37.4553 44.3125 37.4553 43.1755 37.4553 42.1419C37.4553 41.1084 37.4553 39.9714 37.3519 38.9379C37.1452 36.2506 36.7318 33.6666 36.0083 31.186C35.9049 30.6692 35.6982 30.1524 35.5949 29.739H2.21029C0.969995 33.6666 0.349854 37.8009 0.349854 42.1419C0.349854 46.483 0.969995 50.6173 2.21029 54.5449H35.5949C35.6982 54.0281 35.9049 53.5113 36.0083 53.0979C36.7318 50.6173 37.1452 48.0333 37.3519 45.346Z" fill="#353535"/>
<path d="M60.9122 58.6819H34.0392C33.2123 60.5423 32.2821 62.2994 31.2485 63.9531C29.6981 66.5371 27.8377 68.8109 25.7706 70.9814C25.0471 71.7049 24.3235 72.3251 23.6 73.0486C22.153 74.3922 20.4993 75.5292 18.8456 76.6661C25.3571 81.0071 33.2123 83.4877 41.5843 83.4877C55.951 83.4877 68.5607 76.1493 76.0024 65.09C72.1782 61.1624 66.8036 58.6819 60.9122 58.6819Z" fill="#00BFB3"/>
<path d="M31.2451 63.9531C32.2787 62.2994 33.2089 60.5423 34.0358 58.6819H3.75195C6.95604 66.0203 12.2273 72.3251 18.9456 76.6661C20.5993 75.5292 22.1496 74.3922 23.7 73.0486C24.4235 72.4284 25.147 71.7049 25.8705 70.9814C27.8343 68.9143 29.6948 66.5371 31.2451 63.9531Z" fill="#019B8F"/>
<path d="M25.7702 13.3076C25.0467 12.5841 24.3232 11.964 23.5997 11.2405C22.1527 9.89683 20.4989 8.75989 18.8452 7.62296C12.2303 11.964 6.95906 18.2688 3.65161 25.6072H33.9354C33.1086 23.7468 32.1784 21.9897 31.1448 20.336C29.6978 17.752 27.8373 15.3748 25.7702 13.3076Z" fill="#F9B110"/>
<path d="M41.5843 0.801208C33.2123 0.801208 25.3571 3.28179 18.8456 7.62282C20.4993 8.75976 22.0497 9.89669 23.6 11.2403C24.3235 11.8605 25.0471 12.584 25.7706 13.3075C27.8377 15.478 29.6981 17.7519 31.2485 20.3358C32.2821 21.9896 33.2123 23.7466 34.0392 25.6071H60.9122C66.8036 25.6071 72.1782 23.1265 76.0024 19.1989C68.5607 8.13961 55.951 0.801208 41.5843 0.801208Z" fill="#FED10A"/>
</g>
<defs>
<clipPath id="clip0_2268_9550">
<rect width="402.103" height="84.0215" fill="white" transform="translate(0.722656 0.650391)"/>
</clipPath>
</defs>
</svg>
