<svg width="643" height="212" viewBox="0 0 643 212" fill="none" xmlns="http://www.w3.org/2000/svg">
<g filter="url(#filter0_f_2268_9720)">
<path d="M0 125.714H50.5714L66 117.143L79.7143 125.714H93.4286L98.5714 136.857L103.714 125.714H114L121.714 106.857L131.143 125.714H138L142.286 132.571L152.571 16L168 196L175.714 125.714H196.286L216.857 103.429L233.143 125.714H287.143L302.571 117.143L318.857 125.714H331.714L336.857 136.857L340.286 125.714H351.429L359.143 106.857L366.857 125.714H375.429L378.857 132.571L390.857 16L403.714 196L414 125.714H488.571L502.286 117.143L512.571 125.714H526.286L534 136.857L538.286 125.714H548.571L559.714 106.857L566.571 125.714H582L590.571 136.857L601.714 16L618 196L624.857 174.571" stroke="url(#paint0_linear_2268_9720)" stroke-width="6.2069"/>
</g>
<g filter="url(#filter1_f_2268_9720)">
<path d="M0 125.714H50.5714L66 117.143L79.7143 125.714H93.4286L98.5714 136.857L103.714 125.714H114L121.714 106.857L131.143 125.714H138L142.286 132.571L152.571 16L168 196L175.714 125.714H196.286L216.857 103.429L233.143 125.714H287.143L302.571 117.143L318.857 125.714H331.714L336.857 136.857L340.286 125.714H351.429L359.143 106.857L366.857 125.714H375.429L378.857 132.571L390.857 16L403.714 196L414 125.714H488.571L502.286 117.143L512.571 125.714H526.286L534 136.857L538.286 125.714H548.571L559.714 106.857L566.571 125.714H582L590.571 136.857L601.714 16L618 196L624.857 174.571" stroke="url(#paint1_linear_2268_9720)" stroke-width="2"/>
</g>
<path d="M0 125.714H50.5714L66 117.143L79.7143 125.714H93.4286L98.5714 136.857L103.714 125.714H114L121.714 106.857L131.143 125.714H138L142.286 132.571L152.571 16L168 196L175.714 125.714H196.286L216.857 103.429L233.143 125.714H287.143L302.571 117.143L318.857 125.714H331.714L336.857 136.857L340.286 125.714H351.429L359.143 106.857L366.857 125.714H375.429L378.857 132.571L390.857 16L403.714 196L414 125.714H488.571L502.286 117.143L512.571 125.714H526.286L534 136.857L538.286 125.714H548.571L559.714 106.857L566.571 125.714H582L590.571 136.857L601.714 16L618 196L624.857 174.571" stroke="url(#paint2_linear_2268_9720)" stroke-width="2"/>
<defs>
<filter id="filter0_f_2268_9720" x="-14.8966" y="0.785578" width="657.606" height="211.057" filterUnits="userSpaceOnUse" color-interpolation-filters="sRGB">
<feFlood flood-opacity="0" result="BackgroundImageFix"/>
<feBlend mode="normal" in="SourceGraphic" in2="BackgroundImageFix" result="shape"/>
<feGaussianBlur stdDeviation="7.44828" result="effect1_foregroundBlur_2268_9720"/>
</filter>
<filter id="filter1_f_2268_9720" x="-4" y="11.8977" width="633.81" height="188.407" filterUnits="userSpaceOnUse" color-interpolation-filters="sRGB">
<feFlood flood-opacity="0" result="BackgroundImageFix"/>
<feBlend mode="normal" in="SourceGraphic" in2="BackgroundImageFix" result="shape"/>
<feGaussianBlur stdDeviation="2" result="effect1_foregroundBlur_2268_9720"/>
</filter>
<linearGradient id="paint0_linear_2268_9720" x1="624.414" y1="133.31" x2="332.69" y2="133.31" gradientUnits="userSpaceOnUse">
<stop stop-color="#E03C27"/>
<stop offset="1" stop-color="#101212"/>
</linearGradient>
<linearGradient id="paint1_linear_2268_9720" x1="624.414" y1="133.31" x2="19.8621" y2="138.276" gradientUnits="userSpaceOnUse">
<stop stop-color="#E03C27"/>
<stop offset="1" stop-color="#101212"/>
</linearGradient>
<linearGradient id="paint2_linear_2268_9720" x1="624.414" y1="133.31" x2="19.8621" y2="138.276" gradientUnits="userSpaceOnUse">
<stop stop-color="#E03C27"/>
<stop offset="1" stop-color="#101212"/>
</linearGradient>
</defs>
</svg>
