<svg width="626" height="182" viewBox="0 0 626 182" fill="none" xmlns="http://www.w3.org/2000/svg">
<path d="M0 110.714H50.5714L66 102.143L79.7143 110.714H93.4286L98.5714 121.857L103.714 110.714H114L121.714 91.8571L131.143 110.714H138L142.286 117.571L152.571 1L168 181L175.714 110.714H196.286L216.857 88.4286L233.143 110.714H287.143L302.571 102.143L318.857 110.714H331.714L336.857 121.857L340.286 110.714H351.429L359.143 91.8571L366.857 110.714H375.429L378.857 117.571L390.857 1L403.714 181L414 110.714H488.571L502.286 102.143L512.571 110.714H526.286L534 121.857L538.286 110.714H548.571L559.714 91.8571L566.571 110.714H582L590.571 121.857L601.714 1L618 181L624.857 159.571" stroke="url(#paint0_linear_2268_9723)" stroke-width="2"/>
<defs>
<linearGradient id="paint0_linear_2268_9723" x1="624.414" y1="118.31" x2="19.8621" y2="123.276" gradientUnits="userSpaceOnUse">
<stop stop-color="#E03C27"/>
<stop offset="1" stop-color="#101212"/>
</linearGradient>
</defs>
</svg>
