<svg width="278" height="63" viewBox="0 0 278 63" fill="none" xmlns="http://www.w3.org/2000/svg">
<g clip-path="url(#clip0_2268_9499)">
<path d="M77.057 3.29701H89.8656L89.8656 28.7479L113.487 3.29701H128.957L105.253 27.9993L130.038 61.5181L114.651 61.5181L96.6027 36.733L89.8656 43.7193L89.8656 61.5181H77.057L77.057 3.29529V3.29701Z" fill="white"/>
<path d="M123.229 39.4754V39.3096C123.229 26.501 133.543 16.1039 147.432 16.1039C161.239 16.1039 171.469 26.3342 171.469 39.1427V39.3092C171.469 52.1178 161.156 62.5138 147.266 62.5138C133.459 62.5138 123.229 52.2839 123.229 39.4754ZM158.993 39.4754V39.3096C158.993 32.7387 154.253 26.9999 147.266 26.9999C140.03 26.9999 135.705 32.5723 135.705 39.1433V39.3098C135.705 45.88 140.446 51.6189 147.432 51.6189C154.668 51.6189 158.993 46.0464 158.993 39.4754Z" fill="white"/>
<path d="M174.958 48.8714V27.7457H169.635V16.9331H174.958L174.958 5.53827H187.601V16.9331H198.08V27.7457H187.601V46.7926C187.601 49.7031 188.848 51.1176 191.676 51.1176C194.005 51.1176 196.084 50.5354 197.914 49.5367V59.6841C195.252 61.2644 192.175 62.2624 187.933 62.2624C180.198 62.2624 174.958 59.1846 174.958 48.8714Z" fill="white"/>
<path d="M201.716 0.799194H214.359L214.359 61.5135H201.716L201.716 0.799194Z" fill="white"/>
<path d="M218.929 0.799194H232.236V12.0278H218.929V0.799194ZM219.262 16.9346H231.904L231.904 61.5152L219.262 61.5152L219.262 16.9346Z" fill="white"/>
<path d="M236.709 16.9353H249.351V23.2565C252.262 19.5137 256.005 16.1039 262.409 16.1039C271.974 16.1039 277.547 22.425 277.547 32.6553V61.5159L264.905 61.5159V36.6473C264.905 30.6593 262.076 27.5816 257.253 27.5816C252.428 27.5816 249.351 30.6592 249.351 36.6473L249.351 61.5159H236.709L236.709 16.9353L236.709 16.9353Z" fill="white"/>
<path d="M29.3244 3.26562L0.0984497 34.0007V61.4739L29.2826 32.2413L58.3118 3.26562H29.3244Z" fill="url(#paint0_linear_2268_9499)"/>
<path d="M0.0984497 61.4763L29.2826 32.2438L58.3118 61.4763H0.0984497Z" fill="url(#paint1_linear_2268_9499)"/>
<path d="M0.0984497 3.26562H29.3249L0.0984497 34.0007V3.26562Z" fill="url(#paint2_linear_2268_9499)"/>
</g>
<defs>
<linearGradient id="paint0_linear_2268_9499" x1="-6.49908" y1="53.5819" x2="40.1758" y2="6.90644" gradientUnits="userSpaceOnUse">
<stop offset="0.10753" stop-color="#C757BC"/>
<stop offset="0.21383" stop-color="#D0609A"/>
<stop offset="0.42537" stop-color="#E1725C"/>
<stop offset="0.60485" stop-color="#EE7E2F"/>
<stop offset="0.74303" stop-color="#F58613"/>
<stop offset="0.82323" stop-color="#F88909"/>
</linearGradient>
<linearGradient id="paint1_linear_2268_9499" x1="20.6295" y1="70.0306" x2="45.218" y2="45.4398" gradientUnits="userSpaceOnUse">
<stop offset="0.09677" stop-color="#0095D5"/>
<stop offset="0.30073" stop-color="#238AD9"/>
<stop offset="0.62106" stop-color="#557BDE"/>
<stop offset="0.86432" stop-color="#7472E2"/>
<stop offset="1" stop-color="#806EE3"/>
</linearGradient>
<linearGradient id="paint2_linear_2268_9499" x1="-2.57145" y1="21.3029" x2="18.9203" y2="-0.188829" gradientUnits="userSpaceOnUse">
<stop offset="0.09677" stop-color="#0095D5"/>
<stop offset="0.30073" stop-color="#238AD9"/>
<stop offset="0.62106" stop-color="#557BDE"/>
<stop offset="0.86432" stop-color="#7472E2"/>
<stop offset="1" stop-color="#806EE3"/>
</linearGradient>
<clipPath id="clip0_2268_9499">
<rect width="277.714" height="61.7143" fill="white" transform="translate(0 0.800781)"/>
</clipPath>
</defs>
</svg>
