<svg width="247" height="128" viewBox="0 0 247 128" fill="none" xmlns="http://www.w3.org/2000/svg">
<g clip-path="url(#clip0_2268_9616)">
<path d="M142.619 127.919C141.93 127.919 141.245 127.738 140.641 127.391L134.348 123.665C133.408 123.139 133.867 122.953 134.177 122.846C135.43 122.407 135.685 122.308 137.022 121.548C137.163 121.468 137.347 121.497 137.491 121.582L142.326 124.45C142.5 124.545 142.748 124.545 142.91 124.45L161.76 113.569C161.935 113.47 162.048 113.267 162.048 113.06V91.3072C162.048 91.0901 161.935 90.8966 161.757 90.7881L142.913 79.9165C142.739 79.8127 142.508 79.8127 142.333 79.9165L123.494 90.7881C123.311 90.8919 123.195 91.0948 123.195 91.3024V113.055C123.195 113.263 123.308 113.461 123.488 113.56L128.65 116.542C131.453 117.943 133.165 116.292 133.165 114.631V93.1616C133.165 92.8549 133.406 92.6189 133.713 92.6189H136.1C136.398 92.6189 136.643 92.8549 136.643 93.1616V114.64C136.643 118.378 134.605 120.525 131.061 120.525C129.971 120.525 129.112 120.525 126.715 119.345L121.77 116.495C121.169 116.144 120.67 115.642 120.323 115.038C119.976 114.435 119.793 113.751 119.793 113.055V91.3024C119.793 89.8869 120.548 88.5657 121.77 87.8673L140.64 76.9816C141.833 76.3068 143.419 76.3068 144.603 76.9816L163.449 87.872C164.05 88.2218 164.549 88.723 164.896 89.3258C165.243 89.9285 165.426 90.6117 165.426 91.3072V113.06C165.426 114.471 164.667 115.787 163.449 116.495L144.603 127.381C143.999 127.728 143.314 127.911 142.617 127.909" fill="#689F63"/>
<path d="M148.444 112.931C140.196 112.931 138.467 109.145 138.467 105.969C138.467 105.667 138.711 105.426 139.013 105.426H141.448C141.717 105.426 141.943 105.622 141.986 105.888C142.354 108.369 143.448 109.62 148.436 109.62C152.409 109.62 154.098 108.723 154.098 106.616C154.098 105.403 153.617 104.502 147.445 103.898C142.283 103.388 139.093 102.251 139.093 98.1226C139.093 94.3194 142.302 92.0545 147.676 92.0545C153.711 92.0545 156.703 94.1495 157.08 98.651C157.087 98.7267 157.077 98.8029 157.052 98.8747C157.028 98.9465 156.989 99.0125 156.937 99.0683C156.886 99.1242 156.823 99.1688 156.754 99.1993C156.684 99.2298 156.609 99.2456 156.533 99.2456H154.084C153.829 99.2456 153.608 99.0663 153.556 98.8209C152.966 96.2115 151.541 95.3763 147.667 95.3763C143.33 95.3763 142.826 96.8863 142.826 98.0187C142.826 99.3918 143.42 99.7929 149.271 100.567C155.066 101.336 157.816 102.421 157.816 106.493C157.816 110.598 154.391 112.953 148.417 112.953M171.378 89.8839H172.01C172.529 89.8839 172.628 89.5206 172.628 89.3083C172.628 88.7515 172.246 88.7515 172.034 88.7515H171.382L171.378 89.8839ZM170.609 88.1003H172.01C172.491 88.1003 173.435 88.1003 173.435 89.1761C173.435 89.9264 172.954 90.0821 172.666 90.1765C173.227 90.2142 173.265 90.5823 173.341 91.1013C173.378 91.4269 173.44 91.9884 173.553 92.1772H172.689C172.666 91.9884 172.534 90.9503 172.534 90.8937C172.477 90.6625 172.397 90.5492 172.109 90.5492H171.397V92.1819H170.609V88.1003ZM168.924 90.1293C168.924 91.8185 170.288 93.1869 171.963 93.1869C173.652 93.1869 175.016 91.7902 175.016 90.1293C175.016 88.4353 173.633 87.0905 171.958 87.0905C170.307 87.0905 168.919 88.4165 168.919 90.1246M175.601 90.1387C175.601 92.1394 173.963 93.772 171.967 93.772C169.986 93.772 168.334 92.1583 168.334 90.1387C168.334 88.0814 170.023 86.5054 171.967 86.5054C173.926 86.5054 175.596 88.0862 175.596 90.1387" fill="#689F63"/>
<path fill-rule="evenodd" clip-rule="evenodd" d="M84.2415 42.8081C84.2415 41.9399 83.7838 41.1424 83.0345 40.7107L63.0485 29.2115C62.7142 29.0167 62.3368 28.9081 61.9501 28.8954H61.7434C61.3602 28.9095 60.9823 29.0133 60.6392 29.2115L40.6542 40.7107C40.2868 40.9245 39.9818 41.2309 39.7697 41.5993C39.5575 41.9677 39.4457 42.3853 39.4453 42.8104L39.4892 73.7831C39.4892 74.2125 39.711 74.6136 40.0885 74.8259C40.4565 75.0524 40.9189 75.0524 41.287 74.8259L53.1683 68.0218C53.9186 67.5754 54.3763 66.7864 54.3763 65.9267V51.4572C54.3754 51.0335 54.4864 50.6171 54.6981 50.25C54.9098 49.883 55.2147 49.5783 55.5819 49.3669L60.6402 46.4536C61.0071 46.2406 61.4239 46.1285 61.8481 46.129C62.2615 46.129 62.6833 46.2356 63.0485 46.4532L68.1045 49.3655C68.8529 49.7949 69.3124 50.5923 69.3124 51.4558V65.9243C69.3124 66.7831 69.7763 67.5758 70.5228 68.0194L82.3966 74.8188C82.5792 74.9277 82.7879 74.9852 83.0005 74.9852C83.2132 74.9852 83.4219 74.9277 83.6045 74.8188C83.7864 74.7121 83.9372 74.5598 84.0421 74.3769C84.1471 74.194 84.2024 73.9869 84.2028 73.776L84.2415 42.8081ZM178.551 58.9342C178.551 59.1499 178.436 59.3495 178.249 59.4561L171.384 63.4131C171.292 63.4658 171.189 63.4935 171.083 63.4935C170.977 63.4935 170.873 63.4658 170.781 63.4131L163.916 59.4561C163.727 59.349 163.614 59.1494 163.614 58.9342V51.0089C163.614 50.7928 163.727 50.5937 163.911 50.4852L170.772 46.5216C170.961 46.4131 171.192 46.4131 171.381 46.5216L178.246 50.4852C178.435 50.5937 178.548 50.7928 178.548 51.0089L178.551 58.9342ZM180.405 0.234313C180.221 0.131986 180.014 0.0793467 179.803 0.0815807C179.593 0.0838147 179.386 0.140845 179.205 0.247053C178.837 0.464107 178.609 0.860467 178.609 1.28986V31.9606C178.609 32.1088 178.57 32.2546 178.496 32.3831C178.422 32.5116 178.316 32.6183 178.187 32.6924C178.059 32.7666 177.913 32.8056 177.765 32.8055C177.617 32.8054 177.471 32.7662 177.343 32.6919L172.336 29.8084C171.97 29.5965 171.554 29.485 171.13 29.485C170.707 29.485 170.291 29.5965 169.924 29.8084L149.932 41.3467C149.565 41.5577 149.26 41.8615 149.048 42.2276C148.836 42.5937 148.724 43.0092 148.724 43.4323V66.5156C148.724 67.3791 149.185 68.1718 149.932 68.6059L169.924 80.1522C170.671 80.5816 171.59 80.5816 172.339 80.1522L192.331 68.6012C193.077 68.1671 193.539 67.3744 193.539 66.5109V8.98207C193.538 8.55193 193.423 8.12975 193.205 7.75902C192.987 7.38829 192.674 7.0824 192.298 6.87287L180.405 0.234313ZM246.981 50.8004C247.346 50.588 247.649 50.2835 247.859 49.9173C248.07 49.5512 248.181 49.1362 248.181 48.7138V43.1195C248.181 42.2588 247.723 41.4647 246.979 41.0315L227.114 29.4993C226.746 29.2861 226.328 29.1738 225.903 29.1738C225.478 29.1738 225.061 29.2861 224.693 29.4993L204.705 41.0362C203.955 41.4704 203.497 42.2631 203.497 43.1266V66.2004C203.497 67.0686 203.964 67.8708 204.715 68.3001L224.575 79.62C225.306 80.0399 226.203 80.0447 226.944 79.6341L238.957 72.9574C239.335 72.745 239.575 72.344 239.575 71.9099C239.575 71.4757 239.344 71.0699 238.967 70.8576L218.856 59.316C218.479 59.1036 218.247 58.7026 218.247 58.2732V51.0349C218.247 50.6027 218.474 50.2044 218.851 49.9893L225.108 46.3796C225.481 46.1625 225.939 46.1625 226.312 46.3796L232.573 49.9893C232.946 50.2016 233.177 50.6027 233.177 51.0321V56.7227C233.177 57.1521 233.408 57.5531 233.781 57.7702C234.154 57.9825 234.616 57.9825 234.989 57.7655L246.981 50.8004Z" fill="#EEEEEE"/>
<path fill-rule="evenodd" clip-rule="evenodd" d="M225.613 49.7203C225.683 49.6792 225.763 49.6576 225.844 49.6576C225.925 49.6576 226.005 49.6792 226.075 49.7203L229.911 51.9333C230.055 52.0163 230.143 52.1692 230.143 52.3344V56.7651C230.143 56.9303 230.055 57.0831 229.911 57.1662L226.075 59.3792C226.005 59.4202 225.925 59.4419 225.844 59.4419C225.763 59.4419 225.683 59.4202 225.613 59.3792L221.779 57.1662C221.708 57.1262 221.648 57.068 221.607 56.9975C221.565 56.9271 221.543 56.8469 221.543 56.7651V52.3344C221.543 52.1692 221.628 52.0163 221.774 51.9333L225.613 49.7203Z" fill="#689F63"/>
<mask id="mask0_2268_9616" style="mask-type:luminance" maskUnits="userSpaceOnUse" x="94" y="29" width="45" height="52">
<path d="M115.294 29.611L95.4147 41.0851C95.0495 41.2956 94.7462 41.5986 94.5353 41.9636C94.3244 42.3285 94.2134 42.7426 94.2134 43.1641V66.1285C94.2134 66.9858 94.6701 67.7781 95.4147 68.2075L115.295 79.6906C115.661 79.9009 116.075 80.0116 116.496 80.0116C116.918 80.0116 117.332 79.9009 117.697 79.6906L137.575 68.2075C137.939 67.9962 138.241 67.693 138.452 67.3282C138.662 66.9633 138.773 66.5496 138.773 66.1285V43.1641C138.773 42.3072 138.315 41.5145 137.57 41.0851L117.695 29.611C117.329 29.4008 116.914 29.2903 116.492 29.2903C116.07 29.2903 115.655 29.4008 115.289 29.611" fill="white"/>
</mask>
<g mask="url(#mask0_2268_9616)">
<path d="M158.864 39.1361L102.847 11.6787L74.1255 70.2711L130.141 97.7299L158.864 39.1361Z" fill="url(#paint0_linear_2268_9616)"/>
</g>
<mask id="mask1_2268_9616" style="mask-type:luminance" maskUnits="userSpaceOnUse" x="94" y="29" width="45" height="52">
<path d="M94.7134 67.5858C94.9035 67.8325 95.1414 68.0463 95.4212 68.2067L112.474 78.0567L115.315 79.6894C115.739 79.9347 116.223 80.0385 116.699 80.0032C116.858 79.9904 117.016 79.9607 117.171 79.9168L138.137 41.5265C137.977 41.3519 137.789 41.2057 137.579 41.083L124.562 33.5663L117.681 29.6074C117.486 29.4965 117.277 29.4124 117.059 29.3573L94.7134 67.5858Z" fill="white"/>
</mask>
<g mask="url(#mask1_2268_9616)">
<path d="M70.4973 47.2573L110.051 100.791L162.361 62.143L122.805 8.61081L70.4973 47.2573Z" fill="url(#paint1_linear_2268_9616)"/>
</g>
<mask id="mask2_2268_9616" style="mask-type:luminance" maskUnits="userSpaceOnUse" x="95" y="29" width="44" height="51">
<path d="M116.245 29.3038C115.907 29.3379 115.58 29.4428 115.285 29.6114L95.4619 41.0526L116.837 79.9855C117.134 79.943 117.427 79.8439 117.691 79.691L137.57 68.2079C137.871 68.0342 138.13 67.7977 138.33 67.5146C138.53 67.2316 138.667 66.9086 138.731 66.5677L116.941 29.343C116.781 29.3111 116.618 29.2949 116.455 29.2948C116.389 29.2948 116.323 29.2981 116.257 29.3043" fill="white"/>
</mask>
<g mask="url(#mask2_2268_9616)">
<path d="M95.4619 29.2948V79.9864H138.723V29.2948H95.4619Z" fill="url(#paint2_linear_2268_9616)"/>
</g>
</g>
<defs>
<linearGradient id="paint0_linear_2268_9616" x1="130.839" y1="25.3642" x2="102.119" y2="83.9527" gradientUnits="userSpaceOnUse">
<stop offset="0.3" stop-color="#3E863D"/>
<stop offset="0.5" stop-color="#55934F"/>
<stop offset="0.8" stop-color="#5AAD45"/>
</linearGradient>
<linearGradient id="paint1_linear_2268_9616" x1="90.5108" y1="74.331" x2="142.823" y2="35.6786" gradientUnits="userSpaceOnUse">
<stop offset="0.57" stop-color="#3E863D"/>
<stop offset="0.72" stop-color="#619857"/>
<stop offset="1" stop-color="#76AC64"/>
</linearGradient>
<linearGradient id="paint2_linear_2268_9616" x1="95.4765" y1="54.642" x2="138.731" y2="54.642" gradientUnits="userSpaceOnUse">
<stop offset="0.16" stop-color="#6BBF47"/>
<stop offset="0.38" stop-color="#79B461"/>
<stop offset="0.47" stop-color="#75AC64"/>
<stop offset="0.7" stop-color="#659E5A"/>
<stop offset="0.9" stop-color="#3E863D"/>
</linearGradient>
<clipPath id="clip0_2268_9616">
<rect width="287.64" height="128" fill="white"/>
</clipPath>
</defs>
</svg>
