<svg width="302" height="103" viewBox="0 0 302 103" fill="none" xmlns="http://www.w3.org/2000/svg">
<g clip-path="url(#clip0_2268_9572)">
<path d="M301.844 59.9298L284.708 59.7845C284.675 59.7845 284.643 59.7779 284.612 59.7651C284.582 59.7523 284.555 59.7336 284.532 59.71C284.508 59.6864 284.49 59.6583 284.478 59.6275C284.465 59.5966 284.459 59.5636 284.459 59.5302V32.5446C284.459 32.4758 284.431 32.4098 284.383 32.3611C284.334 32.3124 284.268 32.2851 284.199 32.2851H281.734C281.665 32.2851 281.599 32.3124 281.551 32.3611C281.502 32.4098 281.475 32.4758 281.475 32.5446V61.8655C281.475 61.9381 281.489 62.0101 281.515 62.0772C281.542 62.1442 281.582 62.2051 281.632 62.2563C281.681 62.3074 281.74 62.3478 281.805 62.3752C281.87 62.4025 281.939 62.4162 282.009 62.4155L301.844 62.2858" stroke="#98B0C9" stroke-width="1.03791"/>
<path d="M0.847656 31.3469C2.08277 38.2282 11.8599 86.906 27.2105 73.2627C27.2602 73.2193 27.3258 73.1982 27.393 73.204C27.4601 73.2099 27.5233 73.2422 27.5686 73.2939C28.264 74.1311 29.1445 74.7175 30.2101 75.0531C35 76.5529 40.3867 77.6479 45.0885 75.2088C45.1116 75.1961 45.1377 75.1896 45.1641 75.1901C45.1906 75.1907 45.2164 75.1981 45.239 75.2118C45.2616 75.2255 45.2803 75.2449 45.293 75.268C45.3057 75.2912 45.3122 75.3173 45.3116 75.3438C45.2978 79.6857 45.5313 84.0103 46.0122 88.3176C46.3893 91.6943 46.9861 94.1437 47.8026 95.666C50.086 99.937 54.6372 101.847 59.4064 101.52C67.6007 100.954 74.1551 97.7366 75.8365 89.2465C76.563 85.5758 77.2792 80.1112 77.9849 72.8528C77.9881 72.8188 77.9981 72.7859 78.0143 72.7559C78.0305 72.7258 78.0526 72.6994 78.0792 72.6781C78.1059 72.6568 78.1365 72.6411 78.1693 72.6318C78.2022 72.6226 78.2365 72.6201 78.2704 72.6244C83.3509 73.2212 89.9676 72.6089 94.0414 69.3654C96.0341 67.7826 99.2932 63.5376 98.5511 60.839C97.8816 58.3947 95.785 58.0989 93.4498 58.5245C90.9484 58.9777 88.3519 59.187 85.6603 59.1524C85.0306 59.1455 84.8784 58.8722 85.2036 58.3324C91.0678 48.6332 104.099 19.7431 94.7835 9.7013C85.5513 -0.25223 71.5395 -2.00111 58.9653 2.16609C58.8024 2.22041 58.6267 2.22938 58.4567 2.19204C51.6792 0.671507 44.8497 0.837573 38.7105 4.1952C38.6384 4.23457 38.5587 4.25857 38.4766 4.26571C38.3944 4.27285 38.3115 4.26298 38.2331 4.23672C23.391 -0.781566 4.43363 -0.610309 0.847656 18.6325" stroke="#808080" stroke-width="1.03791"/>
<path d="M224.877 34.969C222.77 38.6069 222.962 44.9952 227.747 46.469C230.362 47.2786 234.412 48.2594 239.895 49.4115C243.14 50.0965 244.578 52.1187 244.208 55.4781C243.642 60.6469 237.264 61.0568 233.196 60.5638C228.56 60.0068 226.088 57.4259 225.78 52.821C225.774 52.7412 225.747 52.6663 225.705 52.6114C225.663 52.5566 225.608 52.5258 225.551 52.5252H222.957C222.917 52.5256 222.878 52.5362 222.842 52.5563C222.806 52.5765 222.774 52.6057 222.747 52.6425C222.72 52.6792 222.699 52.7226 222.685 52.7702C222.671 52.8178 222.665 52.8686 222.666 52.9196C222.962 60.7973 228.146 62.7538 234.809 63.0289C241.758 63.3143 248.297 61.1606 247.223 52.6757C246.787 49.2506 244.343 47.4758 241.13 46.7804C237.567 46.0158 234.019 45.2097 230.487 44.3621C225.053 43.0595 225.422 35.7526 230.736 34.3774C235.723 33.0852 243.232 33.7339 243.486 40.5115C243.489 40.5741 243.525 40.6333 243.586 40.6767C243.646 40.7202 243.728 40.7447 243.813 40.745H246.211C246.295 40.7445 246.375 40.7189 246.435 40.6735C246.495 40.6281 246.53 40.5663 246.533 40.5011C246.87 30.397 233.367 30.3192 227.036 33.0489C226.101 33.4502 225.382 34.0903 224.877 34.969ZM274.784 59.09C278.9 55.12 279.99 49.671 279.154 44.0922C277.706 34.3722 268.915 29.9611 259.807 31.8709C252.117 33.4796 248.359 39.2971 248.058 46.7233C247.498 60.5638 260.747 66.4955 272.283 61.3267C272.352 61.2969 272.429 61.2883 272.507 61.3021C272.585 61.3158 272.66 61.3513 272.724 61.4045L276.891 64.8867C276.963 64.9457 277.051 64.979 277.138 64.9799C277.224 64.9809 277.303 64.9494 277.358 64.8919L278.931 63.2157C278.954 63.1915 278.972 63.1629 278.984 63.1317C278.996 63.1005 279.001 63.0673 279 63.0342C278.998 63.0011 278.99 62.9688 278.976 62.9393C278.961 62.9098 278.941 62.8838 278.915 62.8628L274.784 59.4688C274.758 59.4469 274.736 59.4191 274.721 59.3873C274.706 59.3556 274.699 59.3206 274.699 59.2847C274.699 59.2489 274.706 59.2129 274.721 59.1793C274.736 59.1458 274.758 59.1153 274.784 59.09Z" stroke="#98B0C9" stroke-width="1.03791"/>
<path d="M106.603 60.8284C107.527 61.0221 108.306 61.0377 108.939 60.8751C109.009 60.8576 109.071 60.818 109.115 60.7624C109.159 60.7069 109.183 60.6387 109.183 60.5689V50.579C109.183 50.5459 109.19 50.5131 109.203 50.4825C109.217 50.4519 109.238 50.4242 109.263 50.401C109.289 50.3778 109.319 50.3596 109.353 50.3474C109.386 50.3352 109.422 50.3292 109.458 50.3299C114.256 50.3957 117.621 50.3438 119.551 50.1742C128.348 49.401 127.974 35.9549 119.297 35.9238C115.349 35.9065 111.21 35.9099 106.878 35.9342" stroke="#8C8C8C" stroke-width="1.03791"/>
<path d="M106.871 35.9347C106.816 35.8551 106.685 35.8828 106.477 36.0177C106.411 36.0608 106.357 36.121 106.318 36.1932C106.279 36.2655 106.257 36.3476 106.254 36.4329C105.984 44.5666 106.098 52.6986 106.596 60.8289" stroke="#A9A9A9" stroke-width="1.03791"/>
<path d="M106.878 35.933C107.031 44.2398 106.939 52.5378 106.603 60.8273" stroke="#363636" stroke-width="1.03791"/>
<path d="M166.104 46.4647C166.135 50.2911 166.15 54.1175 166.15 57.9439C166.15 60.9746 169.295 61.4157 171.568 61.0006C171.68 60.9806 171.783 60.9398 171.857 60.8855C171.931 60.8313 171.972 60.7672 171.973 60.7048L171.978 59.397C171.978 59.3662 171.965 59.3378 171.94 59.3138C171.915 59.2898 171.879 59.2709 171.833 59.2584C171.788 59.246 171.735 59.2403 171.678 59.2418C171.622 59.2434 171.563 59.2521 171.506 59.2673C168.657 60.0301 168.2 58.2501 168.205 55.9148C168.209 52.7665 168.214 49.6113 168.221 46.4491C168.221 46.3748 168.247 46.3035 168.294 46.251C168.341 46.1984 168.404 46.1689 168.47 46.1689H171.584C171.687 46.1689 171.786 46.1415 171.859 46.0929C171.932 46.0442 171.973 45.9782 171.973 45.9094L171.978 44.8715C171.978 44.8027 171.937 44.7367 171.863 44.688C171.789 44.6394 171.688 44.612 171.584 44.612H168.47C168.401 44.612 168.335 44.571 168.287 44.498C168.238 44.425 168.211 44.326 168.211 44.2228V39.4225C168.211 39.3573 168.183 39.2947 168.135 39.2482C168.086 39.2016 168.02 39.1748 167.951 39.1734L166.56 39.1371C166.505 39.1357 166.45 39.1454 166.398 39.1656C166.347 39.1859 166.3 39.2162 166.26 39.2549C166.22 39.2936 166.189 39.3399 166.167 39.3909C166.146 39.442 166.135 39.4968 166.135 39.5522V44.2228C166.135 44.326 166.108 44.425 166.059 44.498C166.01 44.571 165.944 44.612 165.875 44.612H163.8C163.696 44.6134 163.598 44.6408 163.525 44.6884C163.452 44.7359 163.411 44.7998 163.41 44.8663L163.405 45.9146C163.405 45.9807 163.447 46.044 163.521 46.0907C163.595 46.1375 163.695 46.1637 163.8 46.1637L165.875 46.1689C165.936 46.1689 165.994 46.2 166.037 46.2555C166.08 46.311 166.104 46.3862 166.104 46.4647Z" stroke="#8A898A" stroke-width="1.03791"/>
<path d="M144.14 51.7516C144.126 50.7212 143.909 49.7038 143.501 48.7573C143.094 47.8109 142.504 46.954 141.765 46.2356C141.026 45.5172 140.153 44.9513 139.196 44.5703C138.238 44.1893 137.215 44.0006 136.185 44.015L134.442 44.0394C132.361 44.0685 130.377 44.923 128.926 46.415C127.475 47.907 126.676 49.9141 126.706 51.995L126.729 53.6971C126.759 55.778 127.613 57.762 129.105 59.2128C130.597 60.6636 132.604 61.4623 134.685 61.4332L136.428 61.4088C138.509 61.3797 140.493 60.5251 141.944 59.0332C143.395 57.5412 144.193 55.5341 144.164 53.4532L144.14 51.7516ZM187.382 57.7839C187.507 59.5587 187.465 62.0704 186.619 63.6896C184.808 67.1873 175.976 67.6336 175.208 62.6984C175.193 62.6012 175.159 62.5115 175.113 62.4478C175.067 62.3841 175.011 62.3512 174.958 62.3559L173.272 62.5219C173.231 62.5257 173.191 62.5361 173.154 62.5525C173.118 62.5688 173.085 62.5908 173.059 62.617C173.033 62.6433 173.013 62.6733 173.002 62.7051C172.99 62.7369 172.987 62.77 172.992 62.8022C173.445 65.4869 175.14 67.0766 178.077 67.5714C183.417 68.4692 189.422 67.3378 189.463 60.6952C189.498 55.433 189.503 50.1691 189.479 44.9035C189.479 44.8264 189.453 44.7525 189.406 44.698C189.359 44.6435 189.296 44.6129 189.23 44.6129H187.673C187.638 44.6129 187.604 44.6195 187.572 44.6324C187.54 44.6452 187.512 44.664 187.487 44.6877C187.463 44.7114 187.444 44.7395 187.432 44.7703C187.419 44.8011 187.413 44.834 187.413 44.8671L187.419 46.8236C187.422 47.3668 187.256 47.3996 186.92 46.9222C185.301 44.6232 183.085 43.9174 180.236 44.042C175.102 44.2669 172.438 46.8755 172.244 51.8678C172.094 55.7496 173.339 58.7647 177.128 60.0465C180.433 61.1675 184.761 60.7367 187.159 57.7112C187.294 57.5452 187.368 57.5694 187.382 57.7839Z" stroke="#8C8C8C" stroke-width="1.03791"/>
<path d="M146.657 47.7917C144.519 56.1572 160.503 50.8898 159.475 57.138C158.863 60.8745 148.795 61.0976 148.282 56.1313C148.27 56.0229 148.233 55.922 148.176 55.8501C148.12 55.7783 148.05 55.7413 147.981 55.7472L146.169 55.9133C146.141 55.9154 146.114 55.9264 146.09 55.9456C146.066 55.9647 146.046 55.9916 146.03 56.0246C146.014 56.0577 146.003 56.0961 145.997 56.1376C145.992 56.1792 145.992 56.2229 145.998 56.2662C146.368 58.9924 148.055 60.6098 151.058 61.1184C154.436 61.6841 160.752 61.7567 161.629 57.4598C162.179 54.7768 160.638 52.7217 157.965 52.2599C155.633 51.8585 153.303 51.452 150.975 51.0403C147.301 50.3916 148.245 46.2608 151.494 45.7781C154.395 45.3474 158.37 45.3059 158.93 49.0631C158.944 49.1591 158.986 49.2471 159.048 49.3109C159.11 49.3748 159.188 49.4102 159.268 49.4108H160.825C160.859 49.4112 160.894 49.4034 160.926 49.388C160.958 49.3725 160.986 49.3498 161.01 49.3211C161.034 49.2924 161.052 49.2584 161.064 49.2212C161.076 49.1839 161.081 49.1443 161.079 49.1046C160.845 43.7853 155.049 43.775 151.099 44.2368C148.795 44.5119 147.254 45.4616 146.657 47.7917Z" stroke="#808080" stroke-width="1.03791"/>
<path d="M194.727 46.9516L194.831 44.8706C194.833 44.8372 194.826 44.8037 194.813 44.7724C194.799 44.741 194.778 44.7124 194.751 44.6882C194.725 44.664 194.693 44.6446 194.657 44.6314C194.622 44.6182 194.584 44.6113 194.546 44.6112H192.989C192.92 44.6112 192.854 44.6385 192.805 44.6872C192.757 44.7358 192.729 44.8018 192.729 44.8706V60.569C192.729 60.6378 192.757 60.7038 192.805 60.7524C192.854 60.8011 192.92 60.8285 192.989 60.8285L194.551 60.8336C194.59 60.8332 194.628 60.8229 194.663 60.8033C194.698 60.7837 194.73 60.7551 194.757 60.7194C194.783 60.6836 194.804 60.6413 194.818 60.595C194.831 60.5487 194.838 60.4993 194.836 60.4496C194.66 55.7116 193.129 44.6994 201.567 46.1628C201.614 46.1714 201.662 46.1712 201.708 46.1625C201.754 46.1537 201.797 46.1366 201.833 46.1122C201.869 46.0879 201.898 46.057 201.918 46.0218C201.937 45.9865 201.947 45.9479 201.946 45.9085L201.925 44.2531C201.926 44.2312 201.915 44.2094 201.893 44.1887C201.87 44.168 201.837 44.1489 201.795 44.1325C201.753 44.1161 201.703 44.1028 201.648 44.0932C201.593 44.0836 201.534 44.078 201.474 44.0766C198.604 44.0092 196.165 44.2219 195.096 47.1021C195.083 47.1324 195.065 47.1585 195.041 47.1769C195.018 47.1954 194.992 47.2055 194.966 47.2059L194.878 47.2111C194.857 47.2118 194.837 47.2056 194.818 47.1928C194.799 47.1799 194.782 47.1607 194.768 47.1364C194.754 47.1121 194.743 47.0832 194.736 47.0514C194.729 47.0196 194.726 46.9856 194.727 46.9516Z" stroke="#8C8C8C" stroke-width="1.03791"/>
<path d="M219.446 52.9116C220.043 40.1609 199.549 41.3856 202.32 54.6085C203.696 61.1525 210.208 63.0415 215.798 60.2703C217.41 59.4746 218.517 58.0267 219.119 55.9267C219.129 55.893 219.132 55.8575 219.128 55.8229C219.124 55.7884 219.113 55.7558 219.095 55.7277C219.078 55.6996 219.056 55.6766 219.029 55.6607C219.003 55.6448 218.973 55.6364 218.942 55.6361H217.256C217.17 55.636 217.085 55.6663 217.012 55.7229C216.939 55.7795 216.881 55.8597 216.846 55.9526C214.438 62.3461 204.407 60.4935 204.36 53.472C204.36 53.3922 204.393 53.3156 204.451 53.2592C204.509 53.2027 204.589 53.171 204.671 53.171H219.202C219.265 53.1708 219.325 53.1436 219.371 53.0953C219.416 53.0469 219.443 52.9811 219.446 52.9116Z" stroke="#8C8C8C" stroke-width="1.03791"/>
<path d="M81.5822 60.3148C87.545 49.972 92.0443 40.4388 94.4367 28.6378C95.4227 23.7545 96.3309 16.1207 92.8487 12.1092C84.4728 2.46181 70.6427 1.43428 59.1011 5.02544C58.9378 5.07644 58.7642 5.0836 58.5978 5.0462C53.5328 3.8526 48.5266 3.95813 43.5792 5.36276C42.2507 5.7416 41.026 6.77431 39.739 7.43857C39.6668 7.4748 39.5879 7.49621 39.5068 7.50156C39.4257 7.5069 39.3441 7.49607 39.2667 7.46971C31.8976 4.94241 24.2223 3.63983 16.4795 5.27973C8.13988 7.04417 4.84453 12.6125 3.59904 20.6563C3.1043 23.8738 3.03338 26.8976 3.38627 29.7276C4.14394 35.7579 12.1929 78.7221 25.063 72.3649C26.1389 71.8355 27.848 70.2181 30.1902 67.5127C32.0239 65.3953 33.9007 63.3039 35.8209 61.2385C35.8889 61.1661 35.9697 61.1125 36.0504 61.0862C36.1312 61.0599 36.2074 61.0624 36.2672 61.0932C37.8206 61.8889 39.4674 62.356 41.2076 62.4944C41.2352 62.4957 41.2611 62.5055 41.2828 62.5226C41.3044 62.5398 41.3211 62.5637 41.331 62.5921C41.341 62.6204 41.344 62.6522 41.3396 62.6842C41.3353 62.7163 41.3237 62.7474 41.3062 62.7746C38.753 66.8951 35.2241 66.0233 31.8664 67.5749C28.4725 69.1422 30.3459 72.2248 32.8628 73.2056C38.1804 75.2779 43.1191 74.6552 47.679 71.3373C47.8174 71.237 47.8865 71.2733 47.8865 71.4463C47.8796 76.3349 48.0422 81.2182 48.3744 86.0964C49.049 96.0136 54.2385 101.001 64.5605 98.0427C71.2395 96.1278 72.9624 92.1837 74.0781 85.4114C74.8946 80.4432 75.545 75.4596 76.0294 70.4603C76.0363 70.3927 76.057 70.3272 76.0901 70.2679C76.1232 70.2086 76.1682 70.1566 76.2221 70.1153C76.2761 70.074 76.3379 70.0442 76.4038 70.0276C76.4698 70.0111 76.5384 70.0082 76.6054 70.0192C80.9508 70.6869 85.1578 70.2199 89.2264 68.618C91.1828 67.8448 96.0662 64.949 95.7133 62.401C95.4175 60.2888 93.6116 60.2317 91.7537 60.5535C88.5673 61.1036 84.7945 61.7782 81.6912 60.6313C81.6618 60.6201 81.6353 60.6026 81.6134 60.5799C81.5915 60.5572 81.5749 60.5299 81.5645 60.4998C81.5542 60.4697 81.5504 60.4376 81.5534 60.4057C81.5565 60.3738 81.5663 60.3427 81.5822 60.3148Z" stroke="#808080" stroke-width="1.03791"/>
<path d="M88.3228 12.1453C81.348 6.24996 72.7905 4.87473 64.1862 6.74296C64.0167 6.78102 64.0081 6.83984 64.1603 6.91941C72.4082 11.2163 78.0717 17.7292 81.1508 26.458C81.7372 28.1135 81.4622 31.1182 81.1871 32.8775C80.6059 36.6036 80.5177 39.5149 80.9951 43.6509C81.5245 48.2229 81.6386 52.5095 79.3604 56.6248C79.0802 57.1334 79.2359 58.2232 79.9676 57.0555C86.5739 46.4325 92.2409 32.7322 92.2928 20.1423C92.3083 16.3644 91.0628 14.4598 88.3228 12.1453Z" stroke="#98B0C9" stroke-width="1.03791"/>
<path d="M77.146 59.2908C76.1981 58.0315 75.3505 56.7133 74.6032 55.3364C71.7022 49.9756 68.6248 44.729 66.9901 38.8025C64.6912 30.4526 69.3929 25.6989 77.7584 26.8043C77.8229 26.8125 77.8884 26.8038 77.9484 26.7789C78.0085 26.7541 78.061 26.714 78.1008 26.6626C78.1406 26.6113 78.1664 26.5504 78.1755 26.4861C78.1846 26.4217 78.1768 26.3561 78.1528 26.2957C73.3162 14.2249 62.6569 6.25893 49.2886 7.23976C37.472 8.10641 32.7755 19.2276 31.9089 29.4354C31.906 29.4611 31.9101 29.4869 31.921 29.5103C31.9319 29.5338 31.949 29.5539 31.9706 29.5687C31.9923 29.5835 32.0177 29.5924 32.0442 29.5945C32.0707 29.5966 32.0975 29.5918 32.1216 29.5807C46.6264 23.1613 49.7712 31.0909 49.5118 44.0958C49.408 49.4151 46.4032 54.5268 44.7322 59.8098C44.7233 59.8388 44.7211 59.8695 44.7257 59.8994C44.7303 59.9293 44.7415 59.9577 44.7586 59.9823C44.7757 60.0069 44.7981 60.0271 44.8241 60.0413C44.8502 60.0554 44.8791 60.0632 44.9086 60.064C49.766 60.2872 51.0582 63.8835 50.8922 68.0559C50.6362 74.5359 50.8005 81.0004 51.3852 87.4492C52.1948 96.4219 59.2473 97.8906 66.3726 94.2942C69.5278 92.6958 70.6384 89.4005 71.1521 86.0948C72.1831 79.4902 72.9996 72.8614 73.6016 66.2085C73.887 63.0947 74.572 61.1175 77.5353 60.1159C77.5702 60.1043 77.6029 60.0865 77.631 60.0639C77.6592 60.0412 77.6824 60.0141 77.699 59.9843C77.7156 59.9545 77.7253 59.9226 77.7275 59.8908C77.7297 59.8589 77.7243 59.8278 77.7117 59.7994C77.6737 59.7094 77.6166 59.6385 77.5405 59.5866C77.3087 59.4309 77.1772 59.3323 77.146 59.2908Z" stroke="#98B0C9" stroke-width="1.03791"/>
<path d="M33.3709 59.1695C29.5964 55.222 28.0343 50.669 28.6848 45.5106C29.24 41.0684 29.0532 37.4253 29.0013 32.0334C28.9339 24.109 31.43 16.1326 36.7337 9.89481C36.7521 9.87288 36.7649 9.84679 36.771 9.81881C36.777 9.79084 36.7762 9.7618 36.7685 9.73422C36.7609 9.70663 36.7466 9.68132 36.727 9.66048C36.7074 9.63964 36.683 9.62388 36.6559 9.61458C24.2685 5.43181 7.71903 5.26056 6.23482 22.5936C5.68992 28.9197 6.82124 34.104 8.43 41.141C9.18248 44.4312 17.4598 77.5768 25.4154 68.3913C28.0413 65.3606 30.6931 62.3714 33.3709 59.4238C33.4036 59.3886 33.4218 59.3425 33.4218 59.2952C33.4218 59.2478 33.4036 59.2028 33.3709 59.1695ZM78.4213 29.8019C73.7766 29.2155 68.2809 29.5113 69.3292 36.0916C70.3152 42.3139 73.813 48.0846 77.1654 54.2135C77.2484 54.3657 77.3228 54.3588 77.3886 54.1927C79.3243 49.3716 77.9957 44.727 77.8193 39.771C77.7051 36.6469 78.3434 33.3308 78.6808 30.1288C78.6895 30.0511 78.6671 29.973 78.6185 29.9118C78.5699 29.8505 78.499 29.811 78.4213 29.8019Z" stroke="#98B0C9" stroke-width="1.03791"/>
<path d="M45.5488 33.5491C44.0801 27.2957 35.3358 30.918 32.0612 32.9938C31.9434 33.0689 31.8481 33.1745 31.7851 33.2996C31.7221 33.4247 31.6938 33.5646 31.7031 33.7048C31.9556 37.6107 31.9245 41.4251 31.6097 45.1477C31.3986 47.6663 31.4056 49.474 31.6304 50.5707C32.6683 55.6461 36.2284 58.7287 41.3556 59.5435C41.4567 59.5592 41.5601 59.5394 41.6481 59.4873C41.7362 59.4352 41.8034 59.3542 41.8383 59.258C42.8312 56.5283 43.8345 53.918 44.8482 51.427C47.2613 45.5161 47.0018 39.735 45.5488 33.5491ZM90.9313 63.5394C87.7293 64.3075 82.8148 64.6188 79.6544 62.7817C79.5623 62.7285 79.4724 62.6882 79.3914 62.6639C79.3105 62.6397 79.2408 62.632 79.1874 62.6416C76.9662 63.081 76.0598 64.4597 76.468 66.7777C76.4778 66.8257 76.5205 66.874 76.5898 66.9151C76.659 66.9563 76.7511 66.9882 76.8521 67.006C82.0589 67.9401 86.8298 66.9766 91.1648 64.1154C92.1612 63.4581 92.0833 63.2661 90.9313 63.5394ZM46.3064 68.4072C50.0844 65.0496 45.6889 61.3131 44.0282 63.9442C41.0858 68.5836 38.2211 68.5266 33.5661 69.9485C33.189 70.0627 33.1838 70.1924 33.5506 70.3377C38.4356 72.2647 42.6876 71.6212 46.3064 68.4072ZM75.4457 31.1256C74.2279 30.7623 73.0568 30.8868 71.9324 31.4992C71.0363 31.9905 70.9377 32.4887 71.6366 32.9938C73.3353 34.2185 74.7261 33.9694 75.809 32.2465C75.8717 32.1462 75.9123 32.0334 75.9277 31.9169C75.9431 31.8004 75.9328 31.6833 75.8976 31.5747C75.8625 31.4662 75.8034 31.3692 75.725 31.2913C75.6466 31.2134 75.551 31.1566 75.4457 31.1256Z" stroke="#98B0C9" stroke-width="1.03791"/>
<path d="M43.597 32.235C42.2201 31.4635 40.8414 31.4064 39.461 32.0638C39.3736 32.1055 39.298 32.1685 39.2391 32.2487C39.1801 32.329 39.1391 32.4246 39.1186 32.5297C39.098 32.6347 39.0985 32.7467 39.1199 32.8586C39.1414 32.9705 39.1833 33.0798 39.243 33.1795C40.319 34.9959 41.779 35.3816 43.623 34.3368C44.8581 33.6414 44.8494 32.9408 43.597 32.235ZM276.149 45.2955C276.144 43.8065 275.845 42.333 275.271 40.9592C274.696 39.5855 273.857 38.3384 272.8 37.2891C271.743 36.2398 270.49 35.4089 269.113 34.8439C267.735 34.2788 266.259 33.9907 264.77 33.9958L262.653 34.0031C261.164 34.0083 259.691 34.3067 258.317 34.8813C256.943 35.456 255.696 36.2955 254.647 37.3521C253.597 38.4087 252.766 39.6617 252.201 41.0394C251.636 42.4171 251.348 43.8926 251.353 45.3817L251.367 49.1908C251.372 50.6799 251.67 52.1534 252.245 53.5271C252.82 54.9009 253.659 56.148 254.716 57.1973C255.772 58.2465 257.025 59.0774 258.403 59.6425C259.781 60.2075 261.256 60.4957 262.745 60.4905L264.863 60.4832C266.352 60.4781 267.825 60.1796 269.199 59.605C270.573 59.0304 271.82 58.1908 272.869 57.1342C273.919 56.0776 274.749 54.8247 275.314 53.447C275.88 52.0693 276.168 50.5937 276.162 49.1047L276.149 45.2955Z" stroke="#98B0C9" stroke-width="1.03791"/>
<path d="M121.394 38.7358C120.858 38.2445 120.332 37.9955 119.816 37.9885L109.432 37.8173C109.398 37.8166 109.365 37.824 109.333 37.8391C109.302 37.8541 109.273 37.8766 109.249 37.9051C109.225 37.9336 109.206 37.9676 109.193 38.0051C109.179 38.0426 109.173 38.0828 109.172 38.1235V47.9836C109.172 48.0469 109.201 48.1076 109.253 48.1524C109.305 48.1971 109.375 48.2223 109.448 48.2223C112.971 48.269 121.492 49.4366 122.93 45.5808C123.94 42.8719 123.428 40.5902 121.394 38.7358ZM141.939 51.6806C141.935 50.9064 141.779 50.1406 141.479 49.4269C141.179 48.7132 140.741 48.0656 140.191 47.5211C139.64 46.9765 138.988 46.5457 138.271 46.2532C137.554 45.9608 136.787 45.8123 136.013 45.8164L134.788 45.8227C134.014 45.8267 133.248 45.9833 132.534 46.2833C131.821 46.5833 131.173 47.021 130.629 47.5713C130.084 48.1217 129.653 48.7739 129.361 49.4907C129.068 50.2075 128.92 50.9749 128.924 51.7491L128.934 53.7626C128.938 54.5368 129.095 55.3026 129.395 56.0163C129.695 56.73 130.133 57.3776 130.683 57.9222C131.233 58.4667 131.885 58.8975 132.602 59.19C133.319 59.4825 134.087 59.6309 134.861 59.6268L136.085 59.6206C136.86 59.6165 137.625 59.46 138.339 59.1599C139.053 58.8599 139.7 58.4222 140.245 57.8719C140.789 57.3216 141.22 56.6694 141.513 55.9526C141.805 55.2357 141.954 54.4683 141.95 53.6941L141.939 51.6806ZM187.259 51.6142C187.27 50.0893 186.675 48.6226 185.604 47.5367C184.533 46.4509 183.075 45.8349 181.55 45.8242L180.253 45.8154C178.728 45.8048 177.261 46.4003 176.175 47.471C175.089 48.5418 174.473 50 174.463 51.5249L174.452 53.0506C174.441 54.5756 175.037 56.0422 176.107 57.1281C177.178 58.2139 178.636 58.8299 180.161 58.8406L181.459 58.8494C182.983 58.8601 184.45 58.2645 185.536 57.1938C186.622 56.123 187.238 54.6648 187.249 53.1399L187.259 51.6142ZM217.343 51.1855C215.418 43.8164 205.412 43.5984 204.385 51.3672C204.379 51.4075 204.381 51.4486 204.39 51.4878C204.4 51.5269 204.416 51.5632 204.439 51.5942C204.463 51.6252 204.491 51.6501 204.524 51.6674C204.557 51.6846 204.592 51.6937 204.629 51.6941L216.954 51.7616C217.018 51.7618 217.08 51.7459 217.136 51.715C217.193 51.6842 217.241 51.6392 217.279 51.5836C217.317 51.5279 217.342 51.4631 217.353 51.3941C217.364 51.3251 217.361 51.2538 217.343 51.1855Z" stroke="#8C8C8C" stroke-width="1.03791"/>
<path d="M0.845703 31.3464V18.6321C4.43167 -0.610736 23.3891 -0.781993 38.2311 4.23629C38.3096 4.26256 38.3925 4.27243 38.4746 4.26528C38.5568 4.25814 38.6364 4.23414 38.7086 4.19478C44.8478 0.837146 51.6772 0.67108 58.4548 2.19161C58.6248 2.22895 58.8005 2.21999 58.9633 2.16567C71.5376 -2.00153 85.5493 -0.252657 94.7815 9.70088C104.097 19.7426 91.0658 48.6328 85.2016 58.332C84.8764 58.8717 85.0286 59.1451 85.6583 59.152C88.3499 59.1866 90.9464 58.9773 93.4478 58.524C95.7831 58.0985 97.8797 58.3943 98.5491 60.8386C99.2912 63.5371 96.0322 67.7822 94.0394 69.365C89.9656 72.6084 83.349 73.2208 78.2684 72.624C78.2346 72.6197 78.2002 72.6222 78.1674 72.6314C78.1346 72.6406 78.1039 72.6564 78.0773 72.6777C78.0507 72.699 78.0286 72.7254 78.0124 72.7554C77.9962 72.7854 77.9862 72.8184 77.983 72.8523C77.2772 80.1108 76.561 85.5754 75.8345 89.2461C74.1531 97.7362 67.5987 100.954 59.4044 101.519C54.6353 101.846 50.084 99.9365 47.8006 95.6656C46.9841 94.1433 46.3873 91.6938 46.0102 88.3172C45.5293 84.0098 45.2958 79.6852 45.3097 75.3433C45.3102 75.3169 45.3038 75.2908 45.291 75.2676C45.2783 75.2445 45.2597 75.2251 45.2371 75.2114C45.2144 75.1977 45.1886 75.1902 45.1622 75.1897C45.1358 75.1892 45.1097 75.1956 45.0865 75.2084C40.3848 77.6475 34.998 76.5525 30.2081 75.0527C29.1425 74.7171 28.262 74.1307 27.5666 73.2935C27.5213 73.2418 27.4581 73.2095 27.391 73.2036C27.3239 73.1978 27.2582 73.2189 27.2085 73.2623C11.8579 86.9056 2.08081 38.2278 0.845703 31.3464ZM81.5741 60.3144C87.5369 49.9717 92.0362 40.4385 94.4286 28.6375C95.4146 23.7541 96.3228 16.1203 92.8406 12.1088C84.4647 2.46147 70.6346 1.43394 59.0931 5.0251C58.9298 5.0761 58.7561 5.08326 58.5897 5.04586C53.5247 3.85227 48.5185 3.95779 43.5712 5.36242C42.2426 5.74126 41.0179 6.77398 39.7309 7.43824C39.6587 7.47446 39.5798 7.49587 39.4987 7.50122C39.4176 7.50656 39.336 7.49574 39.2587 7.46937C31.8895 4.94207 24.2142 3.63949 16.4714 5.27939C8.13181 7.04383 4.83646 12.6122 3.59097 20.656C3.09623 23.8735 3.02531 26.8973 3.3782 29.7273C4.13587 35.7575 12.1848 78.7217 25.0549 72.3645C26.1309 71.8352 27.8399 70.2178 30.1822 67.5123C32.0158 65.395 33.8927 63.3036 35.8128 61.2382C35.8809 61.1657 35.9616 61.1122 36.0423 61.0859C36.1231 61.0596 36.1993 61.062 36.2591 61.0928C37.8125 61.8886 39.4593 62.3556 41.1995 62.494C41.2271 62.4954 41.253 62.5051 41.2747 62.5223C41.2963 62.5394 41.313 62.5634 41.323 62.5917C41.333 62.6201 41.3359 62.6519 41.3316 62.6839C41.3272 62.7159 41.3157 62.7471 41.2981 62.7743C38.7449 66.8948 35.216 66.0229 31.8584 67.5746C28.4644 69.1418 30.3378 72.2244 32.8548 73.2052C38.1723 75.2776 43.111 74.6548 47.6709 71.337C47.8093 71.2367 47.8785 71.273 47.8785 71.446C47.8716 76.3345 48.0342 81.2179 48.3663 86.096C49.0409 96.0133 54.2305 101 64.5525 98.0424C71.2314 96.1274 72.9543 92.1834 74.0701 85.411C74.8866 80.4429 75.537 75.4592 76.0213 70.46C76.0282 70.3924 76.0489 70.3269 76.082 70.2675C76.1152 70.2082 76.1601 70.1563 76.2141 70.115C76.268 70.0737 76.3299 70.0438 76.3958 70.0273C76.4617 70.0108 76.5303 70.0079 76.5974 70.0189C80.9427 70.6866 85.1497 70.2195 89.2183 68.6177C91.1748 67.8444 96.0581 64.9487 95.7052 62.4006C95.4094 60.2885 93.6035 60.2314 91.7456 60.5531C88.5593 61.1032 84.7865 61.7779 81.6831 60.631C81.6537 60.6198 81.6272 60.6023 81.6053 60.5796C81.5835 60.5569 81.5668 60.5295 81.5564 60.4995C81.5461 60.4694 81.5423 60.4373 81.5454 60.4054C81.5484 60.3734 81.5582 60.3424 81.5741 60.3144Z" fill="black"/>
<path d="M81.6792 60.6309C84.7826 61.7778 88.5554 61.1031 91.7417 60.5531C93.5996 60.2313 95.4055 60.2884 95.7013 62.4005C96.0542 64.9486 91.1709 67.8444 89.2144 68.6176C85.1458 70.2194 80.9389 70.6865 76.5935 70.0188C76.5264 70.0078 76.4578 70.0107 76.3919 70.0272C76.326 70.0437 76.2641 70.0736 76.2102 70.1149C76.1562 70.1562 76.1113 70.2081 76.0781 70.2675C76.045 70.3268 76.0243 70.3923 76.0174 70.4599C75.5331 75.4591 74.8827 80.4428 74.0662 85.4109C72.9504 92.1833 71.2275 96.1273 64.5486 98.0423C54.2266 101 49.037 96.0132 48.3624 86.096C48.0303 81.2178 47.8677 76.3344 47.8746 71.4459C47.8746 71.2729 47.8054 71.2366 47.667 71.3369C43.1071 74.6548 38.1684 75.2775 32.8509 73.2052C30.334 72.2243 28.4605 69.1417 31.8545 67.5745C35.2121 66.0228 38.741 66.8947 41.2943 62.7742C41.3118 62.747 41.3233 62.7158 41.3277 62.6838C41.332 62.6518 41.3291 62.62 41.3191 62.5917C41.3091 62.5633 41.2925 62.5394 41.2708 62.5222C41.2491 62.5051 41.2232 62.4953 41.1957 62.4939C39.4554 62.3556 37.8086 61.8885 36.2552 61.0928C36.1954 61.0619 36.1192 61.0595 36.0385 61.0858C35.9577 61.1121 35.877 61.1656 35.8089 61.2381C33.8888 63.3035 32.0119 65.3949 30.1783 67.5122C27.8361 70.2177 26.127 71.8351 25.051 72.3644C12.181 78.7216 4.13198 35.7575 3.37431 29.7272C3.02142 26.8972 3.09234 23.8734 3.58708 20.6559C4.83257 12.6121 8.12792 7.04374 16.4675 5.2793C24.2103 3.6394 31.8856 4.94198 39.2548 7.46928C39.3321 7.49565 39.4137 7.50647 39.4948 7.50113C39.5759 7.49578 39.6548 7.47437 39.727 7.43815C41.014 6.77389 42.2388 5.74117 43.5673 5.36233C48.5146 3.9577 53.5208 3.85218 58.5858 5.04577C58.7523 5.08317 58.9259 5.07601 59.0892 5.02501C70.6307 1.43385 84.4608 2.46138 92.8367 12.1087C96.3189 16.1202 95.4107 23.754 94.4247 28.6374C92.0323 40.4384 87.533 49.9716 81.5702 60.3143C81.5543 60.3423 81.5445 60.3733 81.5415 60.4053C81.5384 60.4372 81.5422 60.4693 81.5525 60.4994C81.5629 60.5295 81.5796 60.5568 81.6014 60.5795C81.6233 60.6022 81.6498 60.6197 81.6792 60.6309ZM88.3166 12.1451C81.3419 6.24974 72.7844 4.87451 64.1801 6.74275C64.0106 6.7808 64.0019 6.83962 64.1542 6.91919C72.4021 11.2161 78.0656 17.729 81.1447 26.4578C81.7311 28.1133 81.4561 31.118 81.181 32.8773C80.5998 36.6033 80.5116 39.5147 80.989 43.6507C81.5183 48.2227 81.6325 52.5093 79.3543 56.6246C79.0741 57.1331 79.2298 58.223 79.9615 57.0553C86.5678 46.4323 92.2347 32.7319 92.2866 20.1421C92.3022 16.3641 91.0567 14.4596 88.3166 12.1451ZM77.1332 59.292C76.1852 58.0327 75.3376 56.7145 74.5903 55.3376C71.6894 49.9768 68.612 44.7302 66.9773 38.8037C64.6783 30.4537 69.38 25.7001 77.7456 26.8055C77.81 26.8137 77.8755 26.8049 77.9356 26.7801C77.9956 26.7552 78.0481 26.7152 78.088 26.6638C78.1278 26.6125 78.1535 26.5516 78.1626 26.4873C78.1718 26.4229 78.1639 26.3573 78.14 26.2969C73.3033 14.2261 62.644 6.26012 49.2758 7.24094C37.4592 8.10759 32.7627 19.2288 31.896 29.4366C31.8931 29.4622 31.8973 29.4881 31.9081 29.5115C31.919 29.535 31.9361 29.5551 31.9578 29.5699C31.9794 29.5847 32.0048 29.5936 32.0314 29.5957C32.0579 29.5978 32.0846 29.593 32.1088 29.5819C46.6135 23.1624 49.7584 31.0921 49.4989 44.097C49.3951 49.4163 46.3904 54.528 44.7193 59.811C44.7105 59.84 44.7083 59.8706 44.7128 59.9006C44.7174 59.9305 44.7287 59.9589 44.7458 59.9835C44.7628 60.0081 44.7853 60.0283 44.8113 60.0424C44.8373 60.0566 44.8662 60.0644 44.8958 60.0652C49.7532 60.2884 51.0454 63.8847 50.8793 68.0571C50.6233 74.5371 50.7876 81.0016 51.3723 87.4504C52.1819 96.4231 59.2345 97.8918 66.3597 94.2954C69.515 92.697 70.6255 89.4017 71.1393 86.096C72.1703 79.4914 72.9867 72.8626 73.5887 66.2096C73.8742 63.0959 74.5592 61.1187 77.5224 60.1171C77.5574 60.1055 77.59 60.0877 77.6182 60.065C77.6464 60.0424 77.6695 60.0153 77.6861 59.9855C77.7028 59.9557 77.7125 59.9238 77.7147 59.892C77.7168 59.8601 77.7115 59.829 77.6989 59.8006C77.6608 59.7106 77.6037 59.6397 77.5276 59.5878C77.2958 59.4321 77.1643 59.3335 77.1332 59.292ZM33.3595 59.1675C29.5849 55.2199 28.0229 50.667 28.6733 45.5086C29.2286 41.0663 29.0418 37.4233 28.9899 32.0314C28.9224 24.1069 31.4186 16.1306 36.7223 9.8928C36.7407 9.87086 36.7534 9.84478 36.7595 9.8168C36.7656 9.78882 36.7647 9.75978 36.7571 9.7322C36.7494 9.70461 36.7352 9.67931 36.7155 9.65846C36.6959 9.63762 36.6715 9.62187 36.6444 9.61256C24.257 5.42979 7.70757 5.25854 6.22336 22.5916C5.67846 28.9176 6.80978 34.102 8.41854 41.139C9.17102 44.4292 17.4483 77.5747 25.4039 68.3893C28.0298 65.3586 30.6817 62.3694 33.3595 59.4217C33.3921 59.3866 33.4103 59.3405 33.4103 59.2932C33.4103 59.2458 33.3921 59.2008 33.3595 59.1675ZM78.4098 29.7999C73.7652 29.2134 68.2695 29.5092 69.3177 36.0896C70.3038 42.3118 73.8015 48.0826 77.1539 54.2114C77.237 54.3637 77.3114 54.3568 77.3771 54.1907C79.3128 49.3696 77.9843 44.725 77.8078 39.769C77.6937 36.6449 78.332 33.3287 78.6693 30.1268C78.6781 30.0491 78.6557 29.971 78.6071 29.9098C78.5584 29.8485 78.4875 29.809 78.4098 29.7999ZM45.5445 33.5467C44.0758 27.2933 35.3315 30.9156 32.0569 32.9914C31.9391 33.0665 31.8438 33.1721 31.7808 33.2972C31.7178 33.4223 31.6895 33.5622 31.6988 33.7024C31.9514 37.6084 31.9202 41.4227 31.6054 45.1453C31.3943 47.664 31.4013 49.4717 31.6261 50.5684C32.6641 55.6438 36.2241 58.7263 41.3513 59.5411C41.4524 59.5569 41.5558 59.537 41.6438 59.4849C41.7319 59.4329 41.7991 59.3518 41.834 59.2557C42.8269 56.526 43.8302 53.9156 44.8439 51.4247C47.257 45.5138 46.9976 39.7326 45.5445 33.5467ZM90.927 63.537C87.725 64.3051 82.8105 64.6165 79.6501 62.7794C79.558 62.7261 79.4681 62.6859 79.3872 62.6616C79.3062 62.6373 79.2365 62.6297 79.1831 62.6393C76.9619 63.0786 76.0555 64.4573 76.4637 66.7753C76.4735 66.8234 76.5162 66.8716 76.5855 66.9128C76.6547 66.9539 76.7468 66.9858 76.8478 67.0036C82.0546 67.9378 86.8255 66.9742 91.1605 64.1131C92.1569 63.4557 92.0791 63.2637 90.927 63.537ZM46.3022 68.4048C50.0801 65.0472 45.6846 61.3107 44.0239 63.9418C41.0815 68.5813 38.2169 68.5242 33.5618 69.9461C33.1847 70.0603 33.1795 70.19 33.5463 70.3353C38.4314 72.2624 42.6833 71.6189 46.3022 68.4048Z" fill="white"/>
<path d="M88.3208 12.1448C91.0609 14.4594 92.3064 16.3639 92.2908 20.1419C92.2389 32.7317 86.5719 46.4321 79.9657 57.0551C79.2339 58.2227 79.0782 57.1329 79.3585 56.6244C81.6367 52.5091 81.5225 48.2225 80.9932 43.6505C80.5157 39.5145 80.604 36.6031 81.1852 32.877C81.4602 31.1178 81.7353 28.1131 81.1489 26.4576C78.0697 17.7288 72.4062 11.2159 64.1583 6.91898C64.0061 6.83941 64.0147 6.78059 64.1843 6.74254C72.7885 4.8743 81.3461 6.24953 88.3208 12.1448Z" fill="#316192"/>
<path d="M77.5386 59.5862C77.6147 59.6381 77.6718 59.709 77.7099 59.799C77.7225 59.8274 77.7279 59.8585 77.7257 59.8904C77.7235 59.9222 77.7138 59.954 77.6972 59.9838C77.6806 60.0136 77.6574 60.0407 77.6292 60.0634C77.601 60.0861 77.5684 60.1038 77.5334 60.1155C74.5702 61.1171 73.8852 63.0943 73.5998 66.208C72.9978 72.861 72.1813 79.4898 71.1503 86.0943C70.6365 89.4001 69.526 92.6954 66.3707 94.2938C59.2455 97.8901 52.1929 96.4215 51.3834 87.4488C50.7987 80.9999 50.6343 74.5355 50.8903 68.0555C51.0564 63.8831 49.7642 60.2868 44.9068 60.0636C44.8772 60.0628 44.8483 60.055 44.8223 60.0408C44.7963 60.0266 44.7739 60.0065 44.7568 59.9818C44.7397 59.9572 44.7284 59.9289 44.7239 59.8989C44.7193 59.869 44.7215 59.8383 44.7304 59.8093C46.4014 54.5264 49.4061 49.4147 49.5099 44.0954C49.7694 31.0904 46.6245 23.1608 32.1198 29.5803C32.0956 29.5914 32.0689 29.5962 32.0424 29.5941C32.0158 29.5919 31.9905 29.583 31.9688 29.5683C31.9472 29.5535 31.93 29.5333 31.9192 29.5099C31.9083 29.4865 31.9041 29.4606 31.907 29.435C32.7737 19.2272 37.4702 8.10598 49.2868 7.23933C62.655 6.25851 73.3143 14.2244 78.151 26.2953C78.175 26.3557 78.1828 26.4213 78.1737 26.4857C78.1646 26.55 78.1388 26.6108 78.099 26.6622C78.0592 26.7136 78.0066 26.7536 77.9466 26.7785C77.8865 26.8033 77.821 26.8121 77.7566 26.8039C69.391 25.6985 64.6893 30.4521 66.9883 38.8021C68.623 44.7285 71.7004 49.9752 74.6013 55.3359C75.3486 56.7129 76.1963 58.031 77.1442 59.2904C77.1753 59.3319 77.3068 59.4305 77.5386 59.5862Z" fill="#316192"/>
<path d="M33.3589 59.169C33.3916 59.2024 33.4098 59.2474 33.4098 59.2947C33.4098 59.3421 33.3916 59.3881 33.3589 59.4233C30.6811 62.3709 28.0293 65.3601 25.4034 68.3908C17.4478 77.5763 9.17052 44.4307 8.41803 41.1406C6.80928 34.1035 5.67796 28.9192 6.22286 22.5932C7.70707 5.2601 24.2565 5.43135 36.6439 9.61412C36.671 9.62343 36.6954 9.63918 36.715 9.66002C36.7347 9.68087 36.7489 9.70617 36.7566 9.73376C36.7642 9.76134 36.7651 9.79038 36.759 9.81836C36.7529 9.84634 36.7402 9.87242 36.7218 9.89436C31.4181 16.1322 28.9219 24.1085 28.9894 32.0329C29.0413 37.4248 29.2281 41.0679 28.6728 45.5101C28.0224 50.6685 29.5844 55.2215 33.3589 59.169ZM78.4093 29.8014C78.487 29.8105 78.5579 29.85 78.6066 29.9113C78.6552 29.9726 78.6776 30.0506 78.6688 30.1284C78.3315 33.3303 77.6932 36.6464 77.8073 39.7705C77.9838 44.7265 79.3123 49.3712 77.3766 54.1922C77.3109 54.3583 77.2365 54.3652 77.1535 54.213C73.801 48.0842 70.3033 42.3134 69.3172 36.0911C68.269 29.5108 73.7647 29.215 78.4093 29.8014ZM75.4409 31.1247C74.2231 30.7615 73.052 30.886 71.9276 31.4984C71.0315 31.9897 70.9329 32.4879 71.6318 32.993C73.3305 34.2177 74.7213 33.9686 75.8042 32.2457C75.8669 32.1454 75.9075 32.0326 75.9229 31.9161C75.9383 31.7996 75.928 31.6825 75.8928 31.5739C75.8577 31.4654 75.7986 31.3684 75.7202 31.2905C75.6418 31.2125 75.5462 31.1558 75.4409 31.1247Z" fill="#316192"/>
<path d="M32.0592 32.9908C35.3338 30.915 44.0782 27.2927 45.5468 33.5461C46.9999 39.732 47.2594 45.5132 44.8462 51.4241C43.8325 53.915 42.8292 56.5254 41.8363 59.2551C41.8014 59.3512 41.7342 59.4323 41.6462 59.4843C41.5581 59.5364 41.4547 59.5563 41.3537 59.5405C36.2264 58.7257 32.6664 55.6432 31.6285 50.5678C31.4036 49.4711 31.3967 47.6634 31.6077 45.1447C31.9226 41.4221 31.9537 37.6078 31.7011 33.7018C31.6918 33.5616 31.7201 33.4217 31.7831 33.2966C31.8461 33.1715 31.9415 33.0659 32.0592 32.9908ZM43.5956 32.2332C42.2186 31.4616 40.8399 31.4046 39.4595 32.0619C39.3721 32.1036 39.2966 32.1666 39.2376 32.2469C39.1787 32.3271 39.1376 32.4228 39.1171 32.5278C39.0966 32.6328 39.097 32.7448 39.1185 32.8567C39.1399 32.9686 39.1818 33.0779 39.2415 33.1777C40.3175 34.994 41.7775 35.3797 43.6215 34.3349C44.8566 33.6395 44.848 32.9389 43.5956 32.2332Z" fill="#316192"/>
<path d="M75.4441 31.1202C75.5494 31.1512 75.645 31.208 75.7234 31.2859C75.8018 31.3638 75.8609 31.4608 75.896 31.5693C75.9312 31.6779 75.9415 31.795 75.9261 31.9115C75.9108 32.028 75.8701 32.1408 75.8074 32.2411C74.7245 33.964 73.3337 34.2131 71.635 32.9884C70.9361 32.4833 71.0347 31.9851 71.9308 31.4938C73.0552 30.8814 74.2263 30.7569 75.4441 31.1202Z" fill="white"/>
<path d="M224.875 34.9686C225.38 34.0898 226.099 33.4498 227.034 33.0484C233.365 30.3187 246.868 30.3966 246.531 40.5006C246.528 40.5659 246.493 40.6276 246.433 40.673C246.373 40.7184 246.293 40.744 246.209 40.7445H243.811C243.726 40.7442 243.644 40.7198 243.584 40.6763C243.523 40.6328 243.487 40.5736 243.484 40.511C243.23 33.7335 235.721 33.0848 230.734 34.377C225.42 35.7522 225.051 43.0591 230.485 44.3616C234.017 45.2093 237.565 46.0154 241.128 46.78C244.341 47.4753 246.785 49.2502 247.221 52.6753C248.295 61.1602 241.756 63.3138 234.808 63.0284C228.144 62.7534 222.96 60.7969 222.664 52.9192C222.663 52.8681 222.669 52.8173 222.683 52.7698C222.697 52.7222 222.718 52.6787 222.745 52.642C222.772 52.6053 222.805 52.576 222.841 52.5559C222.877 52.5357 222.915 52.5252 222.955 52.5248H225.549C225.606 52.5253 225.661 52.5561 225.703 52.611C225.746 52.6659 225.772 52.7408 225.778 52.8206C226.086 57.4254 228.558 60.0064 233.194 60.5634C237.262 61.0564 243.64 60.6464 244.206 55.4776C244.576 52.1183 243.138 50.0961 239.893 49.4111C234.41 48.259 230.36 47.2782 227.745 46.4686C222.96 44.9948 222.768 38.6064 224.875 34.9686ZM274.783 59.4684L278.913 62.8623C278.939 62.8833 278.959 62.9093 278.974 62.9388C278.988 62.9683 278.996 63.0006 278.998 63.0337C278.999 63.0668 278.994 63.1 278.982 63.1313C278.97 63.1625 278.952 63.1911 278.929 63.2152L277.357 64.8914C277.301 64.949 277.222 64.9804 277.136 64.9795C277.049 64.9785 276.961 64.9452 276.889 64.8862L272.722 61.4041C272.658 61.3509 272.583 61.3154 272.505 61.3016C272.427 61.2879 272.35 61.2964 272.281 61.3262C260.745 66.495 247.496 60.5634 248.056 46.7229C248.357 39.2966 252.115 33.4792 259.806 31.8704C268.913 29.9607 277.704 34.3718 279.152 44.0918C279.988 49.6705 278.898 55.1195 274.783 59.0895C274.756 59.1148 274.734 59.1453 274.719 59.1789C274.704 59.2125 274.697 59.2484 274.697 59.2843C274.697 59.3201 274.704 59.3551 274.719 59.3869C274.734 59.4186 274.756 59.4464 274.783 59.4684ZM276.146 45.2942C276.141 43.8051 275.842 42.3316 275.268 40.9579C274.693 39.5841 273.853 38.337 272.797 37.2877C271.74 36.2385 270.487 35.4076 269.11 34.8425C267.732 34.2775 266.256 33.9893 264.767 33.9945L262.65 34.0018C261.161 34.0069 259.687 34.3054 258.314 34.88C256.94 35.4546 255.693 36.2942 254.643 37.3508C253.594 38.4074 252.763 39.6603 252.198 41.038C251.633 42.4157 251.345 43.8913 251.35 45.3803L251.364 49.1895C251.369 50.6785 251.667 52.152 252.242 53.5258C252.817 54.8995 253.656 56.1466 254.713 57.1959C255.769 58.2452 257.022 59.0761 258.4 59.6411C259.778 60.2062 261.253 60.4943 262.742 60.4892L264.86 60.4819C266.349 60.4767 267.822 60.1783 269.196 59.6037C270.57 59.029 271.817 58.1895 272.866 57.1329C273.915 56.0763 274.746 54.8233 275.311 53.4456C275.876 52.0679 276.165 50.5924 276.159 49.1033L276.146 45.2942Z" fill="white"/>
<path d="M43.5952 32.2346C44.8476 32.9404 44.8562 33.641 43.6211 34.3364C41.7771 35.3812 40.3171 34.9954 39.2412 33.1791C39.1815 33.0794 39.1395 32.9701 39.1181 32.8582C39.0967 32.7463 39.0962 32.6342 39.1167 32.5292C39.1372 32.4242 39.1783 32.3285 39.2373 32.2483C39.2962 32.1681 39.3718 32.1051 39.4591 32.0634C40.8395 31.406 42.2182 31.4631 43.5952 32.2346Z" fill="white"/>
<path d="M301.832 59.9293V62.2853L281.997 62.4151C281.927 62.4158 281.858 62.402 281.793 62.3747C281.728 62.3474 281.669 62.307 281.62 62.2558C281.57 62.2047 281.53 62.1438 281.504 62.0767C281.477 62.0096 281.463 61.9377 281.463 61.865V32.5441C281.463 32.4753 281.49 32.4093 281.539 32.3606C281.587 32.312 281.653 32.2846 281.722 32.2846H284.187C284.256 32.2846 284.322 32.312 284.371 32.3606C284.419 32.4093 284.447 32.4753 284.447 32.5441V59.5297C284.447 59.5631 284.453 59.5962 284.466 59.627C284.478 59.6579 284.496 59.6859 284.52 59.7095C284.543 59.7331 284.57 59.7519 284.6 59.7646C284.631 59.7774 284.663 59.784 284.696 59.784L301.832 59.9293Z" fill="white"/>
<path d="M106.87 35.9342C107.022 44.2409 106.93 52.539 106.594 60.8284C106.096 52.6982 105.982 44.5662 106.252 36.4324C106.255 36.3472 106.277 36.265 106.316 36.1928C106.355 36.1206 106.409 36.0604 106.475 36.0173C106.683 35.8823 106.814 35.8547 106.87 35.9342Z" fill="#525353"/>
<path d="M106.866 35.9337C111.198 35.9095 115.338 35.906 119.285 35.9233C127.962 35.9545 128.336 49.4006 119.539 50.1738C117.609 50.3433 114.244 50.3952 109.446 50.3295C109.41 50.3288 109.374 50.3347 109.341 50.347C109.307 50.3592 109.277 50.3774 109.251 50.4006C109.226 50.4238 109.205 50.4515 109.192 50.4821C109.178 50.5126 109.171 50.5454 109.171 50.5786V60.5685C109.171 60.6383 109.147 60.7065 109.103 60.762C109.059 60.8175 108.997 60.8572 108.927 60.8746C108.294 61.0372 107.515 61.0217 106.591 60.8279C106.927 52.5385 107.019 44.2404 106.866 35.9337ZM121.392 38.7361C120.856 38.2448 120.33 37.9957 119.814 37.9888L109.43 37.8175C109.396 37.8168 109.363 37.8242 109.331 37.8393C109.3 37.8544 109.271 37.8768 109.247 37.9053C109.223 37.9338 109.204 37.9678 109.191 38.0053C109.178 38.0428 109.171 38.0831 109.171 38.1237V47.9838C109.171 48.0471 109.2 48.1079 109.251 48.1526C109.303 48.1974 109.373 48.2226 109.446 48.2226C112.969 48.2693 121.491 49.4369 122.928 45.5811C123.938 42.8721 123.426 40.5905 121.392 38.7361Z" fill="white"/>
<path d="M165.874 46.1684L163.798 46.1632C163.693 46.1632 163.593 46.137 163.519 46.0903C163.445 46.0436 163.403 45.9802 163.403 45.9141L163.409 44.8659C163.409 44.7993 163.451 44.7354 163.523 44.6879C163.596 44.6404 163.695 44.613 163.798 44.6116H165.874C165.942 44.6116 166.008 44.5706 166.057 44.4976C166.106 44.4246 166.133 44.3256 166.133 44.2224V39.5518C166.133 39.4964 166.144 39.4415 166.166 39.3905C166.187 39.3394 166.219 39.2932 166.258 39.2545C166.298 39.2158 166.345 39.1854 166.397 39.1652C166.448 39.1449 166.503 39.1352 166.559 39.1366L167.949 39.1729C168.019 39.1743 168.085 39.2011 168.133 39.2477C168.182 39.2943 168.209 39.3569 168.209 39.422V44.2224C168.209 44.3256 168.236 44.4246 168.285 44.4976C168.334 44.5706 168.399 44.6116 168.468 44.6116H171.582C171.687 44.6116 171.787 44.6389 171.861 44.6876C171.935 44.7362 171.976 44.8022 171.976 44.871L171.971 45.909C171.971 45.9778 171.93 46.0438 171.857 46.0924C171.784 46.1411 171.685 46.1684 171.582 46.1684H168.468C168.402 46.1684 168.339 46.198 168.292 46.2505C168.245 46.3031 168.219 46.3743 168.219 46.4487C168.212 49.6108 168.207 52.7661 168.204 55.9144C168.198 58.2497 168.655 60.0297 171.504 59.2668C171.561 59.2516 171.62 59.2429 171.677 59.2414C171.733 59.2398 171.786 59.2455 171.831 59.258C171.877 59.2704 171.913 59.2893 171.938 59.3133C171.964 59.3373 171.977 59.3658 171.976 59.3966L171.971 60.7043C171.97 60.7667 171.929 60.8308 171.855 60.8851C171.781 60.9393 171.678 60.9801 171.566 61.0001C169.293 61.4153 166.149 60.9742 166.149 57.9435C166.149 54.1171 166.133 50.2907 166.102 46.4642C166.102 46.3858 166.078 46.3105 166.035 46.2551C165.992 46.1996 165.934 46.1684 165.874 46.1684Z" fill="white"/>
<path d="M144.162 53.4503C144.191 55.5311 143.393 57.5383 141.942 59.0302C140.491 60.5222 138.507 61.3767 136.426 61.4058L134.683 61.4302C133.652 61.4446 132.629 61.2559 131.672 60.8749C130.714 60.4939 129.841 59.9281 129.102 59.2097C128.364 58.4912 127.774 57.6344 127.366 56.6879C126.959 55.7415 126.741 54.724 126.727 53.6937L126.704 51.9915C126.675 49.9107 127.473 47.9037 128.924 46.4119C130.375 44.92 132.359 44.0656 134.44 44.0364L136.183 44.0121C137.214 43.9976 138.237 44.1863 139.194 44.5673C140.152 44.9483 141.025 45.5142 141.764 46.2326C142.502 46.951 143.092 47.8079 143.5 48.7544C143.907 49.7008 144.125 50.7182 144.139 51.7486L144.162 53.4503ZM141.946 51.6806C141.942 50.9064 141.785 50.1405 141.485 49.4268C141.185 48.713 140.748 48.0654 140.197 47.5208C139.647 46.9762 138.995 46.5453 138.278 46.2528C137.561 45.9603 136.794 45.8118 136.019 45.8159L134.795 45.8222C134.02 45.8262 133.255 45.9828 132.541 46.2828C131.827 46.5829 131.18 47.0205 130.635 47.5709C130.091 48.1212 129.66 48.7734 129.367 49.4902C129.075 50.207 128.926 50.9744 128.93 51.7486L128.941 53.7622C128.945 54.5363 129.101 55.3021 129.402 56.0158C129.702 56.7295 130.139 57.3771 130.69 57.9217C131.24 58.4662 131.892 58.897 132.609 59.1895C133.326 59.482 134.093 59.6304 134.867 59.6263L136.092 59.6201C136.866 59.616 137.632 59.4595 138.346 59.1595C139.059 58.8594 139.707 58.4217 140.252 57.8714C140.796 57.3211 141.227 56.6689 141.519 55.9521C141.812 55.2353 141.96 54.4678 141.956 53.6937L141.946 51.6801V51.6806ZM187.38 57.7809C187.366 57.5664 187.292 57.5422 187.157 57.7083C184.76 60.7338 180.431 61.1645 177.126 60.0436C173.337 58.7618 172.092 55.7466 172.242 51.8649C172.436 46.8725 175.1 44.2639 180.234 44.039C183.083 43.9145 185.299 44.6203 186.918 46.9192C187.254 47.3967 187.42 47.3638 187.417 46.8206L187.411 44.8642C187.411 44.8311 187.417 44.7981 187.43 44.7673C187.442 44.7365 187.461 44.7084 187.486 44.6848C187.51 44.6611 187.539 44.6423 187.57 44.6294C187.602 44.6165 187.636 44.6099 187.671 44.6099H189.228C189.26 44.6099 189.293 44.6174 189.323 44.632C189.353 44.6466 189.381 44.668 189.404 44.695C189.427 44.722 189.445 44.754 189.458 44.7893C189.47 44.8246 189.477 44.8623 189.477 44.9005C189.501 50.1662 189.496 55.4301 189.461 60.6923C189.42 67.3349 183.415 68.4662 178.075 67.5684C175.138 67.0737 173.443 65.4839 172.99 62.7992C172.985 62.767 172.988 62.734 173 62.7021C173.011 62.6703 173.031 62.6403 173.057 62.6141C173.084 62.5878 173.116 62.5659 173.152 62.5495C173.189 62.5331 173.229 62.5228 173.27 62.519L174.956 62.3529C175.009 62.3482 175.065 62.3811 175.111 62.4448C175.157 62.5085 175.191 62.5982 175.206 62.6954C175.974 67.6307 184.806 67.1844 186.617 63.6866C187.463 62.0675 187.505 59.5558 187.38 57.7809ZM187.266 51.6137C187.277 50.0888 186.681 48.6221 185.61 47.5363C184.54 46.4504 183.081 45.8344 181.557 45.8237L180.259 45.8149C178.734 45.8043 177.268 46.3998 176.182 47.4706C175.096 48.5413 174.48 49.9995 174.469 51.5244L174.458 53.0502C174.448 54.5751 175.043 56.0418 176.114 57.1276C177.185 58.2134 178.643 58.8294 180.168 58.8401L181.465 58.8489C182.99 58.8596 184.457 58.264 185.543 57.1933C186.628 56.1225 187.244 54.6643 187.255 53.1394L187.266 51.6137Z" fill="white"/>
<path d="M146.645 47.7912C147.242 45.4611 148.783 44.5115 151.088 44.2364C155.037 43.7745 160.834 43.7849 161.067 49.1042C161.069 49.1438 161.064 49.1835 161.052 49.2207C161.041 49.258 161.022 49.292 160.998 49.3207C160.975 49.3493 160.946 49.3721 160.914 49.3875C160.882 49.403 160.848 49.4107 160.813 49.4104H159.256C159.176 49.4098 159.098 49.3743 159.036 49.3105C158.974 49.2467 158.933 49.1587 158.919 49.0627C158.358 45.3055 154.383 45.347 151.482 45.7777C148.233 46.2603 147.289 50.3912 150.963 51.0399C153.291 51.4516 155.622 51.8581 157.953 52.2594C160.626 52.7213 162.167 54.7764 161.617 57.4593C160.74 61.7563 154.424 61.6836 151.046 61.118C148.043 60.6094 146.356 58.992 145.986 56.2658C145.98 56.2225 145.98 56.1787 145.985 56.1372C145.991 56.0957 146.002 56.0572 146.018 56.0242C146.034 55.9912 146.054 55.9643 146.078 55.9452C146.102 55.926 146.129 55.915 146.158 55.9129L147.969 55.7468C148.038 55.7409 148.108 55.7779 148.164 55.8497C148.221 55.9215 148.259 56.0225 148.27 56.1308C148.783 61.0972 158.851 60.8741 159.464 57.1376C160.491 50.8894 144.507 56.1568 146.645 47.7912Z" fill="white"/>
<path d="M194.876 47.2081L194.964 47.203C194.99 47.2025 195.016 47.1925 195.039 47.174C195.063 47.1555 195.082 47.1295 195.094 47.0992C196.163 44.219 198.602 44.0062 201.472 44.0737C201.532 44.075 201.591 44.0806 201.646 44.0902C201.702 44.0998 201.752 44.1132 201.793 44.1296C201.835 44.146 201.868 44.165 201.891 44.1857C201.913 44.2064 201.924 44.2283 201.923 44.2501L201.944 45.9056C201.945 45.9449 201.935 45.9836 201.916 46.0188C201.896 46.054 201.867 46.0849 201.831 46.1093C201.795 46.1336 201.752 46.1508 201.706 46.1595C201.66 46.1683 201.612 46.1684 201.565 46.1599C193.127 44.6964 194.658 55.7086 194.834 60.4467C194.836 60.4963 194.829 60.5457 194.816 60.5921C194.802 60.6384 194.781 60.6807 194.755 60.7164C194.728 60.7522 194.696 60.7807 194.661 60.8003C194.626 60.8199 194.588 60.8303 194.549 60.8307L192.987 60.8255C192.918 60.8255 192.852 60.7982 192.803 60.7495C192.755 60.7008 192.727 60.6348 192.727 60.566V44.8677C192.727 44.7988 192.755 44.7329 192.803 44.6842C192.852 44.6355 192.918 44.6082 192.987 44.6082H194.544C194.582 44.6083 194.62 44.6152 194.655 44.6285C194.691 44.6417 194.723 44.661 194.749 44.6852C194.776 44.7094 194.797 44.7381 194.811 44.7694C194.824 44.8008 194.831 44.8342 194.829 44.8677L194.725 46.9487C194.724 46.9827 194.727 47.0166 194.734 47.0484C194.741 47.0802 194.752 47.1091 194.766 47.1335C194.78 47.1578 194.797 47.177 194.816 47.1898C194.835 47.2026 194.855 47.2089 194.876 47.2081Z" fill="white"/>
<path d="M202.308 54.6081C199.537 41.3851 220.031 40.1604 219.434 52.9111C219.431 52.9806 219.404 53.0465 219.359 53.0948C219.313 53.1432 219.253 53.1703 219.19 53.1706H204.659C204.577 53.1706 204.497 53.2023 204.439 53.2587C204.381 53.3152 204.348 53.3917 204.348 53.4716C204.395 60.493 214.426 62.3457 216.834 55.9522C216.869 55.8592 216.927 55.779 217 55.7224C217.073 55.6658 217.158 55.6355 217.244 55.6356H218.93C218.961 55.6359 218.991 55.6444 219.017 55.6603C219.044 55.6762 219.066 55.6991 219.084 55.7272C219.101 55.7554 219.112 55.788 219.116 55.8225C219.12 55.857 219.117 55.8925 219.107 55.9262C218.505 58.0262 217.398 59.4741 215.786 60.2699C210.196 63.0411 203.684 61.1521 202.308 54.6081ZM217.342 51.183C215.417 43.8138 205.412 43.5959 204.384 51.3646C204.378 51.4049 204.38 51.4461 204.389 51.4852C204.399 51.5244 204.416 51.5607 204.439 51.5917C204.462 51.6226 204.491 51.6476 204.523 51.6648C204.556 51.6821 204.592 51.6912 204.628 51.6916L216.953 51.759C217.017 51.7593 217.079 51.7433 217.136 51.7125C217.192 51.6816 217.241 51.6367 217.278 51.581C217.316 51.5254 217.341 51.4606 217.352 51.3916C217.363 51.3226 217.36 51.2512 217.342 51.183Z" fill="white"/>
<path d="M79.6561 62.7766C82.8165 64.6137 87.731 64.3023 90.9329 63.5342C92.085 63.2609 92.1628 63.4529 91.1664 64.1103C86.8315 66.9714 82.0605 67.935 76.8537 67.0009C76.7527 66.983 76.6607 66.9511 76.5914 66.91C76.5222 66.8688 76.4795 66.8206 76.4697 66.7725C76.0614 64.4545 76.9679 63.0758 79.189 62.6365C79.2424 62.6269 79.3122 62.6345 79.3931 62.6588C79.474 62.6831 79.5639 62.7233 79.6561 62.7766ZM44.0299 63.939C45.6905 61.3079 50.0861 65.0444 46.3081 68.402C42.6893 71.6161 38.4373 72.2596 33.5522 70.3325C33.1855 70.1872 33.1907 70.0575 33.5678 69.9433C38.2228 68.5214 41.0874 68.5785 44.0299 63.939Z" fill="#316192"/>
</g>
<defs>
<clipPath id="clip0_2268_9572">
<rect width="300.993" height="102.234" fill="white" transform="translate(0.84375 0.238281)"/>
</clipPath>
</defs>
</svg>
