<svg width="289" height="94" viewBox="0 0 289 94" fill="none" xmlns="http://www.w3.org/2000/svg">
<g clip-path="url(#clip0_2268_9524)">
<path d="M110.666 38.2609C110.666 29.5004 108.168 25.0029 103.172 24.7566C101.184 24.6628 99.2433 24.9794 97.3552 25.7124C95.8482 26.2519 94.8338 26.7855 94.3002 27.3249V48.2351C97.4959 50.2406 100.334 51.1729 102.808 51.0263C108.045 50.6803 110.666 46.4291 110.666 38.2609ZM116.829 38.6244C116.829 43.075 115.785 46.7692 113.686 49.707C111.346 53.0317 108.103 54.7439 103.958 54.8378C100.832 54.9374 97.6132 53.9582 94.3002 51.9059V70.9104L88.9407 68.9988V26.8148C89.8202 25.7359 90.9519 24.8094 92.3241 24.0236C95.514 22.1648 99.3899 21.209 103.952 21.1621L104.028 21.2383C108.197 21.1856 111.411 22.8978 113.668 26.3691C115.773 29.5532 116.829 33.6344 116.829 38.6244Z" fill="white"/>
<path d="M149.582 51.0967C149.582 57.066 148.984 61.2 147.788 63.4986C146.586 65.7972 144.299 67.6325 140.921 68.9988C138.183 70.0777 135.222 70.6641 132.043 70.7638L131.158 67.3862C134.389 66.9465 136.664 66.5067 137.983 66.0669C140.581 65.1873 142.364 63.8387 143.343 62.0326C144.129 60.5608 144.516 57.7521 144.516 53.5946V52.1991C140.851 53.8644 137.01 54.6912 132.993 54.6912C130.355 54.6912 128.027 53.8644 126.021 52.1991C123.77 50.3872 122.644 48.0886 122.644 45.3033V22.9975L128.003 21.1621V43.6145C128.003 46.0128 128.777 47.8599 130.325 49.1558C131.873 50.4517 133.879 51.0732 136.336 51.0263C138.793 50.9735 141.425 50.0236 144.222 48.1648V21.9713H149.582V51.0967Z" fill="white"/>
<path d="M170.503 54.5451C169.864 54.5979 169.277 54.6213 168.738 54.6213C165.706 54.6213 163.343 53.9001 161.654 52.4517C159.971 51.0034 159.127 49.0038 159.127 46.4531V25.3435H155.456V21.9718H159.127V13.0179L164.481 11.1121V21.9718H170.503V25.3435H164.481V46.3065C164.481 48.3178 165.02 49.7427 166.099 50.5753C167.026 51.2614 168.497 51.6543 170.503 51.7539V54.5451Z" fill="white"/>
<path d="M202.951 54.1056H197.591V33.4182C197.591 31.3131 197.099 29.5012 196.12 27.9883C194.988 26.2761 193.416 25.42 191.399 25.42C188.942 25.42 185.87 26.7159 182.181 29.3077V54.1056H176.822V4.65636L182.181 2.96759V25.4903C185.606 22.9982 189.347 21.7493 193.411 21.7493C196.249 21.7493 198.547 22.705 200.306 24.6108C202.071 26.5165 202.951 28.8913 202.951 31.7294V54.1056Z" fill="white"/>
<path d="M231.433 37.4165C231.433 34.0507 230.793 31.2713 229.521 29.0723C228.008 26.3926 225.657 24.9794 222.479 24.8328C216.603 25.1729 213.671 29.3831 213.671 37.4517C213.671 41.1517 214.281 44.2419 215.512 46.7223C217.084 49.8829 219.441 51.4426 222.584 51.3899C228.483 51.343 231.433 46.6871 231.433 37.4165ZM237.302 37.4517C237.302 42.2424 236.077 46.2297 233.632 49.4138C230.94 52.9789 227.222 54.7674 222.479 54.7674C217.776 54.7674 214.111 52.9789 211.466 49.4138C209.068 46.2297 207.872 42.2424 207.872 37.4517C207.872 32.9483 209.168 29.1603 211.76 26.076C214.498 22.804 218.098 21.1621 222.549 21.1621C227 21.1621 230.623 22.804 233.415 26.076C236.006 29.1603 237.302 32.9483 237.302 37.4517Z" fill="white"/>
<path d="M268.031 54.1048H262.671V32.2446C262.671 29.8464 261.95 27.9758 260.508 26.6271C259.065 25.2843 257.142 24.6335 254.743 24.6862C252.199 24.7331 249.777 25.5658 247.478 27.1783V54.1048H242.119V26.5157C245.203 24.2699 248.041 22.804 250.633 22.1179C253.078 21.4788 255.236 21.1621 257.095 21.1621C258.367 21.1621 259.563 21.2853 260.689 21.5315C262.794 22.0182 264.507 22.9212 265.826 24.2465C267.298 25.7124 268.031 27.4715 268.031 29.5297V54.1048Z" fill="white"/>
<path d="M36.0012 4.85486C33.2437 4.86768 30.6104 5.10285 28.2933 5.51285C21.4675 6.71875 20.2282 9.24279 20.2282 13.8975V20.0451H36.3584V22.0942H20.2282H14.1747C9.48684 22.0942 5.38199 24.9119 4.09805 30.2721C2.61704 36.4162 2.55135 40.2502 4.09805 46.6655C5.24464 51.4409 7.98286 54.8434 12.6707 54.8434H18.2167V47.4739C18.2167 42.1499 22.8231 37.4536 28.2933 37.4536H44.4047C48.8896 37.4536 52.4698 33.761 52.4698 29.2569V13.8975C52.4698 9.52617 48.7821 6.24242 44.4047 5.51285C41.6338 5.0516 38.7587 4.84205 36.0012 4.85486ZM27.2781 9.7992C28.9443 9.7992 30.3049 11.182 30.3049 12.8824C30.3049 14.5766 28.9443 15.9467 27.2781 15.9467C25.606 15.9467 24.2514 14.5766 24.2514 12.8824C24.2514 11.182 25.606 9.7992 27.2781 9.7992Z" fill="url(#paint0_linear_2268_9524)"/>
<path d="M54.4751 22.0926V29.2553C54.4751 34.8084 49.7671 39.4824 44.3984 39.4824H28.287C23.8738 39.4824 20.2219 43.2594 20.2219 47.6791V63.0385C20.2219 67.4098 24.0231 69.981 28.287 71.2351C33.3929 72.7365 38.2892 73.0078 44.3984 71.2351C48.4592 70.0594 52.4635 67.6932 52.4635 63.0385V56.8909H36.3521V54.8418H52.4635H60.5286C65.2165 54.8418 66.9634 51.5719 68.5937 46.6639C70.2777 41.6112 70.2061 36.7522 68.5937 30.2705C67.4352 25.6037 65.2225 22.0926 60.5286 22.0926H54.4751ZM45.4136 60.9893C47.0857 60.9893 48.4404 62.3594 48.4404 64.0536C48.4404 65.754 47.0857 67.1368 45.4136 67.1368C43.7475 67.1368 42.3868 65.754 42.3868 64.0536C42.3868 62.3594 43.7475 60.9893 45.4136 60.9893Z" fill="url(#paint1_linear_2268_9524)"/>
<path d="M278.47 17.1923H279.409V11.299H281.635V10.5965H276.244V11.299H278.47V17.1923ZM282.469 17.1923H283.271V11.8098L285.014 17.1916H285.908L287.723 11.8281V17.1923H288.599V10.5965H287.44L285.456 16.2472L283.764 10.5965H282.469V17.1923Z" fill="white"/>
<path opacity="0.44382" d="M58.1472 81.6763C58.1472 82.2267 57.5881 82.7718 56.5018 83.2803C55.4155 83.7888 53.8233 84.2509 51.8161 84.6401C49.8089 85.0293 47.426 85.3381 44.8034 85.5487C42.1809 85.7594 39.3701 85.8678 36.5314 85.8678C33.6928 85.8678 30.882 85.7594 28.2594 85.5487C25.6369 85.3381 23.254 85.0293 21.2468 84.6401C19.2396 84.2509 17.6473 83.7888 16.5611 83.2803C15.4748 82.7718 14.9156 82.2267 14.9156 81.6763C14.9156 81.1259 15.4748 80.5808 16.5611 80.0723C17.6473 79.5637 19.2396 79.1017 21.2468 78.7125C23.254 78.3232 25.6369 78.0145 28.2594 77.8039C30.882 77.5932 33.6928 77.4848 36.5314 77.4848C39.3701 77.4848 42.1809 77.5932 44.8034 77.8039C47.426 78.0145 49.8089 78.3232 51.8161 78.7125C53.8233 79.1017 55.4155 79.5637 56.5018 80.0723C57.5881 80.5808 58.1472 81.1259 58.1472 81.6763Z" fill="url(#paint2_radial_2268_9524)"/>
</g>
<defs>
<linearGradient id="paint0_linear_2268_9524" x1="2.96252" y1="4.85431" x2="40.157" y2="36.5491" gradientUnits="userSpaceOnUse">
<stop stop-color="#5A9FD4"/>
<stop offset="1" stop-color="#306998"/>
</linearGradient>
<linearGradient id="paint1_linear_2268_9524" x1="45.026" y1="63.5368" x2="31.682" y2="44.8379" gradientUnits="userSpaceOnUse">
<stop stop-color="#FFD43B"/>
<stop offset="1" stop-color="#FFE873"/>
</linearGradient>
<radialGradient id="paint2_radial_2268_9524" cx="0" cy="0" r="1" gradientUnits="userSpaceOnUse" gradientTransform="translate(36.5314 81.6763) rotate(-90) scale(4.19148 18.4233)">
<stop stop-color="#B8B8B8" stop-opacity="0.498039"/>
<stop offset="1" stop-color="#7F7F7F" stop-opacity="0"/>
</radialGradient>
<clipPath id="clip0_2268_9524">
<rect width="288.514" height="92.5714" fill="white" transform="translate(0.203125 0.599609)"/>
</clipPath>
</defs>
</svg>
