<svg width="100" height="108" viewBox="0 0 100 108" fill="none" xmlns="http://www.w3.org/2000/svg">
<g clip-path="url(#clip0_2268_9521)">
<path d="M98.4803 43.5044C98.4803 37.0335 90.3339 30.8998 77.8392 27.0989C80.7221 14.4359 79.4416 4.36082 73.7954 1.13507C72.4274 0.371257 70.8786 -0.0139764 69.3102 0.0194608V4.46027C70.103 4.4359 70.8889 4.6138 71.593 4.977C74.315 6.5315 75.5064 12.4447 74.5759 20.0507C74.3585 21.9208 73.9954 23.8926 73.554 25.9033C69.3696 24.903 65.1229 24.1808 60.842 23.7413C58.2905 20.2462 55.508 16.9237 52.513 13.7959C59.0353 7.76386 65.1663 4.45811 69.3297 4.45811V0C63.8249 0 56.6177 3.89166 49.3279 10.6718C42.0402 3.94355 34.8309 0.0778333 29.326 0.0778333V4.51865C33.4699 4.51865 39.6161 7.80278 46.1428 13.7959C43.1644 16.9163 40.4041 20.2355 37.8812 23.7305C33.5909 24.1679 29.3362 24.8997 25.1474 25.9206C24.6865 23.9294 24.3473 21.9987 24.106 20.148C23.1668 12.542 24.3234 6.62879 27.0302 5.05483C27.6302 4.69809 28.4107 4.53811 29.3325 4.53811V0.0994549C27.7516 0.0656727 26.1901 0.450708 24.8082 1.21506C19.1816 4.44082 17.9206 14.4943 20.8231 27.1184C8.36973 30.9408 0.262451 37.0529 0.262451 43.5044C0.262451 49.9559 8.41103 56.1069 20.9035 59.9099C18.0206 72.5729 19.3012 82.6458 24.9474 85.8716C26.3216 86.6375 27.8772 87.0228 29.4521 86.9872C34.9592 86.9872 42.1663 83.0847 49.454 76.3154C56.7416 83.0458 63.9488 86.9094 69.4558 86.9094C71.0362 86.9384 72.596 86.5497 73.9758 85.783C79.6003 82.5572 80.8634 72.5038 77.9588 59.8818C90.373 56.0788 98.4803 49.9365 98.4803 43.4958V43.5044ZM72.4148 30.2187C71.6734 32.7872 70.7516 35.4357 69.7102 38.0842C68.8906 36.4908 68.0296 34.8974 67.0882 33.3061C66.1468 31.7149 65.1859 30.1604 64.2053 28.6469C67.0469 29.0642 69.7906 29.5831 72.4148 30.2187ZM63.2444 51.4283C61.6812 54.1157 60.081 56.6647 58.42 59.0343C55.435 59.2916 52.4129 59.4321 49.3692 59.4321C46.3254 59.4321 43.323 59.2916 40.3597 59.0538C38.6986 56.6755 37.0767 54.1546 35.5157 51.4866C33.9939 48.8792 32.6111 46.2307 31.3501 43.5628C32.5915 40.8948 33.9938 38.2269 35.494 35.6195C37.0572 32.9321 38.6573 30.383 40.3205 28.0135C43.3034 27.754 46.3254 27.6156 49.3692 27.6156C52.4129 27.6156 55.4154 27.754 58.3787 27.994C60.0397 30.3636 61.6551 32.886 63.2248 35.5611C64.7467 38.1707 66.1273 40.817 67.3882 43.4871C66.1273 46.1507 64.7467 48.8122 63.2444 51.4283ZM69.7102 48.8338C70.7625 51.4283 71.6836 54.0695 72.4735 56.7577C69.8515 57.3933 67.0882 57.9317 64.2249 58.3489C65.2054 56.816 66.1816 55.2443 67.1078 53.6314C68.034 52.0185 68.8906 50.4251 69.7167 48.8338H69.7102ZM49.4083 70.0779C47.4459 68.0491 45.5883 65.9225 43.8426 63.7065C45.6449 63.7864 47.4864 63.8448 49.3496 63.8448C51.2128 63.8448 53.0934 63.8059 54.9154 63.7065C53.197 65.9299 51.3586 68.059 49.4083 70.0844V70.0779ZM34.5135 58.3489C31.6697 57.9317 28.9282 57.4149 26.3062 56.7771C27.0454 54.2086 27.9672 51.5601 29.0086 48.9117C29.8282 50.5051 30.6892 52.0985 31.6306 53.6919C32.572 55.2853 33.5329 56.8442 34.5135 58.3554V58.3489ZM49.3083 16.9179C51.2733 18.9482 53.131 21.0785 54.874 23.3002C53.0739 23.2202 51.2324 23.1597 49.3692 23.1597C47.506 23.1597 45.6254 23.2008 43.8035 23.3002C45.5219 21.0781 47.3595 18.9497 49.3083 16.9244V16.9179ZM34.4939 28.6448C33.5134 30.1776 32.5372 31.7494 31.611 33.3623C30.6848 34.9752 29.8282 36.5492 29.0021 38.1404C27.9498 35.546 27.0287 32.9047 26.2388 30.2166C28.8673 29.6069 31.6306 29.0685 34.4939 28.6513V28.6448ZM16.3748 53.5687C9.28721 50.5634 4.702 46.6221 4.702 43.4958C4.702 40.3695 9.28721 36.4065 16.3748 33.4207C18.0967 32.6834 19.9773 32.0262 21.921 31.41C23.1455 35.5481 24.6505 39.5989 26.4257 43.5347C24.6701 47.4518 23.1847 51.4832 21.9797 55.601C19.9991 54.9826 18.1163 54.3038 16.3748 53.5687ZM27.1454 82.021C24.4234 80.4687 23.232 74.5555 24.1625 66.9495C24.3799 65.0772 24.743 63.1054 25.1843 61.0947C29.3688 62.095 33.6155 62.8173 37.8964 63.2567C40.4475 66.7522 43.23 70.0747 46.2254 73.2021C39.7031 79.2363 33.5721 82.5399 29.4086 82.5399C28.6235 82.5572 27.8462 82.3819 27.1454 82.0297V82.021ZM74.6367 66.85C75.576 74.4539 74.4193 80.3671 71.7126 81.941C71.1125 82.2999 70.332 82.4577 69.4102 82.4577C65.2663 82.4577 59.1201 79.1736 52.5934 73.1805C55.5727 70.0571 58.3331 66.7342 60.855 63.2351C65.1453 62.7977 69.4 62.0659 73.5888 61.045C74.0379 62.9569 74.3855 64.891 74.6302 66.8392L74.6367 66.85ZM82.344 53.5687C80.6221 54.3059 78.7393 54.9632 76.7978 55.5794C75.573 51.4414 74.0679 47.3906 72.2931 43.4547C74.0492 39.5415 75.5347 35.5136 76.7391 31.3992C78.7197 32.0154 80.6025 32.6964 82.3636 33.4293C89.4512 36.4346 94.0364 40.3781 94.0364 43.5044C94.0364 46.6307 89.4316 50.5916 82.344 53.5687Z" fill="#61DAFB"/>
<path d="M49.3524 52.6015C51.1624 52.6015 52.9317 52.0678 54.4366 51.0678C55.9415 50.0677 57.1144 48.6464 57.8069 46.9835C58.4994 45.3205 58.6805 43.4907 58.3273 41.7254C57.974 39.9601 57.1023 38.3387 55.8223 37.0661C54.5423 35.7935 52.9116 34.927 51.1363 34.5761C49.3611 34.2253 47.5211 34.4058 45.849 35.0949C44.177 35.784 42.748 36.9507 41.7427 38.4474C40.7375 39.9442 40.2011 41.7038 40.2016 43.5037C40.2016 44.6986 40.4383 45.8819 40.8982 46.9858C41.3581 48.0897 42.0322 49.0928 42.8819 49.9376C43.7317 50.7825 44.7405 51.4525 45.8507 51.9096C46.9609 52.3667 48.1508 52.6018 49.3524 52.6015ZM4.72435 102.646H1.70451V107.835H0V95.0379H4.25691C5.70632 95.0379 6.81875 95.3658 7.59418 96.0216C8.36962 96.6775 8.76168 97.6316 8.77038 98.8842C8.78627 99.6302 8.55731 100.361 8.11814 100.966C7.66284 101.576 7.03546 102.037 6.3158 102.292L9.33783 107.72V107.835H7.51809L4.72435 102.646ZM1.70451 101.267H4.31344C5.157 101.267 5.82518 101.051 6.31798 100.618C6.5654 100.404 6.76141 100.138 6.8916 99.8383C7.02178 99.5389 7.08282 99.2144 7.07022 98.8885C7.07022 98.0994 6.83107 97.4918 6.35494 97.0702C5.87881 96.6486 5.20048 96.4346 4.30475 96.4216H1.70451V101.267ZM14.8644 107.995C13.5687 107.995 12.5142 107.573 11.7011 106.73C10.888 105.887 10.4821 104.754 10.4836 103.331V103.033C10.4674 102.163 10.6511 101.301 11.0206 100.512C11.3569 99.8065 11.8838 99.2077 12.5425 98.7826C13.1709 98.3684 13.9083 98.148 14.6622 98.1491C15.9058 98.1491 16.8711 98.5563 17.5582 99.3706C18.2452 100.185 18.5894 101.349 18.5909 102.862V103.539H12.1163C12.1018 104.372 12.3941 105.181 12.9382 105.813C13.1905 106.094 13.5013 106.317 13.849 106.466C14.1966 106.616 14.5728 106.688 14.9514 106.678C15.4626 106.695 15.9688 106.574 16.4167 106.328C16.8251 106.088 17.1825 105.772 17.469 105.396L18.4669 106.17C17.664 107.394 16.4631 108.006 14.8644 108.006V107.995ZM14.6601 99.4744C14.3474 99.4686 14.0372 99.5299 13.7505 99.6541C13.4639 99.7784 13.2076 99.9626 12.999 100.194C12.5533 100.67 12.2751 101.338 12.1707 102.199H16.9538V102.075C16.9074 101.249 16.6842 100.611 16.2841 100.16C16.0815 99.9324 15.8303 99.7528 15.5489 99.6342C15.2676 99.5157 14.9632 99.4611 14.6579 99.4744H14.6601ZM26.3894 107.835C26.2612 107.515 26.1835 107.177 26.159 106.834C25.8138 107.209 25.3934 107.507 24.9248 107.71C24.4563 107.913 23.9502 108.016 23.4391 108.012C22.5923 108.046 21.7635 107.764 21.115 107.221C20.8248 106.971 20.5937 106.66 20.4381 106.311C20.2825 105.962 20.2063 105.583 20.2149 105.202C20.1953 104.755 20.2884 104.31 20.4859 103.908C20.6834 103.507 20.9789 103.16 21.3455 102.901C22.105 102.351 23.171 102.075 24.5436 102.075H26.1329V101.327C26.1452 101.079 26.106 100.831 26.0178 100.599C25.9295 100.366 25.794 100.154 25.6198 99.976C25.2792 99.6358 24.7755 99.4658 24.1088 99.4658C23.5859 99.4466 23.0711 99.5985 22.6434 99.8982C22.465 100.014 22.3178 100.171 22.2147 100.357C22.1116 100.542 22.0558 100.75 22.052 100.962H20.4084C20.4183 100.462 20.5958 99.9794 20.9128 99.5912C21.2753 99.1299 21.7495 98.7676 22.2912 98.5383C22.8951 98.2763 23.5478 98.1445 24.2066 98.1513C25.3096 98.1513 26.172 98.4266 26.7938 98.9771C27.4156 99.5277 27.7395 100.28 27.7656 101.234V105.608C27.7378 106.317 27.8524 107.024 28.1026 107.688V107.835H26.3894ZM23.6761 106.598C24.1892 106.598 24.6929 106.462 25.1349 106.203C25.5648 105.969 25.913 105.611 26.1329 105.176V103.23H24.8523C22.8507 103.23 21.8499 103.812 21.8499 104.977C21.838 105.202 21.8779 105.426 21.9665 105.633C22.055 105.84 22.1898 106.025 22.3608 106.172C22.7295 106.467 23.1924 106.621 23.6652 106.605L23.6761 106.598ZM34.1597 106.685C34.7137 106.693 35.2528 106.506 35.6816 106.157C35.8878 106 36.0588 105.802 36.1834 105.575C36.3081 105.348 36.3838 105.098 36.4056 104.841H37.9514C37.9159 105.402 37.7198 105.941 37.3861 106.395C37.0273 106.897 36.5473 107.302 35.9903 107.571C35.4218 107.86 34.7916 108.008 34.1532 108.004C32.8487 108.004 31.8124 107.571 31.0442 106.706C30.276 105.842 29.8934 104.658 29.8963 103.156V102.886C29.8807 102.035 30.056 101.192 30.4093 100.417C30.7234 99.7281 31.2327 99.1451 31.8747 98.7393C32.5589 98.3299 33.3462 98.1229 34.1445 98.1426C35.1243 98.1096 36.0795 98.4525 36.8121 99.1004C37.1634 99.4145 37.4458 99.7971 37.6418 100.225C37.8378 100.652 37.9432 101.115 37.9514 101.585H36.4056C36.3775 101.008 36.124 100.465 35.699 100.071C35.4922 99.8745 35.2485 99.7204 34.9817 99.6176C34.715 99.5149 34.4305 99.4655 34.1445 99.4723C33.773 99.4546 33.4027 99.527 33.0656 99.6833C32.7285 99.8397 32.4347 100.075 32.2095 100.369C31.7573 100.96 31.5312 101.818 31.5312 102.942V103.249C31.5312 104.343 31.7573 105.187 32.2095 105.779C32.437 106.072 32.7328 106.306 33.0714 106.461C33.4099 106.615 33.7812 106.685 34.1532 106.665L34.1597 106.685ZM42.0104 96.0325V98.322H43.7954V99.5782H42.0104V105.472C41.9877 105.779 42.0722 106.084 42.2496 106.337C42.3563 106.44 42.4844 106.518 42.6249 106.567C42.7653 106.615 42.9148 106.633 43.0627 106.618C43.3244 106.609 43.5844 106.573 43.8389 106.512V107.835C43.4307 107.95 43.0087 108.01 42.5844 108.012C41.8561 108.012 41.3038 107.796 40.9342 107.364C40.5646 106.931 40.3777 106.3 40.3777 105.494V99.5782H38.6384V98.322H40.3777V96.0216L42.0104 96.0325ZM60.336 107.835H58.6315L52.1592 97.9826V107.835H50.4547V95.0379H52.1592L58.6489 104.936V95.0379H60.336V107.835ZM68.9912 107.835C68.864 107.515 68.7863 107.177 68.7607 106.834C68.4159 107.209 67.9955 107.508 67.5269 107.711C67.0583 107.914 66.552 108.017 66.0409 108.012C65.1948 108.045 64.3668 107.763 63.719 107.221C63.4288 106.971 63.1976 106.66 63.042 106.311C62.8864 105.962 62.8103 105.583 62.8189 105.202C62.7986 104.755 62.8915 104.31 63.0891 103.908C63.2866 103.506 63.5824 103.16 63.9494 102.901C64.7089 102.351 65.7742 102.075 67.1454 102.075H68.7347V101.327C68.7475 101.079 68.7086 100.831 68.6203 100.598C68.532 100.366 68.3962 100.154 68.2216 99.976C67.8824 99.6366 67.378 99.4658 66.7127 99.4658C66.1898 99.4466 65.6751 99.5985 65.2474 99.8982C65.0689 100.014 64.9217 100.171 64.8187 100.357C64.7156 100.542 64.6597 100.75 64.656 100.962H63.0124C63.0214 100.462 63.1982 99.9796 63.5146 99.5912C63.8779 99.1307 64.3519 98.7686 64.893 98.5383C65.4975 98.2761 66.1511 98.1442 66.8106 98.1513C67.9107 98.1513 68.7731 98.4266 69.3978 98.9771C70.0225 99.5277 70.3464 100.28 70.3696 101.234V105.608C70.3412 106.317 70.455 107.024 70.7044 107.688V107.835H68.9912ZM66.2801 106.598C66.7925 106.598 67.2955 106.462 67.7367 106.203C68.1666 105.969 68.5147 105.611 68.7347 105.176V103.23H67.4541C65.451 103.23 64.4502 103.812 64.4516 104.977C64.4403 105.202 64.4806 105.426 64.5695 105.633C64.6584 105.841 64.7935 106.025 64.9647 106.172C65.3362 106.47 65.8035 106.624 66.2801 106.605V106.598ZM75.1461 96.0325V98.322H76.9311V99.5782H75.1461V105.472C75.1234 105.779 75.2079 106.084 75.3853 106.337C75.492 106.44 75.6201 106.518 75.7605 106.567C75.901 106.615 76.0504 106.633 76.1984 106.618C76.46 106.608 76.7201 106.573 76.9745 106.512V107.835C76.5664 107.95 76.1444 108.01 75.7201 108.012C74.9918 108.012 74.4395 107.796 74.0699 107.364C73.7003 106.931 73.5134 106.3 73.5134 105.494V99.5782H71.7741V98.322H73.5134V96.0216L75.1461 96.0325ZM80.6227 107.835H78.9878V98.322H80.6227V107.835ZM78.8552 95.8119C78.8489 95.5681 78.9342 95.3307 79.0943 95.146C79.2935 94.9692 79.5512 94.8714 79.8183 94.8714C80.0854 94.8714 80.3431 94.9692 80.5423 95.146C80.7076 95.3282 80.7963 95.5666 80.7901 95.8119C80.795 96.0519 80.7062 96.2844 80.5423 96.4605C80.34 96.631 80.0835 96.7246 79.8183 96.7246C79.5531 96.7246 79.2966 96.631 79.0943 96.4605C78.9329 96.2791 78.8473 96.0432 78.8552 95.8011V95.8119ZM86.3972 105.632L88.7648 98.322H90.4432L87.0081 107.835H85.7623L82.3011 98.322H83.9687L86.3972 105.632ZM95.848 108.01C94.5523 108.01 93.4986 107.589 92.6869 106.745C91.8752 105.902 91.4687 104.769 91.4672 103.347V103.048C91.4517 102.178 91.6361 101.316 92.0064 100.527C92.3425 99.8216 92.8695 99.2227 93.5283 98.7977C94.1567 98.3835 94.8941 98.1631 95.648 98.1642C96.8916 98.1642 97.8577 98.5714 98.5461 99.3858C99.2346 100.2 99.5774 101.359 99.5745 102.862V103.539H93.1C93.0854 104.372 93.3778 105.181 93.9218 105.813C94.1746 106.094 94.4855 106.316 94.833 106.465C95.1806 106.615 95.5565 106.687 95.935 106.678C96.4468 106.692 96.9529 106.569 97.4004 106.322C97.8076 106.081 98.1642 105.765 98.4505 105.39L99.4484 106.164C98.6483 107.387 97.4475 107.999 95.8459 107.999L95.848 108.01ZM95.6437 99.4895C95.3314 99.484 95.0216 99.5455 94.7353 99.6697C94.4491 99.7939 94.1931 99.978 93.9848 100.209C93.5369 100.685 93.2601 101.353 93.1543 102.214H97.9374V102.09C97.891 101.265 97.6678 100.626 97.2677 100.175C97.0652 99.9474 96.814 99.7677 96.5326 99.6491C96.2513 99.5306 95.9468 99.476 95.6415 99.4895H95.6437Z" fill="#61DAFB"/>
</g>
<defs>
<clipPath id="clip0_2268_9521">
<rect width="99.5745" height="108" fill="white"/>
</clipPath>
</defs>
</svg>
