<svg width="319" height="102" viewBox="0 0 319 102" fill="none" xmlns="http://www.w3.org/2000/svg">
<path d="M174.417 32.0213C174.417 34.5376 172.35 36.7835 169.654 36.7835C167.587 36.7835 165.79 37.3231 164.263 38.4912C162.556 39.5703 161.208 41.0972 160.13 42.8042C157.973 45.6801 156.896 49.094 156.446 50.3512V67.4239C156.446 70.0299 154.2 72.1868 151.504 72.1868C148.898 72.1868 146.742 70.0299 146.742 67.4239V32.0213C146.742 29.4153 148.898 27.3488 151.504 27.3488C154.2 27.3488 156.446 29.416 156.446 32.0213V32.6506C156.985 32.0213 157.704 31.3031 158.333 30.8532C161.299 28.8771 165.162 27.2591 169.654 27.3488C172.35 27.3488 174.417 29.416 174.417 32.0213ZM171.782 49.724C171.872 37.5039 181.397 27.2605 193.706 27.2605C205.387 27.2605 214.642 35.9763 215.361 48.106V48.5552C215.361 48.7353 215.361 49.1837 215.272 49.3638C215.001 51.5207 213.115 52.9586 210.598 52.9586H182.025C182.474 55.0257 183.462 57.3613 185.08 58.8889C186.968 61.0458 190.562 62.6617 193.706 62.9315C196.94 63.2005 200.804 62.3926 203.051 60.6856C204.937 58.7081 208.622 58.9786 209.79 60.4151C210.958 61.6743 211.856 64.3701 209.79 66.2558C205.386 70.2983 200.085 72.1861 193.705 72.1861C181.397 72.0978 171.872 61.9441 171.782 49.724ZM181.576 45.3213H207.004C206.106 41.7272 201.523 36.4261 193.706 35.7969C186.069 36.1557 182.295 41.6375 181.576 45.3213ZM261.137 67.3363C261.137 69.9423 258.98 72.1889 256.284 72.1889C253.858 72.1889 251.972 70.4819 251.522 68.325C248.108 70.6606 243.795 72.1889 239.302 72.1889C227.172 72.1889 217.467 61.9455 217.467 49.8151C217.467 37.5045 227.172 27.2612 239.302 27.2612C243.705 27.2612 248.017 28.6984 251.342 31.0347V14.1427C251.342 11.5367 253.499 9.29014 256.283 9.29014C258.979 9.29014 261.136 11.5367 261.136 14.1427L261.137 67.3363ZM239.302 37.0554C236.068 37.0554 233.102 38.4029 230.857 40.7392C228.611 42.9857 227.262 46.2196 227.262 49.8144C227.262 53.2284 228.61 56.463 230.857 58.7095C233.102 61.0465 236.068 62.394 239.302 62.394C242.627 62.394 245.502 61.0465 247.748 58.7095C249.994 56.4637 251.342 53.2284 251.342 49.8144C251.342 46.2196 249.995 42.9857 247.748 40.7392C245.502 38.4029 242.627 37.0554 239.302 37.0554ZM278.234 16.0291C278.234 18.7248 276.168 20.9707 273.382 20.9707C270.686 20.9707 268.53 18.7248 268.53 16.0291V14.142C268.527 13.5041 268.651 12.8719 268.894 12.282C269.137 11.6921 269.494 11.1562 269.945 10.705C270.396 10.2539 270.932 9.89655 271.522 9.65359C272.112 9.41063 272.744 9.28686 273.382 9.28944C276.168 9.28944 278.234 11.4463 278.234 14.142V16.0291ZM278.234 32.2925V67.3356C278.234 70.0313 276.168 72.1882 273.382 72.1882C272.744 72.1907 272.112 72.067 271.522 71.824C270.932 71.5811 270.396 71.2237 269.945 70.7726C269.494 70.3214 269.137 69.7855 268.894 69.1956C268.651 68.6057 268.527 67.9735 268.53 67.3356V32.2925C268.53 29.4174 270.686 27.3502 273.382 27.3502C276.169 27.3502 278.234 29.4174 278.234 32.2925ZM284.409 59.3332C286.026 57.1777 289.172 56.908 291.148 58.615C293.484 60.5924 297.528 62.6575 301.032 62.5685C303.458 62.5685 305.704 61.7605 307.142 60.8615C308.4 59.7831 308.759 58.8854 308.759 58.1658C308.759 57.7166 308.669 57.5372 308.49 57.2667C308.399 56.9977 308.04 56.6382 307.321 56.1897C306.063 55.2907 303.367 54.3019 300.132 53.6734H300.043C297.257 53.1345 294.561 52.4156 292.225 51.3364C289.799 50.169 287.643 48.5517 286.025 46.1257C285.037 44.5084 284.498 42.5317 284.498 40.4652C284.498 36.3316 286.835 32.8272 289.799 30.5806C292.944 28.4245 296.719 27.2563 300.852 27.2563C307.052 27.2563 311.454 30.2218 314.33 32.1979C316.487 33.6358 317.116 36.6013 315.767 38.8465C314.33 41.0034 311.365 41.6326 309.119 40.105C306.244 38.2186 303.727 36.78 300.852 36.78C298.606 36.78 296.629 37.499 295.461 38.3973C294.293 39.2067 294.024 40.0153 294.024 40.4645C294.024 40.8233 294.024 40.9137 294.203 41.1828C294.293 41.3622 294.562 41.7216 295.192 42.0811C296.36 42.8898 298.696 43.6984 301.751 44.238L301.841 44.3284H301.931C304.897 44.8665 307.682 45.6759 310.288 46.9337C312.714 48.0121 315.14 49.7191 316.668 52.2348C317.746 54.0315 318.375 56.0986 318.375 58.1651C318.375 62.5678 315.949 66.2523 312.714 68.5878C309.479 70.8337 305.435 72.1826 301.032 72.1826C294.024 72.0929 288.633 68.8583 285.039 65.9832C283.061 64.3659 282.792 61.31 284.409 59.3332Z" fill="white"/>
<path d="M114.013 78.7933C107.701 82.0835 75.0021 95.5281 68.0406 99.1569C61.0792 102.787 57.2118 102.752 51.7126 100.123C46.2134 97.4938 11.4157 83.438 5.14747 80.4419C2.01438 78.9442 0.367188 77.6808 0.367188 76.4869V64.531C0.367188 64.531 45.6689 54.6687 52.9829 52.0453C60.2962 49.4212 62.8334 49.3266 69.0572 51.6066C75.2816 53.8865 112.496 60.6011 118.648 62.8539L118.645 74.6402C118.646 75.8222 117.226 77.119 114.013 78.7933Z" fill="#A41E11"/>
<path d="M114.015 66.8344C107.703 70.1233 75.0036 83.5692 68.0421 87.1981C61.0806 90.8283 57.2133 90.7928 51.7141 88.1638C46.2142 85.5363 11.4172 71.4777 5.14895 68.483C-1.11929 65.4869 -1.25071 63.4246 4.90698 61.014C11.064 58.6019 45.6704 45.0245 52.9851 42.4004C60.2984 39.7777 62.8356 39.6817 69.0593 41.9624C75.2838 44.2423 107.788 57.18 113.938 59.4328C120.09 61.6877 120.327 63.5442 114.015 66.8344Z" fill="#D82C20"/>
<path d="M114.013 59.2988C107.701 62.589 75.0021 76.0336 68.0406 79.6638C61.0792 83.2927 57.2118 83.2572 51.7126 80.6282C46.2127 78.0006 11.4157 63.9435 5.14747 60.9474C2.01438 59.4497 0.367188 58.1877 0.367188 56.9938V45.0365C0.367188 45.0365 45.6689 35.1749 52.9829 32.5508C60.2962 29.9274 62.8334 29.8321 69.0572 32.112C75.2816 34.392 112.496 41.1052 118.648 43.3588L118.645 55.1464C118.646 56.3277 117.226 57.6245 114.013 59.2988Z" fill="#A41E11"/>
<path d="M114.015 47.3348C107.703 50.625 75.0036 64.0696 68.0421 67.6998C61.0806 71.3287 57.2133 71.2932 51.7141 68.6642C46.2142 66.0367 11.4172 51.9788 5.14895 48.9834C-1.11929 45.988 -1.25071 43.9257 4.90698 41.5137C11.064 39.103 45.6704 25.5249 52.9851 22.9015C60.2984 20.2781 62.8356 20.1828 69.0593 22.4628C75.2838 24.7427 107.788 37.6797 113.938 39.9332C120.09 42.1874 120.327 44.0446 114.015 47.3348Z" fill="#D82C20"/>
<path d="M114.013 39.0758C107.701 42.366 75.0021 55.8113 68.0406 59.4415C61.0792 63.0703 57.2118 63.0349 51.7126 60.4059C46.2127 57.7783 11.4157 43.7205 5.14747 40.7251C2.01438 39.2274 0.367188 37.9647 0.367188 36.7715V24.8142C0.367188 24.8142 45.6689 14.9526 52.9829 12.3292C60.2962 9.70507 62.8334 9.6105 69.0572 11.8904C75.2816 14.1704 112.496 20.8836 118.648 23.1371L118.645 34.9241C118.646 36.1047 117.226 37.4015 114.013 39.0758Z" fill="#A41E11"/>
<path d="M114.015 27.1174C107.703 30.4077 75.0036 43.8529 68.0421 47.4825C61.0806 51.1113 57.2133 51.0758 51.7141 48.4476C46.2148 45.8193 11.4172 31.7621 5.14895 28.7667C-1.11929 25.7713 -1.25071 23.7083 4.90698 21.297C11.064 18.8856 45.6704 5.30893 52.9851 2.68482C60.2984 0.0607039 62.8356 -0.0338514 69.0593 2.24678C75.2838 4.52671 107.788 17.4637 113.938 19.7172C120.09 21.97 120.327 23.8279 114.015 27.1174Z" fill="#D82C20"/>
<path d="M62.4626 22.1878L58.7566 16.0273L46.9223 14.9635L55.7528 11.7789L53.1037 6.89087L61.371 10.1241L69.1654 7.57227L67.0586 12.6272L75.0061 15.6031L64.7571 16.667L62.4626 22.1878ZM70.1319 30.2464L61.8507 42.3866L42.7227 34.4531L70.1319 30.2464Z" fill="white"/>
<path d="M35.3339 30.0275C43.4247 30.0275 49.9835 27.4851 49.9835 24.3488C49.9835 21.2126 43.4247 18.6702 35.3339 18.6702C27.2432 18.6702 20.6844 21.2126 20.6844 24.3488C20.6844 27.4851 27.2432 30.0275 35.3339 30.0275Z" fill="white"/>
<path d="M87.1343 29.9268L87.1204 17.1122L103.342 23.523L87.1343 29.9268Z" fill="#7A0C00"/>
<path d="M87.1316 29.9268L85.3724 30.6152L69.1716 24.2113L87.1177 17.1122L87.1316 29.9268Z" fill="#AD2115"/>
</svg>
