<svg width="260" height="82" viewBox="0 0 260 82" fill="none" xmlns="http://www.w3.org/2000/svg">
<g clip-path="url(#clip0_2268_9510)">
<path d="M81.0368 23.0521C81.032 22.2452 81.0231 21.4388 81.0008 20.631C80.9538 18.8738 80.8499 17.1006 80.5376 15.3622C80.2207 13.5968 79.7027 11.9552 78.8862 10.3515C78.0847 8.77656 77.037 7.33534 75.7872 6.08553C74.5377 4.83572 73.0965 3.78813 71.5208 2.98627C69.9184 2.17076 68.2766 1.65284 66.5128 1.33593C64.7734 1.02267 63.0003 0.919465 61.2418 0.871915C60.4344 0.850032 59.6278 0.840846 58.8207 0.835848C57.8626 0.830444 56.9039 0.830444 55.9462 0.830444H34.7086H25.9104C24.9517 0.830444 23.9941 0.830444 23.0363 0.835983C22.2289 0.840981 21.4214 0.850167 20.6152 0.872051C20.1756 0.883938 19.7351 0.899338 19.2943 0.920546C17.9721 0.984306 16.6479 1.10116 15.344 1.33607C14.0211 1.57382 12.7667 1.9245 11.5464 2.42904C11.1396 2.59709 10.7365 2.78243 10.3359 2.98627C9.15416 3.58767 8.04781 4.32726 7.04156 5.18667C6.70615 5.47319 6.38181 5.77294 6.06949 6.08539C4.81941 7.3352 3.77169 8.77642 2.97023 10.3514C2.15378 11.9551 1.6364 13.5967 1.31922 15.3621C1.00718 17.1005 0.90343 18.8736 0.85615 20.6308C0.833996 21.4386 0.824675 22.2451 0.819407 23.052C0.813328 24.0103 0.814138 24.9687 0.814138 25.9267V39.0055V55.9621C0.814138 56.921 0.813193 57.8785 0.819407 58.8375C0.824675 59.6444 0.833996 60.4508 0.85615 61.2573C0.90343 63.0154 1.00704 64.7889 1.31922 66.5265C1.6364 68.2914 2.15378 69.9345 2.97023 71.5378C3.77169 73.1132 4.81941 74.554 6.06949 75.8033C7.31862 77.0536 8.76025 78.1011 10.336 78.9035C11.9385 79.7191 13.5802 80.2363 15.3444 80.5533C17.0827 80.8661 18.8572 80.9701 20.6153 81.0171C21.4215 81.0386 22.2291 81.0482 23.0365 81.0528C23.9942 81.0597 24.9518 81.0587 25.9105 81.0587H55.9462C56.9039 81.0587 57.8626 81.0597 58.8205 81.0528C59.6277 81.0482 60.4342 81.0386 61.2416 81.0171C63.0002 80.9701 64.7733 80.866 66.5127 80.5533C68.2765 80.2363 69.9183 79.719 71.5207 78.9035C73.0963 78.1012 74.5375 77.0536 75.7871 75.8033C77.0369 74.5538 78.0847 73.1132 78.8861 71.5378C79.7025 69.9345 80.2206 68.2916 80.5375 66.5265C80.8498 64.7889 80.9537 63.0154 81.0007 61.2573C81.0229 60.4508 81.0318 59.6445 81.0366 58.8375C81.0428 57.8785 81.0423 56.921 81.0423 55.9621V25.9267C81.0424 24.9687 81.0428 24.0102 81.0368 23.0521Z" fill="#F05138"/>
<path d="M64.386 50.3515C64.3841 50.349 64.3823 50.3473 64.3803 50.345C64.4691 50.0429 64.5606 49.7428 64.6383 49.4331C67.9682 36.1666 59.8413 20.4818 46.089 12.2234C52.1155 20.3932 54.7802 30.2887 52.4127 38.9426C52.2016 39.7144 51.9477 40.4552 51.6672 41.1752C51.3627 40.9752 50.979 40.7481 50.4638 40.464C50.4638 40.464 36.7839 32.0176 21.9571 17.0778C21.568 16.6857 29.8633 28.9342 39.2776 38.8804C34.8422 36.3912 22.4813 27.3976 14.6561 20.2356C15.6175 21.8389 16.761 23.3828 18.018 24.8691C24.5527 33.1565 33.0749 43.3817 43.2847 51.2336C36.1112 55.6236 25.9748 55.9649 15.8824 51.2381C13.3862 50.0683 11.0395 48.6568 8.86719 47.0531C13.1393 53.8864 19.7188 59.782 27.7268 63.2239C37.2767 67.3279 46.7733 67.0496 53.8464 63.2911L53.8408 63.2992C53.8731 63.2788 53.9142 63.2565 53.9477 63.2359C54.2381 63.0797 54.5264 62.9207 54.8083 62.7528C58.2066 60.9889 64.919 59.1993 68.5219 66.2094C69.4043 67.9249 71.2792 58.8332 64.386 50.3515Z" fill="white"/>
<path d="M111.489 52.8924C112.116 58.4583 117.424 62.1075 124.797 62.1075C131.801 62.1075 136.852 58.4583 136.852 53.4089C136.852 49.0588 133.792 46.4034 126.75 44.6347L119.931 42.9023C110.125 40.469 105.701 36.0448 105.701 28.7464C105.701 19.7518 113.553 13.5211 124.723 13.5211C135.561 13.5211 143.266 19.788 143.524 28.8205H136.336C135.782 23.2907 131.285 19.8982 124.539 19.8982C117.866 19.8982 113.221 23.327 113.221 28.3401C113.221 32.2476 116.097 34.5708 123.175 36.3773L128.852 37.8514C139.838 40.5432 144.335 44.8191 144.335 52.524C144.335 62.3298 136.556 68.4865 124.17 68.4865C112.668 68.4865 104.816 62.366 104.227 52.8926L111.489 52.8924Z" fill="white"/>
<path d="M189.999 67.6006H182.773L174.331 38.1831H174.183L165.779 67.6006H158.553L147.863 29.0766H154.866L162.313 60.0061H162.461L170.866 29.0766H177.648L186.127 60.0061H186.275L193.722 29.0766H200.652L189.999 67.6006Z" fill="white"/>
<path d="M205.322 18.7169C205.322 16.3954 207.239 14.5149 209.562 14.5149C211.921 14.5149 213.838 16.3954 213.838 18.7169C213.838 21.0399 211.921 22.9568 209.562 22.9568C207.239 22.9568 205.322 21.04 205.322 18.7169ZM206.06 29.0756H213.101V67.5996H206.06V29.0756Z" fill="white"/>
<path d="M259.072 34.7546V29.0767H251.625V19.8616H244.621V29.0767H238.907H231.162V25.6858C231.198 22.2571 232.526 20.8191 235.696 20.8191C236.728 20.8191 237.76 20.9309 238.608 21.0774V15.5477C237.355 15.3634 236.212 15.2532 234.885 15.2532C227.364 15.2532 224.194 18.3874 224.194 25.5756V29.0767H218.812V34.7546H224.194V67.6007H231.198V34.7546H238.907H244.621V57.5004C244.621 64.947 247.46 67.8212 254.832 67.8212C256.417 67.8212 258.224 67.7109 259.035 67.5267V61.7765C258.556 61.8505 257.155 61.9608 256.381 61.9608C253.1 61.9608 251.626 60.4126 251.626 56.9476V34.7546H259.072Z" fill="white"/>
</g>
<defs>
<clipPath id="clip0_2268_9510">
<rect width="258.263" height="80.2286" fill="white" transform="translate(0.8125 0.828125)"/>
</clipPath>
</defs>
</svg>
