<svg width="237" height="86" viewBox="0 0 237 86" fill="none" xmlns="http://www.w3.org/2000/svg">
<g clip-path="url(#clip0_2268_9460)">
<path d="M71.0761 68.5577L55.7275 42.7401L71.0761 16.9226L78.4753 42.7401L71.0761 68.5577ZM36.9158 66.0383L17.631 46.9115H48.3283L63.677 72.7291L36.9158 66.0383ZM36.9158 19.3629L63.5989 12.6722L48.2502 38.4897H17.5529L36.9158 19.3629ZM76.1139 0L41.2443 9.05206L36.0494 17.9461L25.5814 17.8671L0 42.7401L25.5814 67.6131L36.0494 67.5341L41.2443 76.4282L76.1139 85.5593L85.4803 51.6342L80.2063 42.8191L85.4803 34.0032L76.1139 0ZM155.297 25.1091C150.653 25.1091 147.504 27.0763 145.143 30.6973H144.986V26.0537H136.8V60.214H145.143V40.8511C145.143 36.2074 148.056 32.9797 152.07 32.9797C155.848 32.9797 158.682 35.2629 158.682 39.2771V60.293H167.025V37.9385C167.103 30.4612 162.381 25.1091 155.297 25.1091ZM124.127 45.8099C124.127 50.3754 121.53 53.5233 117.279 53.5233C113.423 53.5233 110.983 51.3199 110.983 47.3057V26.0537H102.639V48.8796C102.639 56.3569 106.889 61.2375 114.525 61.2375C119.326 61.2375 122.002 59.4266 124.285 56.2787H124.521V60.293H132.55V26.0537H124.206V45.8099H124.127ZM171.512 26.0537H179.855V60.214H171.512V26.0537ZM171.512 15.4277H179.855V22.2755H171.512V15.4277ZM227.16 26.0537L222.201 41.4805C221.1 44.6292 220.233 48.9586 220.233 48.9586H219.997C219.997 48.9586 218.896 44.6292 217.794 41.4805L212.205 26.0537H203.232L212.441 50.3754C214.409 55.5703 215.038 57.7737 215.038 59.6627C215.038 62.4963 213.544 64.3073 210.002 64.3073H206.774V71.4694H212.127C219.053 71.4694 221.493 68.7148 224.091 61.1585L236.133 26.1318H227.16V26.0537ZM195.439 50.2174V32.1141H200.792V26.1318H195.439V15.4277H187.097V26.0537H182.374V32.0351H187.097V52.1065C187.097 58.5611 191.976 60.293 196.384 60.293C200.005 60.293 200.949 60.135 200.949 60.135V53.5233H198.824C196.856 53.6023 195.439 52.7367 195.439 50.2174Z" fill="white"/>
</g>
<defs>
<clipPath id="clip0_2268_9460">
<rect width="236.133" height="85.8667" fill="white"/>
</clipPath>
</defs>
</svg>
