<svg width="75" height="420" viewBox="0 0 75 420" fill="none" xmlns="http://www.w3.org/2000/svg">
<path d="M52.4489 249.633H69.9317L79.4302 233.94V211.364H64.8383V232.15H53.5502V211.364H42.9504V233.94L52.4489 249.633ZM37.8569 249.633V232.15H31.6622V211.364H18.7222L18.7222 233.94L28.3584 249.633H37.8569ZM28.3584 167.037H79.4302V204.756H64.8383V184.52H53.5502L53.5502 205.307H42.9504L42.9504 184.52H31.6622V205.307H18.7222V182.73L28.3584 167.037Z" fill="white" fill-opacity="0.03"/>
<path d="M18.7221 270.147H79.4302V287.492H18.7221V270.147ZM13.0781 270.422L13.0781 287.492H0.275689L0.275689 270.422H13.0781Z" fill="white" fill-opacity="0.03"/>
<path d="M79.2922 308.691V346.134H64.8379V326.036H31.7995V346.685H18.9971V326.036H0L0 308.691H79.2922ZM28.4956 390.736L18.9971 375.043V352.742H31.7995V373.942H64.8379V353.293H79.2922V375.043L69.7936 390.736H28.4956Z" fill="white" fill-opacity="0.03"/>
<path d="M43.9135 410.836H28.2203L18.5841 427.08V449.105H31.5241V428.319H42.8122L42.8122 449.105H53.4121L53.4121 427.08L43.9135 410.836ZM60.1574 410.836V428.869H64.7002V449.105H79.2921V427.08L69.7936 410.836H60.1574ZM69.7936 493.983H28.2203L18.5841 477.739L18.5841 455.851H31.5241L31.5241 476.637H42.8122V455.851H53.4121V476.637H64.7002V455.851H79.2921V477.739L69.7936 493.983Z" fill="white" fill-opacity="0.03"/>
<path d="M0.138094 609.387L0.138094 593.694L26.8441 565.336H47.6308L22.439 592.042H79.2926V609.387H0.138094ZM0.138094 514.539L0.138094 530.095L26.8441 558.591H47.6308L22.439 531.885H79.2926V514.539H0.138094Z" fill="white" fill-opacity="0.03"/>
<path d="M61.5787 -344.997L70.9396 -329.579V-307.829H59.9268V-327.79H31.5689V-307.003H18.6288V-329.579L28.1274 -344.997H61.5787ZM18.6288 -262.814L18.6288 -300.946H31.5689L31.5689 -280.297H59.9268V-300.258H70.9396V-280.297H105.768V-262.814H18.6288Z" fill="white" fill-opacity="0.03"/>
<path d="M79.1993 -243.908V-226.701H73.0046L79.1993 -206.052H64.745L64.745 -226.701H19.0419L19.0419 -243.908H79.1993ZM69.7007 -161.863L79.1993 -177.418V-199.719H64.745V-179.208H19.0419V-161.863H69.7007Z" fill="white" fill-opacity="0.03"/>
<path d="M28.1274 -62.0604H69.563L79.0616 -78.1666V-99.9169H64.332V-79.2679H31.5689V-99.9169H18.6288V-78.1666L28.1274 -62.0604ZM28.1274 -142.867H69.563L79.0616 -126.761V-104.873H64.332V-125.659H31.5689L31.5689 -104.873H18.6288L18.6288 -126.761L28.1274 -142.867Z" fill="white" fill-opacity="0.03"/>
<path d="M19.0419 19.388V2.18054H24.9613L19.0419 -18.4685H31.8443L31.8443 2.18054H79.1993V19.388H19.0419ZM26.6132 -42.5589L19.0419 -24.6632H37.7636L37.7636 -42.5589H26.6132Z" fill="white" fill-opacity="0.03"/>
<path d="M9.51343 137.943H69.8085L79.1694 121.837V93.8922H63.6138V120.048H16.2588L16.2588 93.3415H0.0148926L0.0148926 121.837L9.51343 137.943ZM25.6197 42.545L25.6197 60.4408H16.2588V87.1468H0.0148926L0.0148926 58.6512L9.51343 42.545H25.6197ZM31.8144 42.545H69.8085L79.1694 58.6512V86.5962H63.6138L63.6138 60.4408H47.5076L47.5076 87.1468H31.8144L31.8144 42.545Z" fill="white" fill-opacity="0.03"/>
</svg>
