<svg width="727" height="877" viewBox="0 0 727 877" fill="none" xmlns="http://www.w3.org/2000/svg">
<path fill-rule="evenodd" clip-rule="evenodd" d="M172.707 -1130L198.961 -1086.76V-1025.76H168.074V-1081.74H88.54V-1023.44H52.2477V-1086.76L78.8878 -1130H172.707ZM52.2477 -899.506V-1006.45H88.54V-948.54H168.074V-1004.52H198.961V-948.54H296.642V-899.506H52.2477ZM222.127 -846.482V-798.221H204.753L222.127 -740.308H181.587V-798.221H53.4062V-846.482H222.127ZM195.487 -616.374L222.127 -660.002V-722.548H181.587V-665.021H53.4062V-616.374H195.487ZM195.1 -336.463H78.8878L52.2477 -381.635V-442.637H88.54V-384.724H180.429V-442.637H221.74V-381.635L195.1 -336.463ZM195.1 -563.096H78.8878L52.2477 -517.924V-456.536H88.54V-514.835H180.429V-456.536H221.74V-517.924L195.1 -563.096ZM53.4062 -108.028V-156.289H70.008L53.4062 -214.203H89.3124V-156.289H222.127V-108.028H53.4062ZM74.641 -281.768L53.4062 -231.576H105.914V-281.768H74.641ZM195.789 224.478H26.6822L0.0421055 179.306V99.3854H45.6005V174.286H178.415V100.93H217V80.4672H178.415V7.11035H133.243V82.0115H89.2285V-43.0812H195.789L220.827 -0.000488281H727V877H222.387V889.459L195.747 933.473H79.9203L53.2802 889.459V826.913H89.1863V886.37H181.848V828.457H217V808.381H181.848V752.012H89.1863V809.925H53.2802V752.012H0V703.365H217V643.909H52.509V595.262H217V503.254L196.134 537.729H147.101L120.461 493.715V430.396H150.189V488.695H181.849V430.396H217V411.864H181.849V355.109H150.189V413.408H120.461V355.109H88.8015V413.408H52.5092V350.09L79.5354 306.076H217V187.982L195.789 224.478ZM71.8545 7.11035V-43.0812H26.6822L0.0421055 2.09119V82.0115H45.6005V7.11035H71.8545ZM0.385907 2090.55V2138.03H222.773V2090.55H89.5723V2031.86H52.5078V2090.55H0.385907ZM52.5078 1951.94L79.1479 1908.31H222.773V1956.96H89.5723V2014.87H52.5078V1951.94ZM222.387 2235.07L195.747 2191.06H147.486L120.459 2235.07V2296.07H150.574V2237.77H181.848V2297.23H222.387V2235.07ZM53.6662 2377.15L80.3063 2421.17H123.934L150.574 2377.15V2314.61H120.459V2372.52H89.5724V2314.61H53.6662V2377.15ZM181.848 2372.52H168.721V2421.17H195.747L222.387 2377.15V2314.61H181.848V2372.52ZM89.5724 2239.32H106.174V2191.06H80.3063L53.6662 2235.07V2297.23H89.5724V2239.32ZM52.5097 2475.48H222.775V2524.13H52.5097V2475.48ZM36.6801 2476.26V2524.13H0.773911V2476.26H36.6801ZM89.5725 2624.12V2682.42H120.46V2624.12H89.5725ZM222.387 2747.67V2699.41H0L26.6401 2747.67H89.5725V2784.74H120.46V2747.67H222.387ZM35.9062 2624.12H53.6663V2575.86H26.6401L0 2619.49V2682.42H35.9062V2624.12ZM222.387 2837.76V2942.78H181.848V2886.41H89.1864V2944.32H53.2802V2886.41H0V2837.76H222.387ZM79.9203 3067.87L53.2802 3023.85V2961.31H89.1864V3020.77H181.848V2962.85H222.387V3023.85L195.747 3067.87H79.9203ZM0.385907 3121.41V3170.83H222.773V3121.41H0.385907ZM79.1479 3450.74H195.36L222.001 3405.57V3344.56H180.689V3402.48H88.8001V3344.56H52.5078V3405.57L79.1479 3450.74ZM79.1479 3224.1H195.36L222.001 3269.28V3330.67H180.689V3272.37H88.8001V3330.67H52.5078V3269.28L79.1479 3224.1ZM196.133 3772.48H27.026L0.385907 3727.31V3647.39H45.9443V3722.29H178.759V3648.93H222.387V3727.31L196.133 3772.48ZM72.1983 3555.11V3504.92H27.026L0.385907 3550.09V3630.01H45.9443V3555.11H72.1983ZM196.133 3504.92H89.5723V3630.01H133.586V3555.11H178.759V3628.47H222.387V3550.09L196.133 3504.92ZM106.175 488.695V537.729H79.5354L52.5092 493.715V430.396H88.8015V488.695H106.175ZM36.6794 643.909V596.034H0.773212V643.909H36.6794ZM79.148 989.846H123.162L149.802 1035.4V1097.18H120.073V1038.88H88.4142V1097.18H52.1219V1035.4L79.148 989.846ZM168.72 1040.42V989.846H195.747L222.387 1035.4V1097.18H181.461V1040.42H168.72ZM79.148 1223.04H195.747L222.387 1177.48V1116.1H181.461V1174.4H149.802V1116.1H120.073V1174.4H88.4142V1116.1H52.1219V1177.48L79.148 1223.04ZM0.387305 1546.71V1502.7L75.2884 1423.16H133.588L62.9336 1498.07H222.388V1546.71H0.387305ZM0.387305 1280.7V1324.33L75.2884 1404.25H133.588L62.9336 1329.34H222.388V1280.7H0.387305Z" fill="#CA116A"/>
</svg>
