<svg width="234" height="233" viewBox="0 0 234 233" fill="none" xmlns="http://www.w3.org/2000/svg">
<path fill-rule="evenodd" clip-rule="evenodd" d="M233.337 121.595L230.34 121.464L227.488 121.34C227.401 123.329 227.261 125.304 227.071 127.265L229.913 127.541L232.899 127.831C232.564 131.283 232.078 134.69 231.447 138.046L228.499 137.493L225.692 136.966C225.085 140.196 224.339 143.376 223.458 146.5L226.207 147.275L229.095 148.089C220.429 178.833 199.454 204.418 171.826 219.185L170.412 216.54L169.066 214.021C160.439 218.632 151.13 222.132 141.328 224.331L141.953 227.118L142.61 230.045C139.277 230.793 135.89 231.397 132.456 231.852L132.062 228.878L131.687 226.048C128.473 226.474 125.217 226.762 121.923 226.906L122.047 229.758L122.178 232.755C120.466 232.829 118.746 232.867 117.016 232.867C115.286 232.867 113.566 232.829 111.854 232.755L111.985 229.758L112.11 226.906C110.121 226.819 108.145 226.68 106.185 226.489L105.909 229.33L105.619 232.316C102.167 231.981 98.7598 231.495 95.4032 230.865L95.9567 227.916L96.4835 225.11C93.2537 224.504 90.0735 223.757 86.9494 222.876L86.1746 225.625L85.3607 228.512C54.6166 219.846 29.032 198.871 14.2641 171.244L16.9098 169.829L19.4279 168.483C14.8171 159.857 11.3167 150.547 9.11773 140.746L6.3317 141.371L3.40443 142.027C2.65685 138.694 2.05218 135.307 1.59719 131.873L4.5712 131.479L7.40114 131.104C6.97521 127.891 6.68726 124.634 6.54342 121.34L3.69203 121.464L0.694882 121.595C0.620233 119.884 0.58252 118.163 0.58252 116.434C0.58252 114.704 0.620233 112.983 0.694882 111.272L3.69203 111.403L6.54343 111.527C6.63028 109.538 6.76968 107.563 6.96027 105.602L4.11921 105.326L1.13327 105.036C1.46858 101.585 1.9546 98.1772 2.58464 94.8207L5.53315 95.3742L8.33922 95.9009C8.94567 92.6711 9.69254 89.4909 10.5732 86.3668L7.8248 85.5921L4.93732 84.7782C13.6032 54.034 34.5785 28.4495 62.206 13.6816L63.6202 16.3273L64.9663 18.8456C73.593 14.2349 82.9025 10.7346 92.704 8.5357L92.0789 5.74918L91.4224 2.82191C94.7553 2.07433 98.1422 1.46966 101.576 1.01467L101.97 3.98868L102.345 6.81917C105.559 6.39325 108.815 6.10531 112.11 5.9615L111.985 3.10951L111.854 0.112363C113.566 0.0377134 115.286 0 117.016 0C118.746 0 120.466 0.0377133 122.178 0.112362L122.047 3.10951L121.923 5.96154C123.912 6.0484 125.887 6.1878 127.847 6.37839L128.123 3.53669L128.414 0.550747C131.865 0.886065 135.272 1.37208 138.629 2.00212L138.075 4.95063L137.549 7.75737C140.778 8.36383 143.959 9.1107 147.083 9.99141L147.857 7.24228L148.671 4.3548C179.416 13.0207 205 33.996 219.768 61.6234L217.122 63.0377L214.603 64.3841C219.214 73.0107 222.714 82.3202 224.913 92.1216L227.7 91.4964L230.628 90.8398C231.375 94.1728 231.98 97.5597 232.435 100.994L229.461 101.388L226.63 101.763C227.056 104.976 227.344 108.233 227.488 111.527L230.34 111.403L233.337 111.272C233.412 112.983 233.45 114.704 233.45 116.434C233.45 118.163 233.412 119.884 233.337 121.595ZM117.016 223.013C175.878 223.013 223.595 175.296 223.595 116.434C223.595 57.5717 175.878 9.85461 117.016 9.85461C58.1536 9.85461 10.4365 57.5717 10.4365 116.434C10.4365 175.296 58.1536 223.013 117.016 223.013ZM214.057 116.171C214.057 169.766 170.61 213.213 117.016 213.213C63.4211 213.213 19.9741 169.766 19.9741 116.171C19.9741 62.5767 63.4211 19.1298 117.016 19.1298C170.61 19.1298 214.057 62.5767 214.057 116.171ZM216.057 116.171C216.057 170.87 171.715 215.213 117.016 215.213C62.3165 215.213 17.9741 170.87 17.9741 116.171C17.9741 61.4722 62.3165 17.1298 117.016 17.1298C171.715 17.1298 216.057 61.4722 216.057 116.171Z" fill="#A9A9A9"/>
</svg>
