<svg width="48" height="48" viewBox="0 0 48 48" fill="none" xmlns="http://www.w3.org/2000/svg">
<g clip-path="url(#clip0_3013_3176)">
<path d="M24 48C37.2548 48 48 37.2548 48 24C48 10.7452 37.2548 0 24 0C10.7452 0 0 10.7452 0 24C0 37.2548 10.7452 48 24 48Z" fill="#D6D6D6"/>
<path d="M18.7808 34C18.1962 34 17.5282 33.7492 17.1106 33.3312L14.6889 30.907C13.7704 29.9875 13.7704 28.4828 14.6889 27.5632L18.5303 23.7179C19.4489 22.7983 20.952 22.7983 21.8706 23.7179L22.5386 24.3866L24.3758 22.5475L23.7077 21.8788C22.7891 20.9592 22.7891 19.4545 23.7077 18.535L27.5491 14.6897C28.4676 13.7701 29.9708 13.7701 30.8894 14.6897L33.3111 17.1139C34.2296 18.0334 34.2296 19.5381 33.3111 20.4577L29.4697 24.303C28.5511 25.2226 27.048 25.2226 26.1294 24.303L25.4614 23.6343L23.6242 25.4734L24.2923 26.1421C25.2109 27.0617 25.2109 28.5664 24.2923 29.4859L20.4509 33.3312C19.9499 33.7492 19.3653 34 18.7808 34ZM18.2797 32.1609C18.5303 32.4117 19.0313 32.4117 19.2818 32.1609L23.1232 28.3156C23.2902 28.1484 23.2902 27.9812 23.2902 27.814C23.2902 27.6468 23.2067 27.4796 23.1232 27.3124L22.4551 26.6437L20.3674 28.7335L19.1983 27.5632L21.286 25.4734L20.618 24.8046C20.3674 24.5538 19.8664 24.5538 19.6159 24.8046L15.7745 28.6499C15.524 28.9007 15.524 29.4023 15.7745 29.6531L18.2797 32.1609ZM26.6305 22.4639L27.2985 23.1327C27.5491 23.3835 28.0501 23.3835 28.3006 23.1327L32.142 19.2874C32.3925 19.0366 32.3925 18.535 32.142 18.2842L29.7202 15.86C29.4697 15.6092 28.9687 15.6092 28.7182 15.86L24.7933 19.6217C24.5428 19.8725 24.5428 20.3741 24.7933 20.6249L25.4614 21.2936L27.5491 19.2038L28.7182 20.3741L26.6305 22.4639Z" fill="black"/>
</g>
<defs>
<clipPath id="clip0_3013_3176">
<rect width="48" height="48" fill="white"/>
</clipPath>
</defs>
</svg>
