<svg width="30" height="31" viewBox="0 0 30 31" fill="none" xmlns="http://www.w3.org/2000/svg">
<path d="M17.8637 11.9806C18.9115 13.0214 19.4887 14.412 19.4887 15.8913C19.4887 17.3706 18.9106 18.7551 17.8637 19.802L13.3368 24.3297C12.2891 25.3766 10.9055 25.9547 9.42618 25.9547C7.94685 25.9547 6.5564 25.3766 5.51552 24.3297C4.9886 23.8089 4.58236 23.1995 4.30892 22.5398C4.03634 21.8792 3.88965 21.1561 3.88965 20.4191C3.88965 18.946 4.46778 17.5562 5.51465 16.5085L10.0415 11.9816C10.0988 11.9243 10.1492 11.8739 10.2065 11.8288C9.99727 12.4573 9.88876 13.1179 9.88876 13.7906C9.88876 14.597 10.0415 15.3844 10.3332 16.1084L7.72387 18.7177C7.2664 19.1752 7.019 19.7776 7.019 20.4191C7.019 21.0667 7.2664 21.67 7.72387 22.1205C8.17438 22.5779 8.78376 22.8314 9.42525 22.8314C10.0667 22.8314 10.6692 22.5771 11.1266 22.1205L15.6535 17.5936C16.111 17.1361 16.3644 16.5337 16.3644 15.8922C16.3644 15.2446 16.1101 14.6413 15.6535 14.1908C15.2855 13.8167 14.8158 13.5814 14.3011 13.5111C14.3584 13.1431 14.5363 12.8063 14.8028 12.5398L16.4026 10.94C16.9365 11.1943 17.4314 11.5431 17.8637 11.9806ZM24.4913 5.34684C22.3394 3.19493 18.8282 3.19493 16.6762 5.34684L12.1433 9.87973C11.1025 10.9275 10.5244 12.3111 10.5244 13.7904C10.5244 15.2697 11.1025 16.6602 12.1433 17.7011C12.5747 18.1325 13.0704 18.4884 13.6034 18.7488L15.2093 17.1429C15.4758 16.8764 15.6476 16.5335 15.7041 16.1715C15.1962 16.1021 14.7266 15.8668 14.3516 15.4918C13.4124 14.5526 13.4124 13.0283 14.3516 12.0892L18.8845 7.55629C19.3542 7.08667 19.9705 6.85142 20.5859 6.85142C21.2014 6.85142 21.8177 7.08667 22.2873 7.55629C23.2204 8.49553 23.2204 10.0258 22.2873 10.9652L19.678 13.5745C19.9696 14.2985 20.1224 15.0858 20.1224 15.8914C20.1224 16.5641 20.0148 17.2308 19.7986 17.8593C19.8559 17.8081 19.9132 17.7577 19.9636 17.7004L24.4904 13.1735C26.6502 11.0164 26.6502 7.5051 24.4913 5.3471L24.4913 5.34684Z" fill="#101212"/>
</svg>
