<svg width="37" height="36" viewBox="0 0 37 36" fill="none" xmlns="http://www.w3.org/2000/svg">
<rect x="0.796021" width="36" height="36" fill="#BDBDBD" fill-opacity="0.1"/>
<path d="M18.796 8C13.286 8 8.79602 12.49 8.79602 18C8.79602 23.51 13.286 28 18.796 28C24.306 28 28.796 23.51 28.796 18C28.796 12.49 24.306 8 18.796 8ZM18.046 14C18.046 13.59 18.386 13.25 18.796 13.25C19.206 13.25 19.546 13.59 19.546 14V19C19.546 19.41 19.206 19.75 18.796 19.75C18.386 19.75 18.046 19.41 18.046 19V14ZM19.716 22.38C19.666 22.51 19.596 22.61 19.506 22.71C19.406 22.8 19.296 22.87 19.176 22.92C19.056 22.97 18.926 23 18.796 23C18.666 23 18.536 22.97 18.416 22.92C18.296 22.87 18.186 22.8 18.086 22.71C17.996 22.61 17.926 22.51 17.876 22.38C17.826 22.26 17.796 22.13 17.796 22C17.796 21.87 17.826 21.74 17.876 21.62C17.926 21.5 17.996 21.39 18.086 21.29C18.186 21.2 18.296 21.13 18.416 21.08C18.656 20.98 18.936 20.98 19.176 21.08C19.296 21.13 19.406 21.2 19.506 21.29C19.596 21.39 19.666 21.5 19.716 21.62C19.766 21.74 19.796 21.87 19.796 22C19.796 22.13 19.766 22.26 19.716 22.38Z" fill="#E8E8E8"/>
</svg>
