<svg width="1681" height="63" viewBox="0 0 1681 63" fill="none" xmlns="http://www.w3.org/2000/svg">
<g clip-path="url(#clip0_748_2557)">
<path d="M599.259 0.452294H615.741V18.542H636.108V31.4058H615.741V77.6351H599.259V0.452294ZM678.988 27.7879L663.846 18.542H642.004V31.4058H662.104V77.6351H678.988V27.7879Z" fill="#E8E8E8"/>
<path d="M580.856 68.2552L565.58 77.5011H544.007V63.4313H564.642V52.5775H544.409V42.1257H565.58L580.856 51.5055V68.2552ZM500.993 28.1899L516.269 18.944H537.977V31.4058H517.877V42.1257H537.977V52.5775H516.269L500.993 43.3317V28.1899ZM517.877 58.8754V63.4313H537.977V77.5011H516.269L500.993 68.2552V58.8754H517.877ZM564.106 37.1678V31.4058H544.007V18.944H565.58L580.856 28.1899V37.1678H564.106Z" fill="#E8E8E8"/>
<path d="M482.142 18.5427V77.6357H465.258V18.5427H482.142ZM481.874 13.0488H465.258V0.586957H481.874V13.0488Z" fill="#E8E8E8"/>
<path d="M410.321 31.4059H430.554V42.1257H410.321V31.4059ZM404.425 77.5011H387.675V42.1257H374.811V31.4059H387.675V9.56421L404.425 0.318359V77.5011ZM430.554 18.9441V12.7802H410.321V0.318359H432.162L447.304 9.56421V18.9441H430.554Z" fill="#E8E8E8"/>
<path d="M356.408 77.5011H319.961V63.4314H339.525V31.2719H319.425V18.8101H339.525V0.318359H356.408V77.5011ZM276.546 28.0559L291.821 18.8101H313.529V31.2719H292.893V63.4314H312.993V77.5011H291.821L276.546 68.2553V28.0559Z" fill="#E8E8E8"/>
<path d="M240.812 0.452294H257.964V77.6351H240.812V0.452294Z" fill="#E8E8E8"/>
<path d="M143.665 27.7879V68.1212L159.343 77.3671H180.514V63.0293H160.415V31.1378H180.514V18.542H159.343L143.665 27.7879ZM222.322 27.7879V68.1212L206.644 77.3671H185.338V63.0293H205.572V31.1378H185.338V18.542H206.644L222.322 27.7879Z" fill="#E8E8E8"/>
<path d="M32 9.69815V68.3892L47.6778 77.5011H74.8793V62.3593H49.4197V16.264H75.4153V0.452294H47.6778L32 9.69815ZM124.861 25.3759H107.441V16.264H81.4452V0.452294H109.183L124.861 9.69815V25.3759ZM124.861 31.4058V68.3892L109.183 77.5011H81.9812V62.3593H107.441V46.6816H81.4452V31.4058H124.861Z" fill="#E8E8E8"/>
<path d="M1079.84 51.372V68.3897L1095.12 77.6355H1117.09V63.4317H1096.86V52.4439H1117.09V42.1261H1095.12L1079.84 51.372ZM1079.84 37.1682H1096.86V31.1383H1117.09V18.5425H1095.12L1079.84 27.9223V37.1682ZM1160.24 27.9223V77.6355H1123.52V63.4317H1143.22V52.4439H1122.99V42.1261H1143.22V31.1383H1122.99V18.5425H1144.96L1160.24 27.9223Z" fill="#E8E8E8"/>
<path d="M1059.87 18.5424V77.6355H1042.99V18.5424H1059.87ZM1059.6 13.0485H1042.99V0.586714H1059.6V13.0485Z" fill="#E8E8E8"/>
<path d="M1022.35 77.5011H985.906V63.4313H1005.47V31.2719H985.37V18.8101H1005.47V0.318359H1022.35V77.5011ZM942.49 28.0559L957.766 18.8101H979.474V31.2719H958.838V63.4313H978.938V77.5011H957.766L942.49 68.2553V28.0559Z" fill="#E8E8E8"/>
<path d="M922.925 43.0637V27.7879L907.114 18.4081H885.674V31.0039H905.908V41.9917H885.674V52.3095H907.114L922.925 43.0637ZM922.925 58.8754H905.372V63.2973H885.674V77.5011H907.114L922.925 68.2552V58.8754ZM841.991 68.2552V27.7879L857.803 18.4081H879.108V31.0039H858.874V41.9917H879.108V52.3095H858.874V63.2973H879.108V77.5011H857.803L841.991 68.2552Z" fill="#E8E8E8"/>
<path d="M729.656 0.45278H744.932L772.536 26.4484V46.682L746.54 22.1604V77.5015H729.656V0.45278ZM821.981 0.45278H806.839L779.101 26.4484V46.682L805.097 22.1604V77.5015H821.981V0.45278Z" fill="#E8E8E8"/>
<path d="M1681 60.2444L1665.99 69.3563H1644.82V58.6365H1664.25V31.0329H1644.02V18.4371H1665.99L1681 27.683V60.2444ZM1601 18.4371H1638.12V31.0329H1618.02V58.6365H1637.45V69.3563H1618.02V103.258H1601V18.4371Z" fill="#E8E8E8"/>
<path d="M1582.6 77.3962H1565.85V71.3663L1545.75 77.3962V63.3265H1565.85V18.8392H1582.6V77.3962ZM1502.74 68.1504L1517.88 77.3962H1539.59V63.3265H1519.62V18.8392H1502.74V68.1504Z" fill="#E8E8E8"/>
<path d="M1405.59 27.683V68.0163L1421.27 77.2622H1442.44V62.9244H1422.34V31.0329H1442.44V18.4371H1421.27L1405.59 27.683ZM1484.25 27.683V68.0163L1468.57 77.2622H1447.26V62.9244H1467.5V31.0329H1447.26V18.4371H1468.57L1484.25 27.683Z" fill="#E8E8E8"/>
<path d="M1326.31 18.8392H1343.06V24.6011L1363.16 18.8392V31.301H1343.06V77.3962H1326.31V18.8392ZM1386.61 26.2091L1369.19 18.8392V37.0629H1386.61V26.2091Z" fill="#E8E8E8"/>
<path d="M1210.91 9.56421V68.2553L1226.58 77.3671H1253.79V62.2254H1228.33V16.1301H1254.32V0.318359H1226.58L1210.91 9.56421ZM1303.77 25.242H1286.35V16.1301H1260.35V0.318359H1288.09L1303.77 9.56421V25.242ZM1303.77 31.2719V68.2553L1288.09 77.3671H1260.89V62.2254H1286.35V46.5476H1260.35V31.2719H1303.77Z" fill="#E8E8E8"/>
</g>
<line y1="62.5" x2="1681" y2="62.5" stroke="#E8E8E8"/>
<defs>
<clipPath id="clip0_748_2557">
<rect width="1649" height="62" fill="white" transform="translate(32)"/>
</clipPath>
</defs>
</svg>
