<svg width="30" height="31" viewBox="0 0 30 31" fill="none" xmlns="http://www.w3.org/2000/svg">
<g clip-path="url(#clip0_1101_5920)">
<path fill-rule="evenodd" clip-rule="evenodd" d="M28.75 15.3374C28.75 22.9313 22.5939 29.0874 15 29.0874C7.40609 29.0874 1.25 22.9313 1.25 15.3374C1.25 7.74349 7.40609 1.5874 15 1.5874C22.5939 1.5874 28.75 7.74349 28.75 15.3374ZM15.4927 11.7383C14.1553 12.2945 11.4824 13.4459 7.47404 15.1923C6.82314 15.4511 6.48217 15.7043 6.45113 15.9519C6.39867 16.3704 6.92269 16.5351 7.63627 16.7595C7.73333 16.79 7.83391 16.8217 7.93701 16.8552C8.63906 17.0834 9.58345 17.3504 10.0744 17.361C10.5197 17.3706 11.0168 17.187 11.5655 16.8102C15.3107 14.2821 17.244 13.0043 17.3654 12.9767C17.451 12.9573 17.5696 12.9328 17.65 13.0043C17.7304 13.0758 17.7225 13.2111 17.714 13.2474C17.6621 13.4687 15.6051 15.3811 14.5407 16.3707C14.2088 16.6792 13.9734 16.898 13.9253 16.948C13.8175 17.06 13.7076 17.1659 13.6021 17.2677C12.9498 17.8964 12.4607 18.3679 13.6291 19.1379C14.1906 19.5079 14.6399 19.8139 15.0882 20.1191C15.5777 20.4525 16.066 20.785 16.6977 21.1991C16.8586 21.3046 17.0123 21.4142 17.1621 21.5209C17.7318 21.9271 18.2436 22.2919 18.8759 22.2338C19.2433 22.1999 19.6228 21.8545 19.8156 20.8241C20.2711 18.3889 21.1664 13.1127 21.3734 10.9385C21.3915 10.748 21.3687 10.5042 21.3504 10.3972C21.3321 10.2902 21.2938 10.1377 21.1547 10.0249C20.99 9.89118 20.7356 9.863 20.6219 9.865C20.1047 9.87411 19.3113 10.15 15.4927 11.7383Z" fill="#101212"/>
</g>
<defs>
<clipPath id="clip0_1101_5920">
<rect width="27.5" height="27.5" fill="white" transform="translate(1.25 1.5874)"/>
</clipPath>
</defs>
</svg>
