<svg width="30" height="31" viewBox="0 0 30 31" fill="none" xmlns="http://www.w3.org/2000/svg">
<g clip-path="url(#clip0_1101_5928)">
<path fill-rule="evenodd" clip-rule="evenodd" d="M3.1831 3.5205C1.25 5.45359 1.25 8.56484 1.25 14.7874V15.8874C1.25 22.11 1.25 25.2212 3.1831 27.1543C5.11619 29.0874 8.22744 29.0874 14.45 29.0874H15.55C21.7726 29.0874 24.8838 29.0874 26.8169 27.1543C28.75 25.2212 28.75 22.11 28.75 15.8874V14.7874C28.75 8.56484 28.75 5.45359 26.8169 3.5205C24.8838 1.5874 21.7726 1.5874 15.55 1.5874H14.45C8.22744 1.5874 5.11619 1.5874 3.1831 3.5205ZM5.89069 9.95204C6.03965 17.102 9.61464 21.3989 15.8823 21.3989H16.2376V17.3083C18.5407 17.5375 20.2823 19.2218 20.9813 21.3989H24.2355C23.3417 18.1448 20.9927 16.3458 19.526 15.6583C20.9927 14.8104 23.0552 12.7479 23.5479 9.95204H20.5916C19.9499 12.2208 18.048 14.2833 16.2376 14.4781V9.95204H13.2812V17.8812C11.4479 17.4229 9.13339 15.2 9.03027 9.95204H5.89069Z" fill="#101212"/>
</g>
<defs>
<clipPath id="clip0_1101_5928">
<rect width="27.5" height="27.5" fill="white" transform="translate(1.25 1.5874)"/>
</clipPath>
</defs>
</svg>
