<svg width="30" height="31" viewBox="0 0 30 31" fill="none" xmlns="http://www.w3.org/2000/svg">
<g clip-path="url(#clip0_1101_5924)">
<path d="M15.0015 2.8374C21.9052 2.8374 27.5015 8.43365 27.5015 15.3374C27.5015 22.2412 21.9052 27.8374 15.0015 27.8374C12.7925 27.841 10.6223 27.2564 8.71398 26.1437L2.50648 27.8374L4.19648 21.6274C3.08285 19.7185 2.49779 17.5474 2.50148 15.3374C2.50148 8.43365 8.09773 2.8374 15.0015 2.8374ZM10.7415 9.4624L10.4915 9.4724C10.3296 9.48226 10.1715 9.52478 10.0265 9.5974C9.89088 9.67419 9.7671 9.77018 9.65898 9.8824C9.50898 10.0237 9.42398 10.1462 9.33273 10.2649C8.87038 10.866 8.62145 11.604 8.62523 12.3624C8.62773 12.9749 8.78773 13.5712 9.03773 14.1287C9.54898 15.2562 10.3902 16.4499 11.5002 17.5562C11.7677 17.8224 12.0302 18.0899 12.3127 18.3387C13.692 19.553 15.3355 20.4287 17.1127 20.8962L17.8227 21.0049C18.054 21.0174 18.2852 20.9999 18.5177 20.9887C18.8818 20.9699 19.2372 20.8713 19.559 20.6999C19.7227 20.6156 19.8824 20.5238 20.0377 20.4249C20.0377 20.4249 20.0915 20.3899 20.194 20.3124C20.3627 20.1874 20.4665 20.0987 20.6065 19.9524C20.7102 19.8449 20.8002 19.7187 20.869 19.5749C20.9665 19.3712 21.064 18.9824 21.104 18.6587C21.134 18.4112 21.1252 18.2762 21.1215 18.1924C21.1165 18.0587 21.0052 17.9199 20.884 17.8612L20.1565 17.5349C20.1565 17.5349 19.069 17.0612 18.404 16.7587C18.3344 16.7283 18.2598 16.7109 18.184 16.7074C18.0985 16.6986 18.012 16.7082 17.9305 16.7356C17.849 16.763 17.7744 16.8075 17.7115 16.8662C17.7052 16.8637 17.6215 16.9349 16.7177 18.0299C16.6659 18.0996 16.5944 18.1523 16.5125 18.1812C16.4306 18.2102 16.3419 18.2141 16.2577 18.1924C16.1763 18.1706 16.0965 18.143 16.019 18.1099C15.864 18.0449 15.8102 18.0199 15.704 17.9749C14.9866 17.6618 14.3223 17.2388 13.7352 16.7212C13.5777 16.5837 13.4315 16.4337 13.2815 16.2887C12.7897 15.8177 12.3611 15.2849 12.0065 14.7037L11.9327 14.5849C11.8798 14.5051 11.8369 14.419 11.8052 14.3287C11.7577 14.1449 11.8815 13.9974 11.8815 13.9974C11.8815 13.9974 12.1852 13.6649 12.3265 13.4849C12.464 13.3099 12.5802 13.1399 12.6552 13.0187C12.8027 12.7812 12.849 12.5374 12.7715 12.3487C12.4215 11.4937 12.059 10.6424 11.6865 9.7974C11.6127 9.6299 11.394 9.5099 11.1952 9.48615C11.1277 9.47865 11.0602 9.47115 10.9927 9.46615C10.8249 9.45781 10.6567 9.45948 10.489 9.47115L10.7415 9.4624Z" fill="#101212"/>
</g>
<defs>
<clipPath id="clip0_1101_5924">
<rect width="30" height="30" fill="white" transform="translate(0 0.337402)"/>
</clipPath>
</defs>
</svg>
